<?xml version="1.0" encoding="utf-8"?>
<!-- Generator: Adobe Illustrator 27.3.1, SVG Export Plug-In . SVG Version: 6.00 Build 0)  -->
<svg version="1.1" id="Layer_1" xmlns="http://www.w3.org/2000/svg" xmlns:xlink="http://www.w3.org/1999/xlink" x="0px" y="0px"
	 viewBox="0 0 320 320" style="enable-background:new 0 0 320 320;" xml:space="preserve">
<style type="text/css">
	.st0{fill:#18303A;}
</style>
<g>
	<g>
		<path class="st0" d="M187.65,287.34H24.21V23.16h34.96v232.82h128.48V287.34z"/>
		<g>
			<path class="st0" d="M115.13,173.97c7.31,0,13.29,2.47,17.94,7.4c4.65,4.94,6.98,11.46,6.98,19.58c0,8.12-2.33,14.64-6.98,19.58
				c-4.65,4.94-10.63,7.4-17.94,7.4c-7.33,0-13.34-2.47-18.01-7.42c-4.67-4.95-7.01-11.47-7.01-19.56c0-8.12,2.34-14.64,7.01-19.58
				C101.8,176.44,107.8,173.97,115.13,173.97z M115.06,222.03c5.22,0,9.5-1.85,12.83-5.55c3.33-3.7,5-8.88,5-15.52
				s-1.66-11.82-4.98-15.52s-7.56-5.55-12.71-5.55c-5.24,0-9.55,1.85-12.9,5.55c-3.36,3.7-5.04,8.88-5.04,15.52
				c0,6.62,1.67,11.79,5.02,15.5C105.63,220.17,109.89,222.03,115.06,222.03z"/>
			<path class="st0" d="M157.03,227.05h-6.94v-52.18h6.94V227.05z"/>
			<path class="st0" d="M206.58,181.06h-17.26v45.99h-6.94v-45.99h-17.12v-6.19h41.33V181.06z"/>
			<path class="st0" d="M251.11,181.06h-17.26v45.99h-6.94v-45.99h-17.12v-6.19h41.33V181.06z"/>
			<path class="st0" d="M297.45,227.05h-38.91v-52.18h37.7v6.19h-30.79V197h28.8v6.19h-28.8v17.66h32V227.05z"/>
		</g>
	</g>
	<path class="st0" d="M137.91,200.98l-12.75-12.45l-5.04,5.16l-5.29-5.16l-5.03,5.15l-5.28-5.15l-12.79,13.11l12.75,12.45l5.03-5.15
		l5.28,5.15l5.04-5.16l5.29,5.16L137.91,200.98z M114.85,189.7l4.7,4.59l-4.45,4.56l-4.7-4.59L114.85,189.7z M113.96,203.2
		l-2.27,2.33l-6.3-6.14l4.42-4.53l4.7,4.59l-2.15,2.2L113.96,203.2z M115.72,199.39l4.41-4.52l6.28,6.13l-4.41,4.52L115.72,199.39z
		 M106.66,210.68l-11.57-11.29l9.45-9.68l4.69,4.57l-7.19,7.37l6.89,6.72L106.66,210.68z M116.97,210.68l-4.69-4.57l2.27-2.33
		l4.69,4.57L116.97,210.68z M127.58,200.98l-6.87-6.71l4.46-4.57L136.74,201l-9.45,9.68l-4.7-4.59L127.58,200.98z"/>
</g>
</svg>
