<?xml version="1.0" encoding="utf-8"?>
<!-- Generator: Adobe Illustrator 27.3.1, SVG Export Plug-In . SVG Version: 6.00 Build 0)  -->
<svg version="1.1" id="Layer_1" xmlns="http://www.w3.org/2000/svg" xmlns:xlink="http://www.w3.org/1999/xlink" x="0px" y="0px"
	 viewBox="0 0 320 320" style="enable-background:new 0 0 320 320;" xml:space="preserve">
<style type="text/css">
	.st0{fill:#192E4E;}
	.st1{font-family:'MVBoli';}
	.st2{font-size:53.28px;}
</style>
<path class="st0" d="M280.88,116.6L214.1,51.42l-26.38,27.03l-27.69-27.03L133.7,78.39l-27.63-26.97l-66.99,68.63l66.78,65.18
	l26.32-26.97l27.63,26.97l26.38-27.03l27.69,27.03L280.88,116.6z M160.1,57.53l24.6,24.01l-23.3,23.88l-24.6-24.01L160.1,57.53z
	 M155.48,128.22l-11.9,12.19l-32.96-32.17l23.16-23.73l24.6,24.01l-11.27,11.54L155.48,128.22z M164.69,108.23l23.1-23.67
	l32.9,32.11l-23.1,23.67L164.69,108.23z M117.26,167.38l-60.59-59.14l49.49-50.7l24.54,23.95l-37.65,38.57l36.06,35.19
	L117.26,167.38z M171.21,167.38l-24.54-23.95l11.9-12.19l24.54,23.95L171.21,167.38z M226.8,116.6l-35.99-35.13l23.36-23.94
	l60.59,59.14l-49.49,50.7l-24.6-24.01L226.8,116.6z"/>
<text transform="matrix(1 0 0 1 63.1787 243.1416)" class="st0 st1 st2">LOITTE</text>
</svg>
