<?xml version="1.0" encoding="utf-8"?>
<!-- Generator: Adobe Illustrator 27.3.1, SVG Export Plug-In . SVG Version: 6.00 Build 0)  -->
<svg version="1.1" id="Layer_1" xmlns="http://www.w3.org/2000/svg" xmlns:xlink="http://www.w3.org/1999/xlink" x="0px" y="0px"
	 viewBox="0 0 320 320" style="enable-background:new 0 0 320 320;" xml:space="preserve">
<style type="text/css">
	.st0{fill:#18303A;}
</style>
<g>
	<path class="st0" d="M132.82,142.15c2.17,2.43,3.26,5.82,3.26,10.18c0,4.36-1.09,7.76-3.28,10.19c-2.18,2.42-4.99,3.64-8.42,3.64
		c-3.39,0-6.18-1.22-8.38-3.66c-2.2-2.43-3.29-5.82-3.29-10.17c0-4.36,1.1-7.75,3.3-10.18s5.03-3.64,8.47-3.64
		C127.86,138.51,130.64,139.72,132.82,142.15z"/>
	<path class="st0" d="M255.54,106.23l-79.68-45.8l-79.51,46.1l0.17,91.9l79.68,45.81l79.51-46.1L255.54,106.23z M136.2,165.18
		c-3.05,3.24-6.97,4.86-11.77,4.86c-4.81,0-8.75-1.63-11.82-4.87c-3.06-3.25-4.6-7.53-4.6-12.84c0-5.32,1.54-9.6,4.6-12.84
		c3.07-3.24,7.01-4.86,11.82-4.86c4.8,0,8.72,1.62,11.77,4.86s4.58,7.52,4.58,12.84C140.78,157.66,139.25,161.94,136.2,165.18z
		 M151.92,169.45h-4.56v-34.24h4.56V169.45z M184.43,139.28H173.1v30.17h-4.55v-30.17h-11.24v-4.07h27.12V139.28z M213.64,139.28
		h-11.32v30.17h-4.56v-30.17h-11.23v-4.07h27.11V139.28z M244.05,169.45h-25.52v-34.24h24.73v4.07h-20.2v10.46h18.89v4.06h-18.89
		v11.59h20.99V169.45z"/>
	<path class="st0" d="M209.48,290.13H46.04V25.95H81v232.82h128.48V290.13z"/>
</g>
</svg>
