<?xml version="1.0" encoding="utf-8"?>
<!-- Generator: Adobe Illustrator 27.3.1, SVG Export Plug-In . SVG Version: 6.00 Build 0)  -->
<svg version="1.1" id="Layer_1" xmlns="http://www.w3.org/2000/svg" xmlns:xlink="http://www.w3.org/1999/xlink" x="0px" y="0px"
	 viewBox="0 0 320 320" style="enable-background:new 0 0 320 320;" xml:space="preserve">
<style type="text/css">
	.st0{fill:#18303A;}
</style>
<path class="st0" d="M148.73,201.07l-4.68-4.57l-9.45,9.68l11.57,11.3l2.26-2.32l-6.89-6.72L148.73,201.07z M154.02,206.24
	l-4.7-4.59l-4.42,4.53l6.29,6.15l2.28-2.33l-1.6-1.56L154.02,206.24z M154.06,210.58l-2.28,2.32l4.69,4.58l2.27-2.33L154.06,210.58z
	 M154.35,196.5l-4.45,4.56l4.7,4.59l4.45-4.56L154.35,196.5z M159.64,201.66l-4.41,4.52l6.28,6.14l4.41-4.53L159.64,201.66z
	 M164.68,196.5l-4.47,4.57l6.88,6.71l-4.99,5.11l4.7,4.59l9.45-9.69L164.68,196.5z M164.68,196.5l-4.47,4.57l6.88,6.71l-4.99,5.11
	l4.7,4.59l9.45-9.69L164.68,196.5z M159.64,201.66l-4.41,4.52l6.28,6.14l4.41-4.53L159.64,201.66z M154.35,196.5l-4.45,4.56
	l4.7,4.59l4.45-4.56L154.35,196.5z M154.06,210.58l-2.28,2.32l4.69,4.58l2.27-2.33L154.06,210.58z M154.02,206.24l-4.7-4.59
	l-4.42,4.53l6.29,6.15l2.28-2.33l-1.6-1.56L154.02,206.24z M148.73,201.07l-4.68-4.57l-9.45,9.68l11.57,11.3l2.26-2.32l-6.89-6.72
	L148.73,201.07z M148.73,201.07l-4.68-4.57l-9.45,9.68l11.57,11.3l2.26-2.32l-6.89-6.72L148.73,201.07z M154.02,206.24l-4.7-4.59
	l-4.42,4.53l6.29,6.15l2.28-2.33l-1.6-1.56L154.02,206.24z M154.06,210.58l-2.28,2.32l4.69,4.58l2.27-2.33L154.06,210.58z
	 M154.35,196.5l-4.45,4.56l4.7,4.59l4.45-4.56L154.35,196.5z M159.64,201.66l-4.41,4.52l6.28,6.14l4.41-4.53L159.64,201.66z
	 M164.68,196.5l-4.47,4.57l6.88,6.71l-4.99,5.11l4.7,4.59l9.45-9.69L164.68,196.5z M195.08,207.77c-0.21-0.92-0.52-1.7-0.94-2.33
	c-0.42-0.64-0.94-1.12-1.56-1.46c-0.63-0.34-1.36-0.5-2.19-0.5c-0.77,0-1.47,0.16-2.07,0.49c-0.61,0.34-1.11,0.81-1.53,1.43
	c-0.41,0.61-0.72,1.36-0.94,2.24c-0.21,0.87-0.32,1.86-0.32,2.94c0,1.08,0.11,2.07,0.32,2.97c0.21,0.9,0.52,1.68,0.93,2.32
	c0.41,0.65,0.92,1.15,1.53,1.51c0.6,0.36,1.3,0.54,2.09,0.54c0.72,0,1.37-0.14,1.98-0.41c0.61-0.27,1.14-0.69,1.58-1.26
	c0.45-0.57,0.8-1.3,1.05-2.19c0.26-0.88,0.38-1.93,0.38-3.16C195.39,209.73,195.29,208.68,195.08,207.77z M164.68,196.5l-4.47,4.57
	l6.88,6.71l-4.99,5.11l4.7,4.59l9.45-9.69L164.68,196.5z M159.64,201.66l-4.41,4.52l6.28,6.14l4.41-4.53L159.64,201.66z
	 M154.35,196.5l-4.45,4.56l4.7,4.59l4.45-4.56L154.35,196.5z M154.06,210.58l-2.28,2.32l4.69,4.58l2.27-2.33L154.06,210.58z
	 M154.02,206.24l-4.7-4.59l-4.42,4.53l6.29,6.15l2.28-2.33l-1.6-1.56L154.02,206.24z M148.73,201.07l-4.68-4.57l-9.45,9.68
	l11.57,11.3l2.26-2.32l-6.89-6.72L148.73,201.07z M195.08,207.77c-0.21-0.92-0.52-1.7-0.94-2.33c-0.42-0.64-0.94-1.12-1.56-1.46
	c-0.63-0.34-1.36-0.5-2.19-0.5c-0.77,0-1.47,0.16-2.07,0.49c-0.61,0.34-1.11,0.81-1.53,1.43c-0.41,0.61-0.72,1.36-0.94,2.24
	c-0.21,0.87-0.32,1.86-0.32,2.94c0,1.08,0.11,2.07,0.32,2.97c0.21,0.9,0.52,1.68,0.93,2.32c0.41,0.65,0.92,1.15,1.53,1.51
	c0.6,0.36,1.3,0.54,2.09,0.54c0.72,0,1.37-0.14,1.98-0.41c0.61-0.27,1.14-0.69,1.58-1.26c0.45-0.57,0.8-1.3,1.05-2.19
	c0.26-0.88,0.38-1.93,0.38-3.16C195.39,209.73,195.29,208.68,195.08,207.77z M148.73,201.07l-4.68-4.57l-9.45,9.68l11.57,11.3
	l2.26-2.32l-6.89-6.72L148.73,201.07z M154.02,206.24l-4.7-4.59l-4.42,4.53l6.29,6.15l2.28-2.33l-1.6-1.56L154.02,206.24z
	 M154.06,210.58l-2.28,2.32l4.69,4.58l2.27-2.33L154.06,210.58z M154.35,196.5l-4.45,4.56l4.7,4.59l4.45-4.56L154.35,196.5z
	 M159.64,201.66l-4.41,4.52l6.28,6.14l4.41-4.53L159.64,201.66z M164.68,196.5l-4.47,4.57l6.88,6.71l-4.99,5.11l4.7,4.59l9.45-9.69
	L164.68,196.5z M195.08,207.77c-0.21-0.92-0.52-1.7-0.94-2.33c-0.42-0.64-0.94-1.12-1.56-1.46c-0.63-0.34-1.36-0.5-2.19-0.5
	c-0.77,0-1.47,0.16-2.07,0.49c-0.61,0.34-1.11,0.81-1.53,1.43c-0.41,0.61-0.72,1.36-0.94,2.24c-0.21,0.87-0.32,1.86-0.32,2.94
	c0,1.08,0.11,2.07,0.32,2.97c0.21,0.9,0.52,1.68,0.93,2.32c0.41,0.65,0.92,1.15,1.53,1.51c0.6,0.36,1.3,0.54,2.09,0.54
	c0.72,0,1.37-0.14,1.98-0.41c0.61-0.27,1.14-0.69,1.58-1.26c0.45-0.57,0.8-1.3,1.05-2.19c0.26-0.88,0.38-1.93,0.38-3.16
	C195.39,209.73,195.29,208.68,195.08,207.77z M164.68,196.5l-4.47,4.57l6.88,6.71l-4.99,5.11l4.7,4.59l9.45-9.69L164.68,196.5z
	 M159.64,201.66l-4.41,4.52l6.28,6.14l4.41-4.53L159.64,201.66z M159.05,201.09l-4.7-4.59l-4.45,4.56l4.7,4.59L159.05,201.09z
	 M151.78,212.9l4.69,4.58l2.27-2.33l-4.68-4.57L151.78,212.9z M151.87,208.44l2.15-2.2l-4.7-4.59l-4.42,4.53l6.29,6.15l2.28-2.33
	L151.87,208.44z M148.73,201.07l-4.68-4.57l-9.45,9.68l11.57,11.3l2.26-2.32l-6.89-6.72L148.73,201.07z M195.08,207.77
	c-0.21-0.92-0.52-1.7-0.94-2.33c-0.42-0.64-0.94-1.12-1.56-1.46c-0.63-0.34-1.36-0.5-2.19-0.5c-0.77,0-1.47,0.16-2.07,0.49
	c-0.61,0.34-1.11,0.81-1.53,1.43c-0.41,0.61-0.72,1.36-0.94,2.24c-0.21,0.87-0.32,1.86-0.32,2.94c0,1.08,0.11,2.07,0.32,2.97
	c0.21,0.9,0.52,1.68,0.93,2.32c0.41,0.65,0.92,1.15,1.53,1.51c0.6,0.36,1.3,0.54,2.09,0.54c0.72,0,1.37-0.14,1.98-0.41
	c0.61-0.27,1.14-0.69,1.58-1.26c0.45-0.57,0.8-1.3,1.05-2.19c0.26-0.88,0.38-1.93,0.38-3.16
	C195.39,209.73,195.29,208.68,195.08,207.77z M157.47,30.27c-70.42,0-127.5,57.09-127.5,127.5c0,70.42,57.08,127.5,127.5,127.5
	c70.41,0,127.5-57.08,127.5-127.5C284.97,87.36,227.88,30.27,157.47,30.27z M207.32,203h12.73v3.6h-0.26
	c-0.06-0.48-0.16-0.89-0.3-1.23c-0.14-0.33-0.33-0.6-0.55-0.81c-0.23-0.21-0.51-0.36-0.83-0.45c-0.33-0.1-0.7-0.15-1.13-0.15h-2.17
	v11.75c0,0.94,0.1,1.53,0.31,1.77c0.28,0.31,0.72,0.47,1.32,0.47h0.54v0.42h-6.52v-0.42H211c0.65,0,1.11-0.19,1.38-0.59
	c0.17-0.23,0.25-0.78,0.25-1.65v-11.75h-1.84c-0.47,0-0.88,0.04-1.23,0.11c-0.35,0.06-0.64,0.19-0.88,0.38s-0.44,0.46-0.59,0.81
	c-0.15,0.34-0.27,0.79-0.34,1.34h-0.43V203z M199.46,217.95h0.55c0.64,0,1.1-0.18,1.38-0.55c0.18-0.24,0.27-0.82,0.27-1.75v-9.93
	c0-0.36-0.01-0.66-0.02-0.88c-0.02-0.23-0.05-0.42-0.09-0.56c-0.04-0.15-0.1-0.27-0.18-0.35s-0.19-0.16-0.32-0.24
	c-0.33-0.18-0.68-0.27-1.04-0.27h-0.55V203h6.59v0.42h-0.56c-0.63,0-1.09,0.18-1.37,0.55c-0.19,0.24-0.28,0.82-0.28,1.75v9.93
	c0,0.36,0,0.66,0.02,0.88c0.02,0.23,0.04,0.42,0.09,0.56c0.04,0.14,0.1,0.26,0.18,0.35c0.09,0.08,0.19,0.16,0.33,0.24
	c0.33,0.18,0.67,0.27,1.03,0.27h0.56v0.42h-6.59V217.95z M185.43,204.66c1.44-1.34,3.17-2.01,5.18-2.01c1.99,0,3.71,0.76,5.18,2.28
	c1.47,1.51,2.2,3.4,2.2,5.66c0,2.34-0.74,4.28-2.21,5.82c-1.48,1.54-3.26,2.31-5.35,2.31c-2.13,0-3.91-0.75-5.34-2.25
	c-1.44-1.51-2.16-3.45-2.16-5.84C182.93,208.19,183.77,206.2,185.43,204.66z M144.03,195.33l5.28,5.15l5.02-5.15l5.29,5.17
	l5.04-5.17l12.75,12.45l-12.79,13.11l-5.29-5.16l-5.04,5.16l-5.27-5.15l-5.03,5.15l-12.75-12.45L144.03,195.33z M221.54,247.87
	H101.39V53.67h25.7v171.15h94.45V247.87z M234.23,206.6h-0.26c-0.06-0.48-0.16-0.89-0.3-1.23c-0.14-0.33-0.33-0.6-0.55-0.81
	c-0.23-0.21-0.51-0.36-0.83-0.45c-0.33-0.1-0.7-0.15-1.13-0.15h-2.17v11.75c0,0.94,0.1,1.53,0.31,1.77
	c0.28,0.31,0.72,0.47,1.32,0.47h0.54v0.42h-6.52v-0.42h0.54c0.65,0,1.11-0.19,1.39-0.59c0.16-0.23,0.24-0.78,0.24-1.65v-11.75h-1.84
	c-0.47,0-0.88,0.04-1.23,0.11c-0.35,0.06-0.64,0.19-0.88,0.38s-0.44,0.46-0.59,0.81c-0.15,0.34-0.27,0.79-0.34,1.34h-0.43V203h12.73
	V206.6z M247.3,218.37h-11.85v-0.42H236c0.14,0,0.29-0.01,0.45-0.04c0.16-0.03,0.31-0.08,0.45-0.15c0.14-0.07,0.26-0.15,0.38-0.26
	c0.11-0.1,0.19-0.22,0.24-0.35c0.09-0.24,0.13-0.73,0.13-1.49v-9.98c0-0.97-0.1-1.57-0.29-1.81c-0.28-0.3-0.73-0.45-1.36-0.45h-0.55
	V203h11.85v3.37h-0.27c-0.09-0.41-0.17-0.75-0.25-1.01c-0.09-0.27-0.18-0.49-0.29-0.66c-0.1-0.17-0.22-0.31-0.36-0.41
	c-0.14-0.11-0.3-0.2-0.49-0.28c-0.31-0.11-0.84-0.17-1.6-0.17h-4.21v6.07h3.38c0.49,0,0.89-0.04,1.19-0.13
	c0.31-0.08,0.55-0.22,0.72-0.4c0.18-0.19,0.3-0.42,0.36-0.7c0.07-0.28,0.12-0.61,0.14-1h0.42v5.35h-0.42
	c-0.05-0.38-0.11-0.68-0.16-0.92c-0.05-0.24-0.1-0.41-0.16-0.52c-0.07-0.13-0.15-0.25-0.26-0.35c-0.1-0.11-0.24-0.2-0.41-0.27
	c-0.16-0.08-0.36-0.13-0.6-0.17c-0.23-0.04-0.51-0.06-0.82-0.06h-3.38v5.07c0,0.67,0.03,1.09,0.09,1.25
	c0.03,0.06,0.07,0.13,0.11,0.19c0.05,0.06,0.11,0.11,0.2,0.15c0.09,0.04,0.2,0.08,0.34,0.1c0.14,0.02,0.32,0.03,0.53,0.03h2.6
	c0.45,0,0.82-0.01,1.12-0.04c0.3-0.02,0.56-0.07,0.78-0.13c0.23-0.07,0.42-0.16,0.59-0.28c0.17-0.11,0.35-0.26,0.54-0.44
	c0.24-0.23,0.47-0.52,0.71-0.88c0.25-0.35,0.49-0.77,0.73-1.24h0.45L247.3,218.37z M186.78,215.87c0.41,0.65,0.92,1.15,1.53,1.51
	c0.6,0.36,1.3,0.54,2.09,0.54c0.72,0,1.37-0.14,1.98-0.41c0.61-0.27,1.14-0.69,1.58-1.26c0.45-0.57,0.8-1.3,1.05-2.19
	c0.26-0.88,0.38-1.93,0.38-3.16c0-1.17-0.1-2.22-0.31-3.13c-0.21-0.92-0.52-1.7-0.94-2.33c-0.42-0.64-0.94-1.12-1.56-1.46
	c-0.63-0.34-1.36-0.5-2.19-0.5c-0.77,0-1.47,0.16-2.07,0.49c-0.61,0.34-1.11,0.81-1.53,1.43c-0.41,0.61-0.72,1.36-0.94,2.24
	c-0.21,0.87-0.32,1.86-0.32,2.94c0,1.08,0.11,2.07,0.32,2.97C186.06,214.45,186.37,215.23,186.78,215.87z M162.1,212.89l4.7,4.59
	l9.45-9.69l-11.57-11.29l-4.47,4.57l6.88,6.71L162.1,212.89z M161.51,212.32l4.41-4.53l-6.28-6.13l-4.41,4.52L161.51,212.32z
	 M159.05,201.09l-4.7-4.59l-4.45,4.56l4.7,4.59L159.05,201.09z M151.78,212.9l4.69,4.58l2.27-2.33l-4.68-4.57L151.78,212.9z
	 M151.19,212.33l2.28-2.33l-1.6-1.56l2.15-2.2l-4.7-4.59l-4.42,4.53L151.19,212.33z M148.43,215.16l-6.89-6.72l7.19-7.37l-4.68-4.57
	l-9.45,9.68l11.57,11.3L148.43,215.16z M195.08,207.77c-0.21-0.92-0.52-1.7-0.94-2.33c-0.42-0.64-0.94-1.12-1.56-1.46
	c-0.63-0.34-1.36-0.5-2.19-0.5c-0.77,0-1.47,0.16-2.07,0.49c-0.61,0.34-1.11,0.81-1.53,1.43c-0.41,0.61-0.72,1.36-0.94,2.24
	c-0.21,0.87-0.32,1.86-0.32,2.94c0,1.08,0.11,2.07,0.32,2.97c0.21,0.9,0.52,1.68,0.93,2.32c0.41,0.65,0.92,1.15,1.53,1.51
	c0.6,0.36,1.3,0.54,2.09,0.54c0.72,0,1.37-0.14,1.98-0.41c0.61-0.27,1.14-0.69,1.58-1.26c0.45-0.57,0.8-1.3,1.05-2.19
	c0.26-0.88,0.38-1.93,0.38-3.16C195.39,209.73,195.29,208.68,195.08,207.77z M148.73,201.07l-4.68-4.57l-9.45,9.68l11.57,11.3
	l2.26-2.32l-6.89-6.72L148.73,201.07z M154.02,206.24l-4.7-4.59l-4.42,4.53l6.29,6.15l2.28-2.33l-1.6-1.56L154.02,206.24z
	 M154.06,210.58l-2.28,2.32l4.69,4.58l2.27-2.33L154.06,210.58z M154.35,196.5l-4.45,4.56l4.7,4.59l4.45-4.56L154.35,196.5z
	 M159.64,201.66l-4.41,4.52l6.28,6.14l4.41-4.53L159.64,201.66z M164.68,196.5l-4.47,4.57l6.88,6.71l-4.99,5.11l4.7,4.59l9.45-9.69
	L164.68,196.5z M195.08,207.77c-0.21-0.92-0.52-1.7-0.94-2.33c-0.42-0.64-0.94-1.12-1.56-1.46c-0.63-0.34-1.36-0.5-2.19-0.5
	c-0.77,0-1.47,0.16-2.07,0.49c-0.61,0.34-1.11,0.81-1.53,1.43c-0.41,0.61-0.72,1.36-0.94,2.24c-0.21,0.87-0.32,1.86-0.32,2.94
	c0,1.08,0.11,2.07,0.32,2.97c0.21,0.9,0.52,1.68,0.93,2.32c0.41,0.65,0.92,1.15,1.53,1.51c0.6,0.36,1.3,0.54,2.09,0.54
	c0.72,0,1.37-0.14,1.98-0.41c0.61-0.27,1.14-0.69,1.58-1.26c0.45-0.57,0.8-1.3,1.05-2.19c0.26-0.88,0.38-1.93,0.38-3.16
	C195.39,209.73,195.29,208.68,195.08,207.77z M164.68,196.5l-4.47,4.57l6.88,6.71l-4.99,5.11l4.7,4.59l9.45-9.69L164.68,196.5z
	 M159.64,201.66l-4.41,4.52l6.28,6.14l4.41-4.53L159.64,201.66z M154.35,196.5l-4.45,4.56l4.7,4.59l4.45-4.56L154.35,196.5z
	 M154.06,210.58l-2.28,2.32l4.69,4.58l2.27-2.33L154.06,210.58z M154.02,206.24l-4.7-4.59l-4.42,4.53l6.29,6.15l2.28-2.33l-1.6-1.56
	L154.02,206.24z M148.73,201.07l-4.68-4.57l-9.45,9.68l11.57,11.3l2.26-2.32l-6.89-6.72L148.73,201.07z M148.73,201.07l-4.68-4.57
	l-9.45,9.68l11.57,11.3l2.26-2.32l-6.89-6.72L148.73,201.07z M154.02,206.24l-4.7-4.59l-4.42,4.53l6.29,6.15l2.28-2.33l-1.6-1.56
	L154.02,206.24z M154.06,210.58l-2.28,2.32l4.69,4.58l2.27-2.33L154.06,210.58z M154.35,196.5l-4.45,4.56l4.7,4.59l4.45-4.56
	L154.35,196.5z M159.64,201.66l-4.41,4.52l6.28,6.14l4.41-4.53L159.64,201.66z M164.68,196.5l-4.47,4.57l6.88,6.71l-4.99,5.11
	l4.7,4.59l9.45-9.69L164.68,196.5z M164.68,196.5l-4.47,4.57l6.88,6.71l-4.99,5.11l4.7,4.59l9.45-9.69L164.68,196.5z M159.64,201.66
	l-4.41,4.52l6.28,6.14l4.41-4.53L159.64,201.66z M154.35,196.5l-4.45,4.56l4.7,4.59l4.45-4.56L154.35,196.5z M154.06,210.58
	l-2.28,2.32l4.69,4.58l2.27-2.33L154.06,210.58z M154.02,206.24l-4.7-4.59l-4.42,4.53l6.29,6.15l2.28-2.33l-1.6-1.56L154.02,206.24z
	 M148.73,201.07l-4.68-4.57l-9.45,9.68l11.57,11.3l2.26-2.32l-6.89-6.72L148.73,201.07z"/>
</svg>
