<?xml version="1.0" encoding="utf-8"?>
<!-- Generator: Adobe Illustrator 27.3.1, SVG Export Plug-In . SVG Version: 6.00 Build 0)  -->
<svg version="1.1" id="Layer_1" xmlns="http://www.w3.org/2000/svg" xmlns:xlink="http://www.w3.org/1999/xlink" x="0px" y="0px"
	 viewBox="0 0 320 320" style="enable-background:new 0 0 320 320;" xml:space="preserve">
<style type="text/css">
	.st0{fill:url(#SVGID_1_);}
	.st1{fill:#C8E8EB;}
</style>
<g>
	<radialGradient id="SVGID_1_" cx="160" cy="160" r="137.18" gradientUnits="userSpaceOnUse">
		<stop  offset="0" style="stop-color:#B09D32;stop-opacity:0.7"/>
		<stop  offset="0.8173" style="stop-color:#CF6228"/>
	</radialGradient>
	<circle class="st0" cx="160" cy="160" r="137.18"/>
	<g>
		<path class="st1" d="M164.42,152.65c0.99,5.15,0.48,10.74-1.52,16.76c-2,6.02-5.87,12.03-11.62,18.04
			c-1.8,1.83-4.02,3.87-6.67,6.12c-2.65,2.25-5.54,4.57-8.68,6.95c-3.14,2.38-6.47,4.75-9.99,7.09c-3.52,2.34-7.12,4.5-10.78,6.46
			c-3.67,1.96-7.29,3.68-10.87,5.14c-3.58,1.47-7.01,2.52-10.3,3.15c-1.65,0.32-3.08,0.46-4.31,0.44c-1.23-0.03-2.4-0.26-3.53-0.72
			c-1.13-0.45-2.26-1.16-3.42-2.13c-1.15-0.97-2.42-2.21-3.83-3.72c-1.47,1.62-3.09,2.91-4.87,3.88c-1.78,0.97-3.63,1.64-5.57,2.02
			l-3.01,0.58c-0.57,0.11-1.15,0.02-1.72-0.28c-0.58-0.3-1.12-0.69-1.62-1.19c-0.5-0.5-0.93-1.06-1.28-1.7
			c-0.34-0.64-0.58-1.28-0.7-1.92c-0.7-3.65-0.85-7.24-0.45-10.77c0.4-3.53,0.97-7.07,1.69-10.62c0.84-6.47,1.65-13.25,2.45-20.34
			c0.79-7.09,1.5-14.18,2.15-21.28c0.64-7.1,1.21-14.09,1.71-20.98c0.5-6.88,0.94-13.4,1.31-19.56l0.62-13.03
			c-0.04-0.21-0.19-0.81-0.46-1.8c-0.27-0.99-0.56-2.06-0.9-3.22c-0.33-1.16-0.63-2.23-0.9-3.22l-0.38-1.37l0.19-1.93l-0.09,0.13
			c0.11-1.36,0.33-2.92,0.66-4.69c0.32-1.77,0.82-3.46,1.47-5.07c0.66-1.61,1.45-3,2.37-4.19c0.92-1.18,2.03-1.89,3.32-2.14
			c1.21-0.23,2.79-0.44,4.72-0.63c1.93-0.19,3.65-0.42,5.15-0.71c0.71-0.14,1.4-0.31,2.07-0.51c0.67-0.2,1.49-0.54,2.47-1.03
			c0.98-0.48,2.26-1.16,3.84-2.02c1.58-0.86,3.64-2.01,6.18-3.47c3.81-2.21,7.32-4.13,10.53-5.75c3.21-1.62,6.28-3.02,9.21-4.22
			c2.92-1.19,5.79-2.2,8.6-3.04c2.81-0.83,5.71-1.54,8.72-2.12c3.79-0.73,7.53-1.07,11.21-1.04c3.68,0.04,7.05,0.6,10.12,1.68
			c3.07,1.08,5.67,2.77,7.82,5.07c2.15,2.3,3.58,5.31,4.29,9.03c1.22,6.37,0.64,12.42-1.75,18.15c-2.39,5.73-6.24,11.37-11.56,16.91
			c-5.32,5.55-11.93,11.03-19.84,16.44c-7.9,5.41-16.8,10.96-26.69,16.64c8.69-0.33,16.27-0.21,22.72,0.37
			c6.45,0.58,11.91,1.66,16.37,3.26c4.46,1.59,7.95,3.71,10.46,6.34C162.05,145.54,163.68,148.79,164.42,152.65z M126.02,149.78
			c-0.75,0-2.1,0-4.07,0c-1.97,0.01-4.26,0.04-6.88,0.1s-5.44,0.14-8.47,0.23c-3.03,0.1-5.91,0.17-8.64,0.21
			c-2.74,0.04-5.24,0.06-7.5,0.05c-2.26-0.01-3.92-0.06-4.98-0.16c-1.03,9.33-1.8,18.21-2.29,26.65c-0.5,8.44-1,16.94-1.51,25.5
			l7.23-0.61c1.68-0.17,3.15-0.32,4.42-0.46c1.27-0.13,2.02-0.22,2.23-0.26c2.81-0.83,5.85-1.99,9.13-3.48
			c3.28-1.48,6.64-3.2,10.09-5.16c3.44-1.96,6.91-4.15,10.37-6.56c3.47-2.41,6.85-4.93,10.13-7.56c1.2-1.12,2.43-2.43,3.7-3.94
			c1.27-1.51,2.37-3.11,3.31-4.81c0.93-1.7,1.64-3.45,2.11-5.25c0.47-1.8,0.54-3.55,0.21-5.27c-0.55-2.86-2.53-5.06-5.94-6.6
			C135.25,150.89,131.03,150.01,126.02,149.78z M87.32,131.38c3.76-2.06,7.69-4.39,11.79-6.99c4.1-2.61,8.3-5.39,12.59-8.37
			c4.29-2.97,8.63-6.09,13.01-9.34c4.38-3.25,8.75-6.52,13.09-9.8l-0.11,0.02c1.54-1.26,3.02-2.71,4.45-4.36
			c1.43-1.65,2.66-3.37,3.69-5.16c1.03-1.79,1.79-3.61,2.29-5.45c0.5-1.84,0.59-3.58,0.28-5.23c-0.21-1.07-0.66-2.1-1.37-3.08
			c-0.71-0.98-1.68-1.79-2.92-2.44c-1.23-0.65-2.78-1.06-4.63-1.23c-1.85-0.16-4.07,0-6.64,0.5c-3.58,0.69-7.53,1.91-11.87,3.67
			c-4.34,1.76-8.49,3.72-12.45,5.89c-3.96,2.17-7.43,4.39-10.41,6.67c-2.97,2.28-4.86,4.27-5.64,5.98c-0.15,0.4-0.3,1.25-0.46,2.54
			c-0.16,1.29-0.35,2.72-0.57,4.28c-0.22,1.56-0.47,3.08-0.75,4.54c-0.27,1.46-0.6,2.56-0.98,3.3c-0.01,0.74-0.08,1.89-0.23,3.44
			c-0.15,1.55-0.34,3.39-0.56,5.51c-0.22,2.12-0.48,4.47-0.77,7.05C87.88,125.89,87.6,128.58,87.32,131.38z"/>
		<path class="st1" d="M206.36,158.72c-1.43,0.27-2.98,0.92-4.63,1.95c-1.66,1.02-3.3,2.17-4.91,3.44c-1.61,1.27-3.14,2.57-4.6,3.89
			c-1.45,1.32-2.73,2.38-3.84,3.19l-2.35,40.52c-0.07,1.57-0.75,2.89-2.03,3.95c-1.28,1.06-2.53,1.71-3.74,1.94
			c-3.86,0.74-6.64,0.48-8.33-0.8c-1.69-1.27-2.77-3.16-3.25-5.66c-0.21-1.07-0.33-2.18-0.36-3.32c-0.04-1.14-0.02-2.35,0.03-3.62
			l0.08-1.91c0.06-2.01,0.18-4.56,0.37-7.64c0.19-3.08,0.4-6.33,0.64-9.75c0.23-3.42,0.47-6.88,0.73-10.38
			c0.26-3.5,0.51-6.72,0.76-9.66c0.26-2.87,0.65-7.14,1.16-12.8c0.51-5.66,1.07-12,1.69-19.02c0.62-7.02,1.25-14.36,1.9-22.01
			c0.65-7.65,1.25-14.95,1.81-21.88c0.56-6.93,1.07-13.1,1.52-18.49c0.45-5.39,0.73-9.36,0.83-11.9c0.45-1.12,1.3-2.14,2.53-3.05
			c1.23-0.9,2.79-1.54,4.65-1.89c1.29-0.25,2.64-0.34,4.06-0.28c1.42,0.06,2.75,0.33,3.99,0.79c1.24,0.47,2.32,1.15,3.23,2.05
			c0.91,0.9,1.5,2.03,1.76,3.39c0.18,0.93,0.18,2.08-0.01,3.45c-1.91,13.28-3.69,26.99-5.35,41.15c-1.66,14.16-2.9,28.4-3.71,42.73
			c0.82-0.75,2.31-2.26,4.47-4.53c2.16-2.27,4.53-4.88,7.13-7.82c2.59-2.95,5.17-6,7.75-9.17c2.59-3.17,4.72-5.99,6.39-8.46
			c1.16-1.71,2.32-3.47,3.5-5.29c1.17-1.82,2.28-3.55,3.34-5.2c1.06-1.65,1.98-3.13,2.77-4.43c0.79-1.3,1.41-2.33,1.86-3.08
			c1.06-1.83,2.29-3.43,3.7-4.77c1.41-1.35,2.94-2.18,4.59-2.49c1.57-0.3,3.05-0.32,4.44-0.07c1.38,0.25,2.61,0.67,3.69,1.24
			c1.08,0.57,1.96,1.29,2.64,2.16c0.69,0.87,1.11,1.73,1.28,2.59c0.21,1.07,0.18,2.27-0.09,3.58c-0.27,1.31-0.63,2.61-1.09,3.88
			c-0.46,1.28-0.99,2.47-1.59,3.59c-0.6,1.12-1.14,1.98-1.62,2.59c-1.6,2.09-3.42,4.39-5.47,6.89c-2.04,2.51-4.18,5.07-6.43,7.69
			c-2.24,2.62-4.54,5.25-6.89,7.89c-2.35,2.64-4.63,5.17-6.83,7.6c4.99,1.64,9.33,4.27,13.03,7.91c3.7,3.63,6.91,7.84,9.6,12.63
			c2.7,4.79,4.91,9.95,6.64,15.48c1.73,5.53,3.11,10.98,4.14,16.35c0.08,0.43,0.17,1.1,0.28,2.01c0.1,0.91,0.12,1.78,0.05,2.61
			c-0.11,1.36-0.32,2.62-0.61,3.79c-0.29,1.17-0.78,2.21-1.46,3.12c-0.68,0.91-1.57,1.69-2.67,2.35c-1.1,0.66-2.51,1.15-4.23,1.48
			c-1.64,0.32-3.1,0.3-4.35-0.06c-1.25-0.35-2.35-0.92-3.28-1.71c-0.93-0.78-1.68-1.72-2.26-2.79c-0.58-1.07-0.97-2.19-1.19-3.33
			c-0.69-3.58-1.51-7.26-2.46-11.05c-0.95-3.79-2.09-7.41-3.42-10.87c-1.33-3.45-2.86-6.67-4.58-9.64c-1.72-2.97-3.7-5.43-5.92-7.38
			c-1.6-1.4-3.05-2.46-4.34-3.17c-1.29-0.72-2.72-0.92-4.29-0.62L206.36,158.72z"/>
	</g>
	<g>
		<path class="st1" d="M93.9,251.57c0,0.96-0.28,1.94-0.85,2.95c-0.56,1.01-1.46,1.95-2.7,2.83c-0.38,0.27-0.85,0.55-1.4,0.87
			c-0.55,0.31-1.15,0.63-1.79,0.95c-0.64,0.32-1.32,0.63-2.03,0.93c-0.71,0.3-1.43,0.56-2.15,0.79c-0.72,0.23-1.43,0.41-2.12,0.55
			c-0.69,0.14-1.34,0.21-1.95,0.21c-0.31,0-0.57-0.02-0.79-0.07c-0.22-0.05-0.42-0.13-0.61-0.25c-0.19-0.12-0.37-0.29-0.54-0.5
			c-0.17-0.21-0.36-0.48-0.56-0.8c-0.32,0.24-0.65,0.41-1.01,0.53c-0.35,0.11-0.71,0.17-1.07,0.17h-0.56c-0.11,0-0.21-0.04-0.3-0.11
			c-0.09-0.07-0.18-0.16-0.25-0.27c-0.07-0.11-0.13-0.22-0.17-0.35c-0.04-0.13-0.06-0.25-0.06-0.37c0-0.68,0.1-1.32,0.29-1.94
			c0.19-0.62,0.41-1.23,0.67-1.84c0.37-1.13,0.75-2.31,1.14-3.56c0.38-1.24,0.76-2.49,1.12-3.74c0.36-1.25,0.7-2.48,1.03-3.7
			c0.33-1.21,0.63-2.37,0.91-3.46l0.56-2.31c0-0.04-0.01-0.15-0.02-0.34c-0.01-0.19-0.03-0.39-0.05-0.61
			c-0.02-0.22-0.04-0.42-0.05-0.61l-0.02-0.26l0.1-0.34l-0.02,0.02c0.07-0.24,0.16-0.51,0.28-0.82c0.12-0.31,0.27-0.59,0.44-0.86
			c0.17-0.27,0.36-0.49,0.57-0.67c0.21-0.18,0.43-0.27,0.67-0.27c0.23,0,0.51,0.02,0.87,0.05s0.67,0.05,0.95,0.05
			c0.13,0,0.26-0.01,0.39-0.02c0.13-0.01,0.28-0.05,0.48-0.1c0.19-0.05,0.44-0.13,0.76-0.23c0.31-0.1,0.72-0.24,1.22-0.41
			c0.76-0.27,1.45-0.49,2.08-0.67c0.63-0.18,1.23-0.32,1.79-0.44c0.56-0.11,1.11-0.2,1.64-0.25c0.53-0.05,1.08-0.08,1.63-0.08
			c0.7,0,1.38,0.07,2.04,0.2c0.66,0.13,1.24,0.35,1.75,0.65c0.51,0.3,0.92,0.69,1.23,1.18c0.31,0.48,0.46,1.07,0.46,1.76
			c0,1.18-0.31,2.24-0.94,3.19c-0.62,0.94-1.51,1.82-2.65,2.63c-1.14,0.81-2.51,1.56-4.11,2.26c-1.6,0.7-3.38,1.38-5.35,2.06
			c1.57,0.24,2.92,0.52,4.05,0.85c1.13,0.33,2.07,0.71,2.82,1.14c0.74,0.44,1.3,0.94,1.65,1.49
			C93.72,250.22,93.9,250.86,93.9,251.57z M87.13,249.74c-0.13-0.03-0.38-0.07-0.73-0.14c-0.35-0.07-0.76-0.14-1.24-0.22
			s-0.98-0.16-1.52-0.25c-0.55-0.09-1.06-0.17-1.55-0.26c-0.49-0.09-0.94-0.17-1.34-0.25c-0.41-0.08-0.7-0.15-0.89-0.2
			c-0.51,1.63-0.95,3.2-1.32,4.69c-0.38,1.49-0.76,3-1.15,4.51l1.31,0.14c0.31,0.03,0.57,0.05,0.81,0.07
			c0.23,0.02,0.37,0.03,0.41,0.03c0.53-0.05,1.12-0.16,1.75-0.31c0.64-0.15,1.3-0.34,1.98-0.58s1.38-0.5,2.08-0.82
			c0.7-0.31,1.4-0.65,2.07-1.01c0.25-0.16,0.52-0.35,0.8-0.58c0.28-0.23,0.53-0.48,0.76-0.75c0.23-0.27,0.41-0.56,0.56-0.87
			c0.15-0.31,0.22-0.62,0.22-0.94c0-0.53-0.28-0.99-0.84-1.38S88.02,249.95,87.13,249.74z M80.84,245.12
			c0.74-0.24,1.53-0.52,2.35-0.85c0.82-0.33,1.67-0.68,2.54-1.07c0.87-0.38,1.75-0.79,2.65-1.23c0.9-0.43,1.79-0.87,2.68-1.3h-0.02
			c0.32-0.17,0.63-0.38,0.95-0.63c0.31-0.25,0.59-0.51,0.84-0.8s0.45-0.58,0.6-0.9c0.15-0.31,0.23-0.62,0.23-0.93
			c0-0.2-0.05-0.4-0.14-0.6c-0.09-0.2-0.24-0.38-0.44-0.54c-0.2-0.16-0.46-0.28-0.79-0.38c-0.33-0.09-0.73-0.14-1.21-0.14
			c-0.66,0-1.41,0.08-2.25,0.25s-1.65,0.38-2.43,0.63c-0.78,0.25-1.48,0.53-2.09,0.84c-0.61,0.31-1.02,0.6-1.21,0.88
			c-0.04,0.07-0.1,0.21-0.17,0.44c-0.07,0.23-0.16,0.47-0.25,0.75c-0.09,0.27-0.19,0.54-0.29,0.79c-0.1,0.25-0.2,0.44-0.29,0.56
			c-0.03,0.13-0.08,0.34-0.16,0.61c-0.08,0.27-0.18,0.59-0.29,0.97c-0.11,0.37-0.24,0.78-0.38,1.23
			C81.12,244.16,80.98,244.63,80.84,245.12z"/>
		<path class="st1" d="M98.29,258.44c0.17-0.93,0.37-1.95,0.6-3.07c0.23-1.12,0.46-2.24,0.7-3.39c0.24-1.14,0.47-2.26,0.7-3.37
			c0.23-1.1,0.42-2.11,0.58-3.03c-0.01-0.13-0.02-0.25-0.02-0.35c0-0.1,0-0.21,0-0.33c0-0.41,0.03-0.82,0.08-1.24
			c0.05-0.41,0.13-0.79,0.22-1.13c0.15-0.51,0.31-0.85,0.49-1.03c0.18-0.18,0.47-0.27,0.87-0.27c0.38,0,0.69,0.08,0.93,0.23
			c0.23,0.15,0.41,0.36,0.55,0.61c0.13,0.25,0.22,0.54,0.26,0.87s0.06,0.66,0.06,1.01c0,0.19-0.01,0.39-0.02,0.62
			c-0.01,0.23-0.02,0.41-0.02,0.54c0.37-0.38,0.77-0.78,1.18-1.19c0.42-0.4,0.86-0.77,1.34-1.1c0.47-0.33,0.97-0.59,1.49-0.81
			c0.52-0.21,1.07-0.32,1.64-0.32c0.23,0,0.45,0.02,0.67,0.06c0.22,0.04,0.44,0.09,0.67,0.16c0.27,0.07,0.54,0.16,0.83,0.27
			c0.28,0.11,0.56,0.27,0.83,0.47c0.44,0.33,0.81,0.75,1.11,1.25c0.3,0.5,0.45,1.01,0.45,1.52c0,0.2-0.04,0.41-0.12,0.65
			c-0.08,0.23-0.19,0.45-0.33,0.64c-0.14,0.19-0.3,0.35-0.49,0.48c-0.19,0.13-0.39,0.19-0.62,0.19c-0.23,0-0.5-0.06-0.83-0.17
			c-0.33-0.11-0.59-0.26-0.81-0.45c-0.09-0.08-0.19-0.19-0.29-0.34c-0.1-0.15-0.19-0.29-0.28-0.44c-0.09-0.15-0.17-0.28-0.24-0.41
			c-0.07-0.13-0.13-0.21-0.17-0.25c-0.07-0.01-0.14-0.02-0.22-0.03s-0.15-0.01-0.22-0.01c-0.68,0-1.32,0.17-1.93,0.52
			c-0.61,0.34-1.18,0.77-1.71,1.26c-0.53,0.5-1.02,1.03-1.46,1.59c-0.45,0.56-0.83,1.07-1.17,1.52c-0.27,1.07-0.56,2.22-0.89,3.44
			c-0.33,1.21-0.65,2.49-0.97,3.81v0.5c0,0.4-0.01,0.8-0.04,1.21c-0.03,0.41-0.11,0.78-0.24,1.1c-0.15,0.2-0.36,0.37-0.63,0.51
			c-0.27,0.14-0.59,0.21-0.95,0.21c-0.56,0-0.98-0.18-1.26-0.55c-0.28-0.36-0.42-0.79-0.42-1.28
			C98.19,258.92,98.22,258.68,98.29,258.44z"/>
		<path class="st1" d="M115.46,252.87c0.2-0.81,0.51-1.67,0.93-2.58c0.42-0.91,0.97-1.83,1.64-2.76c0.68-0.93,1.49-1.84,2.44-2.73
			c0.95-0.89,2.05-1.72,3.3-2.49c0.2-0.12,0.5-0.25,0.92-0.39c0.41-0.14,0.84-0.22,1.27-0.25c0.52-0.56,1.22-0.84,2.09-0.84
			c1.04,0,1.91,0.26,2.62,0.79c0.71,0.52,1.3,1.24,1.76,2.14c0.15,0.29,0.28,0.58,0.41,0.86c0.13,0.28,0.23,0.57,0.32,0.89
			c0.09,0.31,0.16,0.65,0.21,1.01c0.05,0.36,0.08,0.76,0.08,1.22c0,1.05-0.17,2.12-0.5,3.21c-0.33,1.09-0.8,2.15-1.41,3.19
			c-0.61,1.04-1.35,2.03-2.22,2.98c-0.87,0.95-1.84,1.8-2.9,2.56c-0.72,0.52-1.51,0.92-2.38,1.2s-1.84,0.43-2.92,0.43
			c-1.02,0-1.91-0.14-2.66-0.41c-0.75-0.27-1.37-0.66-1.87-1.17c-0.5-0.5-0.87-1.11-1.12-1.81c-0.25-0.7-0.37-1.49-0.37-2.35
			C115.1,254.72,115.22,253.82,115.46,252.87z M118.76,253.13c-0.08,0.31-0.14,0.59-0.17,0.87c-0.03,0.27-0.05,0.53-0.05,0.79
			c0,0.44,0.06,0.85,0.17,1.23c0.11,0.38,0.3,0.7,0.55,0.98c0.25,0.27,0.57,0.48,0.95,0.64c0.38,0.15,0.84,0.23,1.38,0.23
			c1.01,0,1.95-0.26,2.82-0.77c0.87-0.51,1.64-1.15,2.32-1.92c0.68-0.77,1.24-1.6,1.7-2.48c0.46-0.88,0.78-1.7,0.97-2.44
			c0.12-0.46,0.22-0.9,0.31-1.31c0.09-0.41,0.13-0.79,0.13-1.14c0-0.34-0.06-0.67-0.19-0.97c-0.13-0.3-0.29-0.63-0.49-1.01
			c-0.12-0.23-0.24-0.46-0.36-0.71c-0.12-0.25-0.23-0.49-0.32-0.73c-0.11,0.19-0.22,0.35-0.34,0.49c-0.12,0.14-0.3,0.27-0.54,0.38
			c-0.24,0.11-0.56,0.22-0.98,0.31c-0.41,0.09-0.95,0.17-1.61,0.24c-0.44,0.15-0.88,0.37-1.33,0.68c-0.45,0.31-0.89,0.66-1.33,1.08
			c-0.43,0.41-0.84,0.86-1.24,1.33c-0.39,0.48-0.74,0.97-1.06,1.46c-0.31,0.5-0.58,0.99-0.82,1.46S118.86,252.73,118.76,253.13z"/>
		<path class="st1" d="M137.03,252.87c0.2-0.81,0.51-1.67,0.93-2.58c0.42-0.91,0.97-1.83,1.64-2.76c0.68-0.93,1.49-1.84,2.44-2.73
			c0.95-0.89,2.05-1.72,3.3-2.49c0.2-0.12,0.5-0.25,0.92-0.39c0.41-0.14,0.84-0.22,1.27-0.25c0.52-0.56,1.22-0.84,2.09-0.84
			c1.04,0,1.91,0.26,2.62,0.79c0.71,0.52,1.3,1.24,1.76,2.14c0.15,0.29,0.28,0.58,0.41,0.86c0.13,0.28,0.23,0.57,0.32,0.89
			c0.09,0.31,0.16,0.65,0.21,1.01c0.05,0.36,0.08,0.76,0.08,1.22c0,1.05-0.17,2.12-0.5,3.21c-0.33,1.09-0.8,2.15-1.41,3.19
			c-0.61,1.04-1.35,2.03-2.22,2.98c-0.87,0.95-1.84,1.8-2.9,2.56c-0.72,0.52-1.51,0.92-2.38,1.2s-1.84,0.43-2.92,0.43
			c-1.02,0-1.91-0.14-2.66-0.41c-0.75-0.27-1.37-0.66-1.87-1.17c-0.5-0.5-0.87-1.11-1.12-1.81c-0.25-0.7-0.37-1.49-0.37-2.35
			C136.67,254.72,136.79,253.82,137.03,252.87z M140.34,253.13c-0.08,0.31-0.14,0.59-0.17,0.87c-0.03,0.27-0.05,0.53-0.05,0.79
			c0,0.44,0.06,0.85,0.17,1.23c0.11,0.38,0.3,0.7,0.55,0.98c0.25,0.27,0.57,0.48,0.95,0.64c0.38,0.15,0.84,0.23,1.38,0.23
			c1.01,0,1.95-0.26,2.82-0.77c0.87-0.51,1.64-1.15,2.32-1.92c0.68-0.77,1.24-1.6,1.7-2.48c0.46-0.88,0.78-1.7,0.97-2.44
			c0.12-0.46,0.22-0.9,0.31-1.31c0.09-0.41,0.13-0.79,0.13-1.14c0-0.34-0.06-0.67-0.19-0.97c-0.13-0.3-0.29-0.63-0.49-1.01
			c-0.12-0.23-0.24-0.46-0.36-0.71c-0.12-0.25-0.23-0.49-0.32-0.73c-0.11,0.19-0.22,0.35-0.34,0.49c-0.12,0.14-0.3,0.27-0.54,0.38
			c-0.24,0.11-0.56,0.22-0.98,0.31c-0.41,0.09-0.95,0.17-1.61,0.24c-0.44,0.15-0.88,0.37-1.33,0.68c-0.45,0.31-0.89,0.66-1.33,1.08
			c-0.43,0.41-0.84,0.86-1.24,1.33s-0.74,0.97-1.06,1.46c-0.31,0.5-0.58,0.99-0.82,1.46C140.59,252.29,140.43,252.73,140.34,253.13z
			"/>
		<path class="st1" d="M166.77,250.86c-0.27,0-0.56,0.06-0.9,0.19c-0.33,0.13-0.66,0.28-1,0.45c-0.33,0.17-0.65,0.35-0.96,0.54
			c-0.31,0.19-0.57,0.33-0.8,0.44l-1.81,7.17c-0.07,0.28-0.23,0.49-0.5,0.64c-0.27,0.15-0.51,0.22-0.74,0.22
			c-0.72,0-1.2-0.14-1.46-0.43c-0.26-0.28-0.39-0.66-0.39-1.13c0-0.2,0.02-0.4,0.05-0.61c0.03-0.21,0.08-0.42,0.13-0.65l0.08-0.34
			c0.08-0.36,0.19-0.81,0.33-1.35c0.14-0.54,0.29-1.12,0.45-1.72c0.16-0.6,0.32-1.22,0.49-1.83c0.17-0.62,0.32-1.19,0.47-1.7
			c0.15-0.5,0.36-1.25,0.65-2.25c0.28-1,0.6-2.11,0.96-3.35c0.35-1.23,0.72-2.53,1.1-3.87c0.38-1.35,0.74-2.63,1.08-3.85
			c0.34-1.22,0.64-2.31,0.91-3.26c0.27-0.95,0.45-1.65,0.56-2.1c0.12-0.19,0.31-0.34,0.56-0.46c0.25-0.12,0.55-0.18,0.9-0.18
			c0.24,0,0.48,0.03,0.74,0.09c0.25,0.06,0.48,0.15,0.69,0.28c0.21,0.13,0.38,0.29,0.51,0.48c0.13,0.19,0.2,0.42,0.2,0.67
			c0,0.17-0.04,0.38-0.12,0.62c-0.8,2.31-1.59,4.7-2.37,7.18c-0.78,2.48-1.49,4.98-2.13,7.52c0.17-0.11,0.49-0.32,0.96-0.66
			c0.46-0.33,0.98-0.72,1.54-1.16c0.56-0.44,1.13-0.9,1.7-1.37c0.57-0.48,1.05-0.91,1.43-1.29c0.27-0.27,0.53-0.54,0.81-0.83
			c0.27-0.28,0.53-0.56,0.78-0.82c0.25-0.26,0.46-0.49,0.65-0.7c0.19-0.21,0.33-0.37,0.44-0.49c0.25-0.29,0.53-0.53,0.83-0.73
			c0.3-0.19,0.6-0.29,0.91-0.29c0.29,0,0.56,0.05,0.8,0.14c0.24,0.09,0.45,0.21,0.62,0.35c0.17,0.14,0.31,0.3,0.4,0.48
			c0.09,0.18,0.14,0.35,0.14,0.51c0,0.2-0.05,0.41-0.14,0.64c-0.09,0.23-0.2,0.45-0.33,0.66c-0.13,0.21-0.26,0.41-0.41,0.59
			c-0.15,0.18-0.27,0.32-0.38,0.41c-0.36,0.32-0.76,0.67-1.21,1.05c-0.45,0.38-0.92,0.76-1.41,1.16c-0.49,0.39-0.99,0.78-1.5,1.18
			c-0.51,0.39-1.01,0.77-1.48,1.13c0.84,0.47,1.52,1.09,2.06,1.86c0.54,0.78,0.97,1.64,1.29,2.59s0.54,1.95,0.66,3
			c0.12,1.05,0.18,2.07,0.18,3.07c0,0.08-0.01,0.2-0.02,0.37c-0.01,0.17-0.04,0.32-0.08,0.47c-0.07,0.24-0.15,0.46-0.24,0.66
			c-0.09,0.2-0.22,0.37-0.37,0.51c-0.15,0.14-0.34,0.25-0.56,0.33c-0.22,0.08-0.49,0.12-0.81,0.12c-0.31,0-0.56-0.05-0.78-0.16
			c-0.21-0.11-0.39-0.25-0.53-0.42c-0.14-0.17-0.24-0.37-0.31-0.58c-0.07-0.21-0.1-0.43-0.1-0.64c0-0.66-0.02-1.35-0.06-2.06
			c-0.04-0.71-0.12-1.4-0.24-2.06c-0.12-0.66-0.28-1.29-0.49-1.88c-0.21-0.59-0.48-1.1-0.81-1.52c-0.24-0.31-0.46-0.54-0.67-0.72
			c-0.21-0.17-0.46-0.26-0.75-0.26H166.77z"/>
		<path class="st1" d="M176.33,267.87c0.27-1.08,0.5-2.06,0.71-2.96c0.21-0.9,0.4-1.74,0.57-2.53c0.17-0.79,0.34-1.55,0.49-2.29
			c0.15-0.74,0.31-1.48,0.46-2.23c0.15-0.75,0.31-1.53,0.48-2.34c0.17-0.81,0.35-1.69,0.55-2.65l0.96-4.62
			c0.16-0.78,0.27-1.46,0.33-2.02c0.06-0.56,0.09-1.09,0.09-1.56c0-0.5,0.01-0.95,0.04-1.34c0.03-0.39,0.1-0.72,0.22-1
			c0.12-0.27,0.3-0.48,0.53-0.62c0.23-0.14,0.55-0.21,0.97-0.21c0.6,0,1.06,0.08,1.4,0.25c0.33,0.17,0.58,0.38,0.74,0.65
			c0.16,0.27,0.26,0.57,0.29,0.92c0.03,0.35,0.05,0.7,0.05,1.08c0.45-0.32,0.98-0.6,1.58-0.86c0.6-0.25,1.23-0.46,1.88-0.63
			c0.65-0.17,1.31-0.3,1.97-0.39c0.66-0.09,1.29-0.14,1.87-0.14c0.96,0,1.79,0.17,2.51,0.51c0.72,0.34,1.31,0.79,1.79,1.35
			c0.48,0.56,0.84,1.21,1.08,1.95c0.24,0.74,0.36,1.5,0.36,2.28c0,0.92-0.15,1.78-0.44,2.59c-0.29,0.81-0.69,1.57-1.2,2.27
			c-0.51,0.7-1.09,1.36-1.76,1.96c-0.67,0.6-1.39,1.16-2.17,1.66c-0.78,0.51-1.58,0.97-2.41,1.38c-0.83,0.42-1.65,0.79-2.46,1.13
			c-0.55,0.23-1.06,0.4-1.54,0.51c-0.48,0.11-0.92,0.17-1.3,0.17c-0.54,0-1.07-0.06-1.58-0.18c-0.51-0.12-1.01-0.32-1.48-0.6
			c-0.27,0.9-0.49,1.77-0.67,2.59c-0.18,0.82-0.32,1.55-0.43,2.19c-0.07,0.4-0.15,0.82-0.24,1.25c-0.09,0.44-0.19,0.87-0.28,1.28
			c-0.09,0.42-0.18,0.81-0.27,1.19c-0.09,0.37-0.16,0.69-0.21,0.96c-0.04,0.16-0.14,0.29-0.29,0.4c-0.15,0.11-0.34,0.2-0.55,0.27
			c-0.21,0.07-0.43,0.13-0.65,0.16c-0.22,0.03-0.42,0.05-0.59,0.05c-0.98,0-1.47-0.39-1.47-1.16
			C176.23,268.33,176.26,268.11,176.33,267.87z M182.51,256.31c0.2,0.03,0.41,0.06,0.64,0.1c0.23,0.04,0.44,0.08,0.66,0.12
			c0.21,0.04,0.39,0.08,0.55,0.11c0.15,0.03,0.26,0.05,0.31,0.05c0.25,0,0.53-0.03,0.85-0.1c0.31-0.07,0.62-0.15,0.94-0.26
			c0.31-0.11,0.61-0.22,0.91-0.35c0.29-0.13,0.55-0.25,0.78-0.37c0.65-0.33,1.34-0.73,2.08-1.21c0.74-0.47,1.42-1.01,2.05-1.62
			c0.63-0.61,1.15-1.29,1.56-2.05c0.41-0.76,0.62-1.59,0.62-2.51c0-0.37-0.05-0.72-0.14-1.04c-0.09-0.32-0.23-0.6-0.42-0.84
			c-0.19-0.24-0.43-0.43-0.73-0.57c-0.3-0.14-0.65-0.21-1.07-0.21c-0.45,0-0.88,0.03-1.27,0.09c-0.4,0.06-0.79,0.16-1.18,0.29
			c-0.38,0.13-0.77,0.3-1.15,0.51c-0.39,0.21-0.78,0.45-1.2,0.75c-0.37,0.31-0.79,0.58-1.26,0.81c-0.47,0.23-0.97,0.38-1.51,0.45
			L182.51,256.31z"/>
		<path class="st1" d="M200.81,252.81c0-0.57,0.15-1.06,0.46-1.45c0.31-0.4,0.71-0.66,1.22-0.8c0.15-0.29,0.37-0.69,0.68-1.18
			c0.31-0.5,0.68-1.04,1.13-1.62c0.45-0.58,0.97-1.17,1.54-1.76c0.58-0.59,1.22-1.13,1.91-1.61c0.7-0.48,1.45-0.88,2.25-1.18
			c0.8-0.31,1.66-0.46,2.56-0.46c0.77,0,1.44,0.09,2.01,0.28c0.57,0.19,1.04,0.45,1.41,0.78c0.37,0.33,0.65,0.73,0.84,1.19
			c0.19,0.46,0.28,0.95,0.28,1.48c0,0.45-0.06,0.88-0.18,1.29c-0.19,0.74-0.53,1.39-1.04,1.95c-0.51,0.56-1.1,1.05-1.78,1.46
			c-0.68,0.42-1.43,0.77-2.23,1.05c-0.8,0.28-1.61,0.51-2.41,0.7c-0.8,0.19-1.58,0.33-2.32,0.43c-0.74,0.1-1.39,0.18-1.93,0.23
			c-0.12,0.24-0.22,0.54-0.31,0.91c-0.09,0.37-0.13,0.72-0.13,1.07c0,0.77,0.31,1.37,0.92,1.79c0.61,0.43,1.45,0.64,2.53,0.64
			c0.62,0,1.22-0.07,1.79-0.21c0.57-0.14,1.11-0.32,1.62-0.54c0.51-0.22,0.99-0.46,1.44-0.72c0.45-0.26,0.86-0.51,1.24-0.77
			c0.48-0.32,0.93-0.59,1.36-0.81c0.43-0.22,0.81-0.33,1.15-0.33c0.33,0,0.54,0.08,0.64,0.25c0.09,0.17,0.14,0.34,0.14,0.53
			c0,0.11,0,0.21-0.01,0.31c-0.01,0.1-0.02,0.18-0.03,0.25c-0.07,0.34-0.2,0.69-0.4,1.04c-0.2,0.34-0.45,0.64-0.76,0.9
			c-1.38,1.09-2.8,1.87-4.25,2.33c-1.45,0.47-3.01,0.7-4.65,0.7c-0.32,0-0.69-0.02-1.13-0.06c-0.43-0.04-0.88-0.12-1.34-0.24
			c-0.47-0.12-0.92-0.29-1.37-0.52c-0.45-0.23-0.85-0.52-1.2-0.9c-0.35-0.37-0.64-0.83-0.86-1.37c-0.22-0.54-0.33-1.2-0.33-1.97
			c0-0.62,0.09-1.32,0.26-2.09c-0.17-0.03-0.34-0.12-0.49-0.27C200.89,253.32,200.81,253.1,200.81,252.81z M213.28,247.29
			c0.03-0.07,0.04-0.13,0.04-0.18c0-0.05,0-0.11,0-0.18c0-0.36-0.13-0.63-0.4-0.81c-0.27-0.18-0.58-0.27-0.96-0.27
			c-0.58,0-1.16,0.15-1.72,0.46c-0.56,0.31-1.1,0.69-1.59,1.15c-0.5,0.46-0.94,0.95-1.33,1.47c-0.38,0.52-0.68,1-0.9,1.42
			c0.96-0.08,1.83-0.21,2.63-0.39c0.8-0.18,1.49-0.41,2.08-0.68c0.59-0.27,1.07-0.58,1.43-0.92
			C212.94,248.04,213.17,247.67,213.28,247.29z"/>
		<path class="st1" d="M230.93,259.64c0-0.38,0.05-0.85,0.14-1.38c0.09-0.54,0.14-1.2,0.14-2c-0.44,0.32-0.92,0.7-1.45,1.13
			c-0.53,0.44-1.08,0.86-1.65,1.26c-0.57,0.4-1.14,0.73-1.7,1.01c-0.56,0.27-1.09,0.41-1.58,0.41c-0.4,0-0.78-0.06-1.14-0.18
			c-0.36-0.12-0.66-0.28-0.92-0.48c-0.7-0.56-1.21-1.12-1.52-1.67c-0.31-0.56-0.47-1.21-0.47-1.95c0-0.33,0.03-0.68,0.09-1.04
			c0.06-0.36,0.15-0.77,0.27-1.24c0.5-2.1,1.37-4.04,2.6-5.83c1.23-1.79,2.75-3.31,4.57-4.57c0.7-0.49,1.41-0.81,2.11-0.95
			c0.7-0.14,1.4-0.21,2.09-0.21c0.31,0,0.65,0.02,1.03,0.06c0.38,0.04,0.72,0.08,1.03,0.12c0.31-0.07,0.55-0.11,0.75-0.14
			c0.19-0.03,0.39-0.04,0.61-0.04c0.4,0,0.73,0.05,1,0.16c0.27,0.11,0.48,0.25,0.64,0.43c0.16,0.18,0.27,0.39,0.35,0.62
			c0.07,0.23,0.11,0.48,0.11,0.73c0,0.35-0.05,0.67-0.16,0.99c-0.11,0.31-0.21,0.63-0.32,0.95l-2.63,10.5
			c-0.05,0.57-0.1,1.1-0.14,1.57c-0.04,0.48-0.12,0.92-0.24,1.34c-0.04,0.12-0.09,0.27-0.15,0.45c-0.06,0.18-0.16,0.35-0.29,0.52
			c-0.13,0.17-0.3,0.31-0.5,0.43c-0.2,0.12-0.46,0.18-0.78,0.18c-0.41,0-0.74-0.03-0.99-0.08c-0.25-0.05-0.44-0.13-0.57-0.23
			c-0.13-0.1-0.22-0.22-0.26-0.36C230.95,259.99,230.93,259.83,230.93,259.64z M224.32,253.62c-0.05,0.19-0.11,0.45-0.17,0.8
			c-0.06,0.34-0.09,0.69-0.09,1.04c0,0.36,0.05,0.68,0.16,0.97c0.11,0.29,0.34,0.43,0.7,0.43c0.56,0,1.08-0.12,1.56-0.37
			c0.48-0.24,0.94-0.54,1.37-0.89c0.57-0.46,1.15-0.99,1.74-1.56c0.59-0.58,1.15-1.19,1.67-1.82c0.52-0.64,0.99-1.29,1.39-1.96
			c0.41-0.67,0.7-1.34,0.89-2c0.11-0.38,0.2-0.83,0.27-1.33c0.07-0.5,0.11-0.96,0.11-1.35c0-0.17-0.04-0.34-0.12-0.51
			c-0.08-0.17-0.23-0.25-0.46-0.25c-0.65,0-1.3,0.13-1.96,0.38c-0.66,0.25-1.29,0.59-1.9,1.02c-0.61,0.43-1.19,0.93-1.74,1.5
			c-0.55,0.58-1.05,1.2-1.5,1.85c-0.45,0.66-0.84,1.34-1.17,2.03C224.74,252.28,224.49,252.96,224.32,253.62z"/>
		<path class="st1" d="M241.43,258.44c0.17-0.93,0.37-1.95,0.6-3.07c0.23-1.12,0.46-2.24,0.7-3.39c0.24-1.14,0.47-2.26,0.7-3.37
			c0.23-1.1,0.42-2.11,0.58-3.03c-0.01-0.13-0.02-0.25-0.02-0.35c0-0.1,0-0.21,0-0.33c0-0.41,0.03-0.82,0.08-1.24
			c0.05-0.41,0.13-0.79,0.22-1.13c0.15-0.51,0.31-0.85,0.49-1.03c0.18-0.18,0.47-0.27,0.87-0.27c0.38,0,0.69,0.08,0.93,0.23
			c0.23,0.15,0.41,0.36,0.55,0.61c0.13,0.25,0.22,0.54,0.26,0.87s0.06,0.66,0.06,1.01c0,0.19-0.01,0.39-0.02,0.62
			c-0.01,0.23-0.02,0.41-0.02,0.54c0.37-0.38,0.77-0.78,1.18-1.19c0.42-0.4,0.86-0.77,1.34-1.1c0.47-0.33,0.97-0.59,1.49-0.81
			c0.52-0.21,1.07-0.32,1.64-0.32c0.23,0,0.45,0.02,0.67,0.06c0.22,0.04,0.44,0.09,0.67,0.16c0.27,0.07,0.54,0.16,0.83,0.27
			c0.28,0.11,0.56,0.27,0.83,0.47c0.44,0.33,0.81,0.75,1.11,1.25c0.3,0.5,0.45,1.01,0.45,1.52c0,0.2-0.04,0.41-0.12,0.65
			c-0.08,0.23-0.19,0.45-0.33,0.64c-0.14,0.19-0.3,0.35-0.49,0.48c-0.19,0.13-0.39,0.19-0.62,0.19c-0.23,0-0.5-0.06-0.83-0.17
			c-0.33-0.11-0.59-0.26-0.81-0.45c-0.09-0.08-0.19-0.19-0.29-0.34c-0.1-0.15-0.19-0.29-0.28-0.44c-0.09-0.15-0.17-0.28-0.24-0.41
			c-0.07-0.13-0.13-0.21-0.17-0.25c-0.07-0.01-0.14-0.02-0.22-0.03s-0.15-0.01-0.22-0.01c-0.68,0-1.32,0.17-1.93,0.52
			c-0.61,0.34-1.18,0.77-1.71,1.26c-0.53,0.5-1.02,1.03-1.46,1.59c-0.45,0.56-0.83,1.07-1.17,1.52c-0.27,1.07-0.56,2.22-0.89,3.44
			c-0.33,1.21-0.65,2.49-0.97,3.81v0.5c0,0.4-0.01,0.8-0.04,1.21c-0.03,0.41-0.11,0.78-0.24,1.1c-0.15,0.2-0.36,0.37-0.63,0.51
			c-0.27,0.14-0.59,0.21-0.95,0.21c-0.56,0-0.98-0.18-1.26-0.55c-0.28-0.36-0.42-0.79-0.42-1.28
			C241.33,258.92,241.36,258.68,241.43,258.44z"/>
	</g>
</g>
</svg>
