<?xml version="1.0" encoding="utf-8"?>
<!-- Generator: Adobe Illustrator 27.3.1, SVG Export Plug-In . SVG Version: 6.00 Build 0)  -->
<svg version="1.1" id="Layer_1" xmlns="http://www.w3.org/2000/svg" xmlns:xlink="http://www.w3.org/1999/xlink" x="0px" y="0px"
	 viewBox="0 0 320 320" style="enable-background:new 0 0 320 320;" xml:space="preserve">
<style type="text/css">
	.st0{fill:url(#SVGID_1_);}
	.st1{fill:url(#SVGID_00000178164838151978322850000016035618617918059399_);}
	.st2{fill:url(#SVGID_00000058567244189073351880000007471765986497669780_);}
	.st3{fill:url(#SVGID_00000133510677955581630560000012470904492971879330_);}
	.st4{fill:url(#SVGID_00000005958181017326401530000011966836726427073668_);}
	.st5{fill:url(#SVGID_00000181771582449929926090000004346007004714789505_);}
	.st6{fill:url(#SVGID_00000029727717986194903330000009643311030433206974_);}
	.st7{fill:url(#SVGID_00000102517041127874965990000003477267805510054071_);}
	.st8{fill:url(#SVGID_00000098180944098650766150000007173916375828052609_);}
</style>
<linearGradient id="SVGID_1_" gradientUnits="userSpaceOnUse" x1="9.5171" y1="136.4605" x2="76.8056" y2="161.7656">
	<stop  offset="4.993059e-09" style="stop-color:#EEC619"/>
	<stop  offset="0.0551" style="stop-color:#E8BF1F"/>
	<stop  offset="0.1745" style="stop-color:#DFB525"/>
	<stop  offset="0.3018" style="stop-color:#DCB227"/>
	<stop  offset="0.5806" style="stop-color:#F3903F"/>
	<stop  offset="0.8039" style="stop-color:#ED683C"/>
	<stop  offset="1" style="stop-color:#2484C6"/>
</linearGradient>
<path class="st0" d="M31.49,139.47c-1.12-0.89-2.12-1.68-3.13-2.57c-0.34-0.34-0.78-0.89-1.01-1.34c-0.67-1.23-0.56-1.68,0.78-2.24
	l4.47-2.12c1.01-0.45,1.34-1.23,1.68-2.23c2.01-6.71,4.02-13.41,6.15-20c0.89-2.91,2.35-5.59,3.58-8.38
	c0.34-0.89,0.78-2.01,1.9-2.01c1.23,0.11,1.9,1.01,2.35,2.01c0,0.11,0,0.11,0.11,0.34c-3.91,8.16-6.26,16.88-8.94,25.82
	c0.56-0.11,0.78-0.22,0.89-0.34c7.93-5.14,15.87-10.28,23.13-16.32c2.01-1.56,3.69-3.46,5.14-5.48c1.01-1.34,1.68-3.02,2.24-4.69
	c0.45-1.79-0.11-2.79-1.79-3.8c-2.35-1.23-4.81-1.79-7.38-1.9c-5.48-0.33-10.62,1.12-15.53,3.35c-7.04,3.13-13.52,7.26-18.89,13.08
	c-2.01,2.24-3.8,4.58-5.03,7.26c-0.89,1.9-1.56,3.8-0.11,5.81c0.22,0.22,0.11,0.56,0.22,1.12c-0.56-0.11-1.12-0.11-1.45-0.34
	c-3.13-1.68-4.58-5.25-3.35-8.72c1.12-2.91,2.79-5.48,4.92-7.82c7.49-8.49,16.65-14.3,27.72-17.32c4.81-1.34,9.72-1.34,14.64,0.11
	c3.02,0.89,5.59,2.46,7.71,4.92c2.68,3.13,3.35,6.48,1.68,10.28c-1.34,3.13-3.46,5.7-5.7,8.05c-3.91,4.25-8.61,7.49-13.41,10.73
	l-7.6,4.92c-0.34,0.22-0.67,0.45-1.34,1.01c0.89,0.11,1.34,0.22,1.9,0.22c4.02,0.45,7.82,1.34,11.29,3.24
	c9.05,4.81,13.97,12.18,14.3,22.58c0.22,7.38-2.12,13.97-6.03,20c-7.94,12.29-19,20.45-33.08,24.25c-2.57,0.67-5.36,0.89-8.16,1.34
	c-0.45,2.01,0.22,4.47-0.89,6.71c-1.79-0.45-1.79-2.01-2.12-3.13c-0.45-1.23-0.67-2.46-1.01-3.69c-2.24-0.45-4.36-0.78-6.48-1.34
	c-1.45-0.45-3.02-1.12-4.36-1.79c-5.92-3.13-7.38-7.49-6.48-13.41c0.33-2.12,1.12-4.36,2.23-6.26c3.91-7.15,8.61-13.63,14.3-19.33
	c1.68-1.68,3.58-3.02,5.37-4.47c0.45-0.45,1.01-0.89,1.12-1.45C29.26,149.31,30.38,144.39,31.49,139.47z M26.13,162.72
	c-0.45,0.22-0.56,0.34-0.67,0.34c-5.48,5.81-9.95,12.29-13.63,19.33c-1.34,2.68-1.9,5.59-1.56,8.61c0.22,3.46,2.12,5.7,5.59,6.37
	c1.56,0.33,3.24,0.45,4.92,0.56c0.45,0.11,0.89-0.11,1.45-0.11c-0.22-6.03,0.22-11.85,1.12-17.66
	C24.12,174.45,25.12,168.64,26.13,162.72z M37.98,157.69c-0.78-0.34-1.34-0.56-2.01-0.78c-1.9-0.56-4.36,0.67-4.81,2.57
	c-2.24,10.62-4.25,21.35-4.92,32.19c-0.11,2.01,0,4.02,0,5.92c0.22,0.11,0.45,0.11,0.67,0.11c0.89-0.22,1.79-0.33,2.68-0.56
	c14.75-4.02,26.37-12.4,34.2-25.7c3.24-5.59,5.25-11.62,5.03-18.11c-0.22-9.95-4.36-14.86-13.08-17.43
	c-5.7-1.68-11.4-1.79-17.21-0.78c-1.12,0.22-1.68,0.89-2.01,2.01c-0.89,3.8-1.9,7.6-2.79,11.4c-0.45,1.56-0.78,3.13-1.12,4.69
	C37.19,154.78,37.98,155.46,37.98,157.69z"/>
<g>
	
		<linearGradient id="SVGID_00000088812684838192973790000000015990072075495352_" gradientUnits="userSpaceOnUse" x1="76.1609" y1="175.562" x2="97.9022" y2="175.562">
		<stop  offset="0.2681" style="stop-color:#2484C6"/>
		<stop  offset="1" style="stop-color:#2484C6;stop-opacity:0.5"/>
	</linearGradient>
	<path style="fill:url(#SVGID_00000088812684838192973790000000015990072075495352_);" d="M80.73,178.43c0,1.9,0.15,1.22,0.68,0.15
		c1.67-3.35,3.04-6.85,4.79-10.04c1.37-2.51,3.19-4.79,4.79-7.15c0.38-0.53,0.91-0.68,1.6-0.53c1.6,0.3,2.36,1.14,2.43,2.74
		c0.23,3.04,0.3,6.08,0.53,9.13c0.15,1.98,0,3.57,2.21,4.34c0.91,0.3-3.04,2.13-4.72-1.67c-0.91-2.13-1.14-5.32-1.45-7.99
		c0-0.38-0.08-0.84-0.08-1.45c-0.38,0.38-0.68,0.61-0.84,0.84c-2.59,3.57-4.41,7.61-5.93,11.71c-1.44,3.8-2.36,7.76-3.12,11.71
		c-0.23,1.45-0.61,1.67-2.05,1.29c-1.67-0.38-2.05-0.84-2.28-2.59c-0.53-4.94-1.22-9.89-1.14-14.91c0.08-3.73,0.15-7.53,0.99-11.18
		c0.23-0.84,0.53-1.67,0.84-2.51c0.38-0.76,0.91-0.99,1.75-0.84c0.46,0.15,0.99,0.38,1.45,0.61c0.76,0.46,0.91,0.84,0.76,1.75
		C80.81,167.33,80.81,172.88,80.73,178.43z"/>
	
		<linearGradient id="SVGID_00000052068917367688330350000005544667795770436277_" gradientUnits="userSpaceOnUse" x1="99.4041" y1="173.6849" x2="138.6115" y2="173.6849">
		<stop  offset="0.2681" style="stop-color:#2484C6"/>
		<stop  offset="1" style="stop-color:#2484C6;stop-opacity:0.5"/>
	</linearGradient>
	<path style="fill:url(#SVGID_00000052068917367688330350000005544667795770436277_);" d="M110.85,161.77
		c1.14-0.99,2.05-1.98,3.19-2.66c2.89-1.9,6.16-1.06,8.06,1.9c1.14,1.75,1.37,3.73,1.37,5.78c-0.15,2.81-0.91,5.4-2.05,7.91
		c-0.91,1.98-1.98,3.88-3.04,5.93c0.46,0.15,0.99,0.38,1.52,0.46c1.75,0.3,3.5,0,5.02-0.91c1.37-0.76,2.59-1.67,3.8-2.59
		c1.67-1.37,3.35-2.74,4.94-4.11c0.53-0.46,1.14-0.91,1.67-1.29c1.29-0.91,2.21-0.68,3.27,0.68c-0.3,0.38-0.61,0.76-1.06,1.06
		c-3.04,2.36-6.01,4.79-9.13,7c-3.27,2.36-6.77,2.74-10.5,1.06c-0.15-0.08-0.3-0.08-0.53-0.15c-0.53,0.68-1.06,1.45-1.67,2.13
		c-1.37,1.29-2.59,2.74-4.11,3.88c-3.8,2.66-8.59,1.45-10.8-2.66c-0.76-1.37-1.22-2.89-1.37-4.41c-0.3-6.08,1.22-11.56,4.94-16.43
		c0.23-0.38,0.53-0.61,0.76-0.91C106.82,161.77,108.72,161.17,110.85,161.77z M110.09,163.45c-0.38,0.23-0.68,0.38-0.91,0.61
		c-0.99,1.14-2.05,2.21-2.81,3.5c-2.28,3.65-3.42,7.68-3.73,11.94c-0.15,2.21,0.08,4.41,1.29,6.46c0.91,1.44,1.67,1.67,3.27,1.14
		l0.53-0.23c3.04-1.52,5.1-4.11,7.07-6.85C110.09,175.39,107.96,170.06,110.09,163.45z M115.87,178.51
		c2.51-4.03,4.41-7.99,4.49-12.63c0.08-1.52-0.23-3.04-0.84-4.41c-0.68-1.37-0.91-1.37-2.13-0.76c-2.21,0.99-3.5,2.81-4.26,5.02
		C111.54,170.37,112.68,174.55,115.87,178.51z"/>
	
		<linearGradient id="SVGID_00000106135452714150263410000005814009583310771843_" gradientUnits="userSpaceOnUse" x1="134.8488" y1="173.6849" x2="174.0562" y2="173.6849">
		<stop  offset="0.2681" style="stop-color:#2484C6"/>
		<stop  offset="1" style="stop-color:#2484C6;stop-opacity:0.5"/>
	</linearGradient>
	<path style="fill:url(#SVGID_00000106135452714150263410000005814009583310771843_);" d="M146.3,161.77
		c1.14-0.99,2.05-1.98,3.19-2.66c2.89-1.9,6.16-1.06,8.06,1.9c1.14,1.75,1.37,3.73,1.37,5.78c-0.15,2.81-0.91,5.4-2.05,7.91
		c-0.91,1.98-1.98,3.88-3.04,5.93c0.46,0.15,0.99,0.38,1.52,0.46c1.75,0.3,3.5,0,5.02-0.91c1.37-0.76,2.59-1.67,3.8-2.59
		c1.67-1.37,3.35-2.74,4.94-4.11c0.53-0.46,1.14-0.91,1.67-1.29c1.29-0.91,2.21-0.68,3.27,0.68c-0.3,0.38-0.61,0.76-1.06,1.06
		c-3.04,2.36-6.01,4.79-9.13,7c-3.27,2.36-6.77,2.74-10.5,1.06c-0.15-0.08-0.3-0.08-0.53-0.15c-0.53,0.68-1.06,1.45-1.67,2.13
		c-1.37,1.29-2.59,2.74-4.11,3.88c-3.8,2.66-8.59,1.45-10.8-2.66c-0.76-1.37-1.22-2.89-1.37-4.41c-0.3-6.08,1.22-11.56,4.94-16.43
		c0.23-0.38,0.53-0.61,0.76-0.91C142.26,161.77,144.17,161.17,146.3,161.77z M145.53,163.45c-0.38,0.23-0.68,0.38-0.91,0.61
		c-0.99,1.14-2.05,2.21-2.81,3.5c-2.28,3.65-3.42,7.68-3.73,11.94c-0.15,2.21,0.08,4.41,1.29,6.46c0.91,1.44,1.67,1.67,3.27,1.14
		l0.53-0.23c3.04-1.52,5.1-4.11,7.07-6.85C145.53,175.39,143.41,170.06,145.53,163.45z M151.32,178.51
		c2.51-4.03,4.41-7.99,4.49-12.63c0.08-1.52-0.23-3.04-0.84-4.41c-0.68-1.37-0.91-1.37-2.13-0.76c-2.21,0.99-3.5,2.81-4.26,5.02
		C146.98,170.37,148.12,174.55,151.32,178.51z"/>
	
		<linearGradient id="SVGID_00000176005942505104947190000005845626119169217727_" gradientUnits="userSpaceOnUse" x1="168.797" y1="167.1861" x2="217.3352" y2="167.1861">
		<stop  offset="0.2681" style="stop-color:#2484C6"/>
		<stop  offset="1" style="stop-color:#2484C6;stop-opacity:0.5"/>
	</linearGradient>
	<path style="fill:url(#SVGID_00000176005942505104947190000005845626119169217727_);" d="M217.34,173.56
		c-0.53,0.91-0.99,1.98-1.52,2.97l-12.09,20.92c-1.6,2.66-3.57,5.1-5.78,7.3c-2.66,2.66-5.7,3.19-9.13,1.75
		c-1.52-0.68-2.89-1.52-4.11-2.59c-3.12-2.66-5.55-5.86-7.3-9.51l-0.68-1.45c-0.3,0.46-0.53,0.61-0.61,0.91l-2.74,5.7
		c-0.23,0.53-0.46,1.06-0.15,1.75c0.08,0.15,0.08,0.46,0,0.76c-0.15,1.06-0.61,1.37-1.75,1.22c-1.6-0.3-2.36-1.29-2.51-3.04
		c-0.3-4.41-0.15-8.82,0.15-13.23c0.99-15.52,5.63-30.04,13.01-43.66c2.28-4.26,5.17-8.06,8.75-11.26c2.05-1.9,4.34-3.42,7-4.34
		c4.49-1.52,8.44-0.46,11.94,2.66c3.42,3.12,4.33,7.07,3.12,11.48c-1.07,3.8-3.04,7.15-5.32,10.34c-1.67,2.51-3.88,4.64-6.08,6.69
		c-5.63,5.25-11.71,9.89-18.56,13.39c-2.21,1.14-4.49,2.05-6.69,2.97c-0.76,0.3-1.14,0.76-1.29,1.52c-0.76,3.8-1.06,7.68-1.29,11.56
		c-0.08,0.99-0.15,1.98,0.08,2.97c0.15-0.38,0.38-0.76,0.61-1.14c1.52-3.19,3.42-6.16,5.93-8.75c2.13-2.21,4.49-4.03,7.23-5.4
		c0.91-0.46,1.9-0.76,2.97-0.99c1.45-0.3,2.66,0.3,3.73,1.22c0.53,0.53,0.76,1.14,0.76,1.9c0.08,1.37-0.38,2.59-1.07,3.73
		c-1.75,2.74-4.18,4.79-6.84,6.54c-1.75,1.22-3.65,2.21-5.48,3.27c-0.3,0.15-0.68,0.38-1.14,0.68c1.75,4.33,4.11,8.21,7.61,11.26
		c1.98,1.67,3.5,1.83,5.7,0.3c2.43-1.67,4.49-3.88,6.31-6.31c3.27-4.56,6.01-9.43,8.82-14.3c1.83-3.27,3.65-6.54,5.55-9.81
		C215.36,172.12,216.12,172.12,217.34,173.56z M176.19,171.59c0.76-0.3,1.22-0.46,1.67-0.68c4.64-2.43,9.13-5.02,13.23-8.21
		c4.33-3.42,8.59-6.92,12.17-11.18c2.74-3.19,5.02-6.77,6.24-10.8c0.68-2.05,0.99-4.18,0.46-6.31c-0.38-1.75-1.37-2.89-3.04-3.57
		c-2.13-0.76-4.18-0.76-6.24,0c-2.28,0.76-4.11,2.13-5.93,3.65c-3.96,3.5-6.92,7.83-9.43,12.47c-3.27,6.24-5.78,12.85-7.68,19.62
		L176.19,171.59z M191.78,176.99c-5.63,2.43-9.74,6.31-12.85,11.56c0.3-0.08,0.46-0.08,0.53-0.15c2.28-1.45,4.49-2.89,6.69-4.34
		c1.9-1.22,3.42-2.74,4.79-4.49C191.4,178.89,191.93,178.2,191.78,176.99z"/>
	
		<linearGradient id="SVGID_00000084510246638235200660000000250098639320516498_" gradientUnits="userSpaceOnUse" x1="213.231" y1="181.3551" x2="243.0456" y2="181.3551">
		<stop  offset="0.2681" style="stop-color:#2484C6"/>
		<stop  offset="1" style="stop-color:#2484C6;stop-opacity:0.5"/>
	</linearGradient>
	<path style="fill:url(#SVGID_00000084510246638235200660000000250098639320516498_);" d="M217.87,179.19l0.46-1.14
		c1.45-3.42,3.04-6.77,4.94-9.96c1.37-2.36,3.04-4.33,5.32-5.78c2.74-1.75,5.55-0.99,6.84,2.13c0.76,1.75,0.91,3.73,0.68,5.63
		c-0.08,0.99-0.23,1.9-0.3,3.04c0.61-0.3,1.06-0.46,1.6-0.68c0.99-0.38,1.98-0.68,2.97-1.06c1.14-0.38,1.98,0,2.66,1.37
		c-0.38,0.23-0.76,0.46-1.14,0.53c-2.05,0.76-4.03,1.52-6.08,2.21c-0.68,0.23-1.14,0.61-1.45,1.29c-1.9,3.96-4.79,7-8.59,9.2
		c-1.37,0.76-2.66,0.91-4.03-0.15c-0.99-0.76-1.29-1.44-0.68-2.59c0.61-1.06,1.29-2.05,2.13-2.97c2.05-2.05,4.56-3.57,7.15-4.79
		c0.84-0.38,1.37-0.91,1.67-1.75c0.99-2.66,1.45-5.48,1.14-8.37c-0.08-0.61-0.3-1.22-0.46-1.83c-0.84-0.15-1.45,0.23-1.98,0.61
		c-1.9,1.22-3.5,2.89-4.72,4.79c-2.51,4.11-4.56,8.37-6.01,12.93c-1.14,3.57-2.05,7.15-2.81,10.8c-0.38,1.98-0.3,4.11-0.38,6.16
		c-0.08,0.53-0.08,1.14-0.15,1.67c-0.08,0.61-0.38,0.84-0.99,0.84c-1.45-0.08-2.43-0.99-2.43-2.43c0.08-4.64,0.23-9.28,0.38-13.92
		c0.15-3.96,0.3-7.91,0.61-11.86c0.3-3.12,0.84-6.31,1.29-9.43c0.23-1.22,0.68-1.37,1.75-0.84c0.99,0.46,1.45,1.22,1.29,2.36
		c-0.23,2.28-0.38,4.64-0.53,7c-0.23,2.36-0.3,4.64-0.46,7H217.87z M224.03,183.3c1.83-1.06,3.35-2.51,4.64-4.26
		C226.77,180.1,225.1,181.4,224.03,183.3z"/>
	
		<linearGradient id="SVGID_00000075133490498682750890000007221817018661278619_" gradientUnits="userSpaceOnUse" x1="239.4722" y1="172.6748" x2="262.5941" y2="172.6748">
		<stop  offset="0.2681" style="stop-color:#2484C6"/>
		<stop  offset="1" style="stop-color:#2484C6;stop-opacity:0.5"/>
	</linearGradient>
	<path style="fill:url(#SVGID_00000075133490498682750890000007221817018661278619_);" d="M262.59,172.35
		c-0.61,0.61-1.29,1.22-2.05,1.75c-1.9,1.45-3.8,2.81-5.7,4.18c-2.28,1.6-4.71,2.66-7.53,2.74c-2.13,0.08-4.03-0.53-5.78-1.83
		c-1.52-1.06-2.05-2.59-2.05-4.49c0-4.11,2.97-8.29,6.54-9.89c1.98-0.91,4.11-0.53,5.63,0.99c1.07,1.06,1.14,2.21,0.15,3.27
		c-0.46,0.53-0.99,0.99-1.6,1.37c-1.98,1.37-4.11,2.43-6.46,3.12c-0.91,0.3-1.29,0.76-1.45,1.75c-0.38,2.28,0.68,3.73,3.04,3.88
		c2.51,0.15,4.87-0.61,6.92-1.98c1.9-1.29,3.73-2.66,5.55-4.03c0.68-0.53,1.37-1.14,2.05-1.6
		C261.07,170.83,261.68,170.98,262.59,172.35z M250.04,166.64c-1.75-0.23-4.64,1.9-5.48,4.03
		C247,170.14,249.74,168.16,250.04,166.64z"/>
	
		<linearGradient id="SVGID_00000083782990512738613970000005483240647205849477_" gradientUnits="userSpaceOnUse" x1="258.7918" y1="174.1724" x2="296.4406" y2="174.1724">
		<stop  offset="0.2681" style="stop-color:#2484C6"/>
		<stop  offset="1" style="stop-color:#2484C6;stop-opacity:0.5"/>
	</linearGradient>
	<path style="fill:url(#SVGID_00000083782990512738613970000005483240647205849477_);" d="M277.43,171.66
		c-0.46,0.46-0.84,0.76-1.14,1.14c-2.13,2.21-4.18,4.49-6.39,6.62c-1.22,1.14-2.59,2.21-4.03,3.12c-1.83,1.14-3.73,0.99-5.48-0.46
		c-0.99-0.84-1.6-1.83-1.6-3.04c0-1.44,0-2.81,0.3-4.18c0.61-2.97,2.13-5.4,4.33-7.53c0.99-0.91,2.13-1.67,3.5-2.05
		c2.13-0.61,3.96,0.08,5.48,1.6l0.3,0.46c0,0.23,0.08,0.61,0,0.84c-0.15,0.15-0.53,0.23-0.84,0.23c-0.23,0-0.38-0.15-0.61-0.23
		c-0.61-0.38-1.14-0.3-1.75-0.08c-1.44,0.46-2.66,1.37-3.65,2.51c-1.98,2.21-3.27,4.79-3.8,7.68c-0.23,0.76-0.08,1.6-0.08,2.43
		c0.84,0.15,1.52-0.23,2.13-0.61c1.14-0.76,2.28-1.44,3.27-2.43c3.65-3.5,7.23-7.07,10.8-10.65c0.99-0.91,1.14-1.06,1.9-0.68
		c1.07,0.53,1.45,1.14,1.29,2.28c-0.3,1.67-0.68,3.27-0.91,4.94c-0.15,1.83-0.15,3.65-0.15,5.48c0,0.53,0.23,1.06,0.46,1.75
		c0.76-0.23,1.37-0.38,1.98-0.61c2.05-0.84,3.8-2.13,5.55-3.5c1.83-1.45,3.65-2.97,5.55-4.41c1.14-0.84,1.83-0.61,2.59,0.84
		c-0.68,0.53-1.37,1.14-2.13,1.67c-1.9,1.52-3.73,3.04-5.7,4.41c-1.45,1.06-2.97,2.05-4.56,2.81c-2.51,1.14-4.72,0.23-5.78-2.36
		c-0.46-1.06-0.68-2.21-0.76-3.35C277.35,174.86,277.43,173.41,277.43,171.66z"/>
	
		<linearGradient id="SVGID_00000076581509886186223810000006381099379575086520_" gradientUnits="userSpaceOnUse" x1="292.6336" y1="175.562" x2="314.3748" y2="175.562">
		<stop  offset="0.2681" style="stop-color:#2484C6"/>
		<stop  offset="1" style="stop-color:#2484C6;stop-opacity:0.5"/>
	</linearGradient>
	<path style="fill:url(#SVGID_00000076581509886186223810000006381099379575086520_);" d="M297.2,178.43c0,1.9,0.15,1.22,0.68,0.15
		c1.67-3.35,3.04-6.85,4.79-10.04c1.37-2.51,3.19-4.79,4.79-7.15c0.38-0.53,0.91-0.68,1.6-0.53c1.6,0.3,2.36,1.14,2.43,2.74
		c0.23,3.04,0.3,6.08,0.53,9.13c0.15,1.98,0,3.57,2.21,4.34c0.91,0.3-3.04,2.13-4.72-1.67c-0.91-2.13-1.14-5.32-1.45-7.99
		c0-0.38-0.08-0.84-0.08-1.45c-0.38,0.38-0.68,0.61-0.84,0.84c-2.59,3.57-4.41,7.61-5.93,11.71c-1.45,3.8-2.36,7.76-3.12,11.71
		c-0.23,1.45-0.61,1.67-2.05,1.29c-1.67-0.38-2.05-0.84-2.28-2.59c-0.53-4.94-1.22-9.89-1.14-14.91c0.08-3.73,0.15-7.53,0.99-11.18
		c0.23-0.84,0.53-1.67,0.84-2.51c0.38-0.76,0.91-0.99,1.75-0.84c0.46,0.15,0.99,0.38,1.44,0.61c0.76,0.46,0.91,0.84,0.76,1.75
		C297.28,167.33,297.28,172.88,297.2,178.43z"/>
</g>
</svg>
