<?xml version="1.0" encoding="utf-8"?>
<!-- Generator: Adobe Illustrator 27.3.1, SVG Export Plug-In . SVG Version: 6.00 Build 0)  -->
<svg version="1.1" id="Layer_1" xmlns="http://www.w3.org/2000/svg" xmlns:xlink="http://www.w3.org/1999/xlink" x="0px" y="0px"
	 viewBox="0 0 320 320" style="enable-background:new 0 0 320 320;" xml:space="preserve">
<style type="text/css">
	.st0{fill:#072844;}
	.st1{fill:#0E2648;}
	.st2{fill:url(#SVGID_1_);}
	.st3{fill:#A1B8C7;}
	.st4{opacity:0.38;}
</style>
<g>
	<path class="st0" d="M46.85,229.82v9.62H46.1c-0.25-1.85-0.69-3.32-1.33-4.41c-0.32-0.55-0.71-1.04-1.18-1.48
		c-0.47-0.44-0.98-0.81-1.54-1.12c-0.55-0.31-1.14-0.55-1.76-0.72c-0.62-0.17-1.25-0.26-1.88-0.26c-0.7,0-1.35,0.12-1.95,0.36
		c-0.6,0.24-1.12,0.56-1.57,0.95s-0.79,0.85-1.03,1.36c-0.25,0.51-0.37,1.04-0.37,1.59c0,0.77,0.18,1.43,0.53,2
		c0.36,0.57,0.84,1.09,1.47,1.57c0.62,0.48,1.35,0.94,2.19,1.39c0.84,0.45,1.75,0.94,2.74,1.46c1.11,0.59,2.16,1.16,3.16,1.72
		c1,0.56,1.88,1.18,2.64,1.86c0.76,0.68,1.36,1.45,1.82,2.32c0.45,0.87,0.68,1.91,0.68,3.13c0,1.04-0.22,2.03-0.65,2.96
		c-0.43,0.94-1.03,1.76-1.8,2.46c-0.77,0.7-1.7,1.26-2.77,1.68c-1.07,0.42-2.25,0.63-3.54,0.63c-0.48,0-0.89-0.01-1.23-0.02
		c-0.34-0.01-0.67-0.04-0.98-0.09c-0.32-0.05-0.64-0.12-0.97-0.23c-0.34-0.1-0.74-0.24-1.2-0.42c-0.33-0.12-0.66-0.24-1.01-0.34
		c-0.34-0.1-0.66-0.19-0.94-0.26c-0.29-0.07-0.53-0.12-0.73-0.16s-0.32-0.06-0.38-0.06c-0.34,0-0.61,0.1-0.81,0.31
		c-0.2,0.21-0.35,0.63-0.44,1.27h-0.76v-9.54h0.76c0.18,1,0.39,1.87,0.63,2.61c0.24,0.75,0.51,1.37,0.81,1.88
		c0.3,0.49,0.69,0.95,1.17,1.37c0.48,0.42,1.01,0.79,1.61,1.1c0.6,0.31,1.24,0.55,1.93,0.72c0.69,0.17,1.4,0.26,2.12,0.26
		c0.86,0,1.63-0.12,2.32-0.37c0.68-0.25,1.26-0.58,1.74-0.99c0.48-0.42,0.84-0.9,1.1-1.46c0.25-0.55,0.38-1.13,0.38-1.73
		c0-0.89-0.18-1.64-0.55-2.25c-0.37-0.61-0.86-1.15-1.49-1.63c-0.62-0.48-1.35-0.94-2.17-1.37s-1.7-0.93-2.61-1.48
		c-1.04-0.62-2.04-1.2-3-1.75c-0.96-0.55-1.82-1.16-2.55-1.82s-1.33-1.42-1.77-2.27c-0.45-0.85-0.67-1.86-0.67-3.04
		c0-0.98,0.21-1.92,0.62-2.81s0.98-1.67,1.7-2.34c0.72-0.67,1.58-1.2,2.57-1.59c0.99-0.39,2.07-0.58,3.25-0.58
		c1.45,0,3.01,0.36,4.7,1.09c0.74,0.34,1.28,0.51,1.62,0.51c0.36,0,0.65-0.11,0.87-0.32c0.23-0.21,0.41-0.64,0.54-1.28H46.85z"/>
	<path class="st0" d="M59.57,245.24v8.1c0,1.75,0.19,2.84,0.57,3.26c0.52,0.6,1.31,0.9,2.36,0.9h1.07v0.76H51.65v-0.76h1.05
		c0.57,0,1.08-0.1,1.51-0.29c0.43-0.19,0.77-0.48,1.01-0.86c0.27-0.44,0.41-1.44,0.41-3.02v-17.96c0-1.74-0.19-2.82-0.55-3.26
		c-0.53-0.6-1.33-0.9-2.38-0.9h-1.05v-0.76h10.19c2.47,0,4.44,0.26,5.89,0.78c0.71,0.26,1.37,0.61,1.99,1.05
		c0.62,0.44,1.16,0.95,1.62,1.55c0.46,0.59,0.83,1.26,1.1,1.98c0.27,0.72,0.4,1.5,0.4,2.34c0,1.13-0.19,2.17-0.57,3.11
		c-0.38,0.94-0.94,1.74-1.67,2.42c-0.73,0.68-1.63,1.2-2.7,1.58c-1.07,0.38-2.28,0.56-3.65,0.56
		C62.88,245.81,61.32,245.62,59.57,245.24z M59.57,244.07c0.74,0.14,1.38,0.24,1.94,0.31c0.55,0.07,1.03,0.1,1.42,0.1
		c0.71,0,1.38-0.15,2.02-0.44c0.64-0.29,1.19-0.7,1.66-1.23c0.47-0.53,0.85-1.15,1.13-1.88c0.28-0.72,0.42-1.52,0.42-2.38
		c0-1.01-0.15-1.92-0.45-2.72c-0.3-0.8-0.72-1.48-1.25-2.03c-0.53-0.55-1.16-0.97-1.88-1.26c-0.72-0.29-1.49-0.43-2.33-0.43
		c-0.36,0-0.75,0.03-1.2,0.09c-0.45,0.06-0.94,0.16-1.49,0.3V244.07z"/>
	<path class="st0" d="M102.7,258.26h-7.42l-9.41-13c-0.36,0.01-0.67,0.02-0.95,0.03c-0.28,0.01-0.53,0.01-0.75,0.01
		c-0.18,0-0.37,0-0.57-0.01c-0.21-0.01-0.42-0.02-0.64-0.03v8.08c0,1.75,0.19,2.84,0.57,3.26c0.52,0.6,1.3,0.9,2.34,0.9h1.09v0.76
		H75.03v-0.76h1.05c1.16,0,2-0.38,2.52-1.15c0.29-0.42,0.43-1.43,0.43-3.02v-17.96c0-1.75-0.19-2.84-0.57-3.26
		c-0.53-0.6-1.33-0.9-2.38-0.9h-1.05v-0.76h10.13c2.93,0,5.1,0.22,6.52,0.66c0.7,0.21,1.35,0.51,1.96,0.92
		c0.61,0.41,1.14,0.9,1.6,1.46c0.46,0.56,0.82,1.19,1.09,1.89c0.27,0.7,0.4,1.44,0.4,2.24c0,0.86-0.14,1.66-0.41,2.41
		c-0.27,0.75-0.69,1.43-1.26,2.04c-0.57,0.62-1.28,1.15-2.14,1.6c-0.86,0.45-1.87,0.81-3.04,1.07l5.74,7.98
		c1.33,1.85,2.45,3.06,3.38,3.65c0.96,0.6,2.19,0.98,3.69,1.15V258.26z M82.95,243.97c0.26,0,0.48,0,0.68,0.01
		c0.19,0.01,0.35,0.01,0.47,0.01c1.33,0,2.49-0.15,3.5-0.46c1.01-0.31,1.84-0.73,2.51-1.28c0.67-0.55,1.17-1.19,1.51-1.94
		c0.34-0.75,0.5-1.56,0.5-2.43c0-0.86-0.14-1.65-0.43-2.37c-0.29-0.72-0.69-1.34-1.22-1.86c-0.53-0.52-1.16-0.92-1.89-1.21
		c-0.73-0.29-1.54-0.43-2.41-0.43c-0.4,0-0.86,0.03-1.39,0.09c-0.53,0.06-1.14,0.16-1.82,0.3V243.97z"/>
	<path class="st0" d="M115.29,257.5v0.76h-11.92v-0.76h0.98c1.16,0,2-0.34,2.5-1.01c0.33-0.42,0.49-1.48,0.49-3.16v-17.96
		c0-0.66-0.01-1.19-0.04-1.6c-0.03-0.41-0.08-0.75-0.15-1.01c-0.08-0.27-0.18-0.47-0.33-0.63c-0.14-0.15-0.34-0.29-0.58-0.43
		c-0.6-0.33-1.23-0.49-1.89-0.49h-0.98v-0.76h11.92v0.76h-1.01c-1.15,0-1.98,0.34-2.48,1c-0.34,0.42-0.51,1.48-0.51,3.16v17.96
		c0,0.66,0.01,1.19,0.04,1.6c0.03,0.41,0.08,0.75,0.15,1.01c0.07,0.26,0.19,0.47,0.34,0.62c0.15,0.16,0.35,0.3,0.6,0.44
		c0.59,0.33,1.21,0.49,1.87,0.49H115.29z"/>
	<path class="st0" d="M115.76,230.45h7.55l17,20.86v-16.04c0-1.71-0.19-2.77-0.57-3.2c-0.52-0.57-1.32-0.86-2.4-0.86h-0.96v-0.76
		h9.68v0.76h-0.98c-1.18,0-2.01,0.36-2.5,1.07c-0.3,0.42-0.45,1.42-0.45,2.99v23.44h-0.74l-18.33-22.39v17.12
		c0,1.71,0.19,2.77,0.55,3.2c0.51,0.57,1.31,0.86,2.4,0.86h0.98v0.76h-9.68v-0.76h0.96c1.19,0,2.03-0.36,2.52-1.07
		c0.3-0.42,0.45-1.42,0.45-2.99V234.1c-0.41-0.48-0.75-0.86-1.03-1.15c-0.27-0.29-0.53-0.52-0.78-0.71
		c-0.25-0.18-0.51-0.33-0.8-0.45c-0.29-0.11-0.64-0.25-1.07-0.4c-0.4-0.12-1-0.18-1.8-0.18V230.45z"/>
	<path class="st0" d="M172.42,229.82l0.72,8.78h-0.72c-0.71-2.17-1.65-3.82-2.81-4.94c-1.67-1.6-3.79-2.4-6.38-2.4
		c-3.54,0-6.23,1.4-8.08,4.2c-1.54,2.37-2.32,5.18-2.32,8.45c0,2.65,0.51,5.07,1.54,7.26c0.45,0.97,0.99,1.85,1.62,2.62
		c0.63,0.78,1.33,1.44,2.11,1.99c0.78,0.55,1.62,0.97,2.53,1.27c0.91,0.3,1.87,0.45,2.88,0.45c1.03,0,2.01-0.13,2.96-0.39
		c0.95-0.26,1.88-0.64,2.78-1.15v-8.04c0-0.71-0.03-1.28-0.08-1.71c-0.05-0.43-0.13-0.78-0.24-1.04c-0.1-0.26-0.24-0.46-0.41-0.59
		s-0.37-0.26-0.58-0.37c-0.44-0.23-1.22-0.35-2.34-0.35v-0.78h10.77v0.78h-0.51c-0.47,0-0.86,0.05-1.19,0.15
		c-0.33,0.1-0.6,0.3-0.81,0.58s-0.37,0.7-0.46,1.23c-0.1,0.53-0.14,1.23-0.14,2.09v8.51c-0.82,0.44-1.61,0.81-2.38,1.12
		c-0.77,0.31-1.54,0.56-2.33,0.76c-0.79,0.2-1.59,0.34-2.42,0.44c-0.83,0.1-1.71,0.14-2.64,0.14c-5.37,0-9.45-1.72-12.24-5.17
		c-2.09-2.58-3.14-5.56-3.14-8.94c0-0.94,0.09-1.89,0.29-2.84c0.19-0.95,0.46-1.88,0.82-2.78c0.36-0.9,0.79-1.77,1.31-2.59
		c0.52-0.83,1.1-1.59,1.74-2.29c1.37-1.53,2.93-2.66,4.69-3.38c1.76-0.72,3.71-1.09,5.88-1.09c0.64,0,1.2,0.02,1.68,0.07
		c0.48,0.05,0.94,0.12,1.39,0.22c0.45,0.1,0.93,0.24,1.42,0.41c0.5,0.17,1.09,0.38,1.77,0.63c0.75,0.29,1.26,0.43,1.54,0.43
		c0.26,0,0.48-0.12,0.67-0.36c0.19-0.24,0.3-0.71,0.34-1.4H172.42z"/>
	<path class="st0" d="M185.57,231.97v10.93h5.07c0.59,0,1.09-0.06,1.51-0.16c0.42-0.11,0.77-0.31,1.06-0.6
		c0.29-0.29,0.51-0.68,0.68-1.17s0.29-1.12,0.39-1.89h0.76v9.41h-0.76c-0.01-0.7-0.08-1.29-0.2-1.78c-0.12-0.49-0.32-0.9-0.6-1.21
		c-0.27-0.31-0.64-0.54-1.1-0.69c-0.46-0.14-1.04-0.22-1.73-0.22h-5.07v8.74c0,0.66,0.01,1.19,0.04,1.6
		c0.03,0.41,0.08,0.75,0.15,1.01c0.07,0.26,0.19,0.47,0.34,0.62c0.15,0.16,0.35,0.3,0.59,0.44c0.59,0.33,1.22,0.49,1.89,0.49h1v0.76
		h-11.93v-0.76h0.98c1.16,0,2-0.34,2.5-1.01c0.33-0.42,0.49-1.48,0.49-3.16v-17.96c0-0.66-0.01-1.19-0.04-1.6
		c-0.03-0.41-0.08-0.75-0.15-1.01c-0.08-0.27-0.18-0.47-0.33-0.63c-0.14-0.15-0.34-0.29-0.58-0.43c-0.6-0.33-1.23-0.49-1.89-0.49
		h-0.98v-0.76h20.69v6.11h-0.45c-0.27-1-0.58-1.8-0.91-2.4c-0.34-0.6-0.75-1.07-1.23-1.39c-0.49-0.33-1.06-0.54-1.71-0.65
		c-0.66-0.1-1.44-0.15-2.34-0.15H185.57z"/>
	<path class="st0" d="M213.3,257.5v0.76h-11.92v-0.76h0.98c1.16,0,2-0.34,2.5-1.01c0.33-0.42,0.49-1.48,0.49-3.16v-17.96
		c0-0.66-0.01-1.19-0.04-1.6c-0.03-0.41-0.08-0.75-0.15-1.01c-0.07-0.27-0.18-0.47-0.33-0.63c-0.14-0.15-0.34-0.29-0.58-0.43
		c-0.6-0.33-1.23-0.49-1.89-0.49h-0.98v-0.76h11.92v0.76h-1.01c-1.15,0-1.98,0.34-2.48,1c-0.34,0.42-0.51,1.48-0.51,3.16v17.96
		c0,0.66,0.01,1.19,0.04,1.6c0.03,0.41,0.08,0.75,0.15,1.01c0.08,0.26,0.19,0.47,0.34,0.62c0.15,0.16,0.35,0.3,0.6,0.44
		c0.59,0.33,1.21,0.49,1.87,0.49H213.3z"/>
	<path class="st0" d="M223.1,231.97v10.99h6.11c0.89,0,1.61-0.08,2.16-0.24c0.55-0.16,0.99-0.4,1.3-0.74
		c0.32-0.34,0.53-0.75,0.66-1.26c0.12-0.51,0.21-1.11,0.25-1.8h0.76v9.68h-0.76c-0.09-0.68-0.19-1.24-0.29-1.67
		c-0.1-0.43-0.19-0.74-0.29-0.93c-0.12-0.25-0.28-0.46-0.47-0.65c-0.19-0.19-0.44-0.34-0.74-0.48c-0.3-0.14-0.66-0.24-1.09-0.31
		c-0.42-0.07-0.92-0.1-1.5-0.1h-6.11v9.17c0,1.22,0.05,1.97,0.16,2.26c0.05,0.12,0.12,0.24,0.21,0.35s0.2,0.2,0.36,0.28
		c0.16,0.08,0.36,0.13,0.62,0.17s0.57,0.06,0.95,0.06h4.72c0.81,0,1.48-0.02,2.02-0.07c0.54-0.05,1.01-0.13,1.41-0.25
		c0.4-0.12,0.76-0.28,1.07-0.49c0.31-0.21,0.63-0.48,0.98-0.81c0.42-0.41,0.85-0.94,1.29-1.58c0.44-0.64,0.87-1.39,1.31-2.26h0.82
		l-2.4,6.97h-21.43v-0.76h0.98c0.26,0,0.53-0.03,0.82-0.08s0.56-0.14,0.81-0.27s0.48-0.28,0.69-0.46c0.21-0.18,0.35-0.4,0.43-0.65
		c0.16-0.42,0.25-1.32,0.25-2.69v-18.07c0-1.75-0.18-2.84-0.53-3.26c-0.49-0.55-1.31-0.82-2.46-0.82h-0.98v-0.76h21.43v6.09h-0.49
		c-0.15-0.74-0.3-1.35-0.45-1.83c-0.15-0.48-0.32-0.87-0.51-1.19c-0.19-0.31-0.41-0.56-0.66-0.75c-0.25-0.18-0.54-0.35-0.88-0.5
		c-0.56-0.21-1.53-0.31-2.89-0.31H223.1z"/>
	<path class="st0" d="M264.05,250.57l0.68,0.14l-2.38,7.55h-21.53v-0.76h1.05c1.16,0,2-0.38,2.52-1.15
		c0.29-0.42,0.43-1.44,0.43-3.04v-17.94c0-1.75-0.19-2.84-0.57-3.26c-0.53-0.6-1.33-0.9-2.38-0.9h-1.05v-0.76h12.59v0.76
		c-0.75,0-1.38,0.03-1.88,0.1c-0.5,0.07-0.91,0.17-1.23,0.31c-0.32,0.14-0.57,0.3-0.76,0.48c-0.19,0.18-0.34,0.39-0.46,0.6
		c-0.22,0.42-0.33,1.47-0.33,3.14v17.47c0,0.48,0.02,0.89,0.05,1.23c0.03,0.34,0.09,0.62,0.17,0.85c0.08,0.22,0.19,0.41,0.33,0.55
		c0.14,0.14,0.32,0.26,0.53,0.34c0.33,0.14,1.39,0.21,3.2,0.21h2.03c2.12,0,3.62-0.16,4.49-0.47c0.44-0.15,0.85-0.36,1.23-0.62
		c0.38-0.26,0.76-0.61,1.12-1.04c0.36-0.43,0.72-0.95,1.07-1.57C263.33,252.19,263.68,251.45,264.05,250.57z"/>
	<path class="st0" d="M266.35,258.26v-0.76h1.05c1.16,0,2-0.38,2.5-1.13c0.3-0.44,0.45-1.45,0.45-3.04v-17.96
		c0-1.75-0.19-2.84-0.57-3.26c-0.53-0.6-1.33-0.9-2.38-0.9h-1.05v-0.76h11.32c4.16,0,7.31,0.47,9.48,1.42
		c2.17,0.94,3.92,2.52,5.23,4.72c1.33,2.19,1.99,4.73,1.99,7.63c0,2.05-0.33,3.94-0.99,5.66c-0.66,1.72-1.65,3.2-2.95,4.44
		c-1.31,1.24-2.93,2.21-4.88,2.9c-1.95,0.7-4.2,1.05-6.76,1.05H266.35z M274.29,256.25c1.71,0.38,3.17,0.57,4.37,0.57
		c1.57,0,3.03-0.29,4.38-0.87c1.35-0.58,2.51-1.41,3.5-2.48s1.76-2.38,2.32-3.91c0.56-1.53,0.84-3.25,0.84-5.15
		c0-1.91-0.28-3.64-0.83-5.17c-0.55-1.53-1.33-2.83-2.32-3.91c-0.99-1.07-2.17-1.9-3.55-2.47c-1.37-0.57-2.87-0.86-4.5-0.86
		c-0.61,0-1.27,0.05-1.97,0.15c-0.7,0.1-1.44,0.25-2.23,0.44V256.25z"/>
</g>
<g>
	<g>
		<path class="st1" d="M260.1,179.99H66.17c-0.36,0-0.65-0.29-0.65-0.65V48.03c0-0.36,0.29-0.65,0.65-0.65H260.1
			c0.36,0,0.65,0.29,0.65,0.65v131.32C260.74,179.7,260.45,179.99,260.1,179.99z"/>
		<linearGradient id="SVGID_1_" gradientUnits="userSpaceOnUse" x1="64.3088" y1="46.1134" x2="252.4524" y2="176.1779">
			<stop  offset="0" style="stop-color:#447EC1"/>
			<stop  offset="0.4829" style="stop-color:#5369B1"/>
			<stop  offset="1" style="stop-color:#7657A5"/>
		</linearGradient>
		<path class="st2" d="M251.25,171.24H73.65c-0.41,0-0.74-0.33-0.74-0.74V57.42c0-0.41,0.33-0.74,0.74-0.74h177.61
			c0.41,0,0.74,0.33,0.74,0.74V170.5C251.99,170.91,251.66,171.24,251.25,171.24z"/>
	</g>
	<g>
		<polygon class="st3" points="286.44,198.03 36.27,198.03 65.52,183.27 260.74,183.27 		"/>
		<path class="st0" d="M291.64,200.92v10.63c0,0.39-0.31,0.7-0.7,0.7H33.15c-0.39,0-0.71-0.31-0.71-0.7v-10.63
			c0-0.38,0.32-0.7,0.71-0.7h103.5l5.23,5.27h41.83l5.23-5.27h102C291.33,200.22,291.64,200.54,291.64,200.92z"/>
	</g>
</g>
<g class="st4">
	<g>
		<path class="st0" d="M100.31,68.75c2.47,0,4.47-1.67,4.47-3.74c0-2.06-2-3.74-4.47-3.74c-2.47,0-4.47,1.67-4.47,3.74
			c0,0.33,0.07,0.65,0.16,0.95l-5.15,3.81c-0.66-0.32-1.42-0.52-2.23-0.52c-2.47,0-4.47,1.67-4.47,3.74c0,2.06,2,3.74,4.47,3.74
			c0.54,0,1.06-0.09,1.54-0.24l4.4,3.83c-0.28,0.49-0.45,1.03-0.45,1.61c0,2.06,2,3.74,4.47,3.74c2.47,0,4.47-1.67,4.47-3.74
			c0-2.06-2-3.74-4.47-3.74c-0.51,0-1,0.09-1.46,0.22l-4.44-3.87c0.26-0.47,0.42-1,0.42-1.55c0-0.31-0.06-0.6-0.14-0.89l5.2-3.84
			C98.79,68.57,99.52,68.75,100.31,68.75z"/>
		<path class="st0" d="M127.38,68.75c2.47,0,4.47-1.67,4.47-3.74c0-2.06-2-3.74-4.47-3.74s-4.47,1.67-4.47,3.74
			c0,0.33,0.07,0.65,0.16,0.95l-5.15,3.81c-0.66-0.32-1.42-0.52-2.23-0.52c-2.47,0-4.47,1.67-4.47,3.74c0,2.06,2,3.74,4.47,3.74
			c0.54,0,1.06-0.09,1.54-0.24l4.4,3.83c-0.28,0.49-0.45,1.03-0.45,1.61c0,2.06,2,3.74,4.47,3.74c2.47,0,4.47-1.67,4.47-3.74
			c0-2.06-2-3.74-4.47-3.74c-0.51,0-1,0.09-1.46,0.22l-4.44-3.87c0.26-0.47,0.42-1,0.42-1.55c0-0.31-0.06-0.6-0.14-0.89l5.2-3.84
			C125.85,68.57,126.59,68.75,127.38,68.75z"/>
		<path class="st0" d="M154.45,68.75c2.47,0,4.47-1.67,4.47-3.74c0-2.06-2-3.74-4.47-3.74s-4.47,1.67-4.47,3.74
			c0,0.33,0.07,0.65,0.16,0.95l-5.15,3.81c-0.66-0.32-1.42-0.52-2.23-0.52c-2.47,0-4.47,1.67-4.47,3.74c0,2.06,2,3.74,4.47,3.74
			c0.54,0,1.06-0.09,1.54-0.24l4.4,3.83c-0.28,0.49-0.45,1.03-0.45,1.61c0,2.06,2,3.74,4.47,3.74c2.47,0,4.47-1.67,4.47-3.74
			c0-2.06-2-3.74-4.47-3.74c-0.51,0-1,0.09-1.46,0.22l-4.44-3.87c0.26-0.47,0.42-1,0.42-1.55c0-0.31-0.06-0.6-0.14-0.89l5.2-3.84
			C152.92,68.57,153.66,68.75,154.45,68.75z"/>
		<path class="st0" d="M223.96,68.75c-2.47,0-4.47-1.67-4.47-3.74c0-2.06,2-3.74,4.47-3.74s4.47,1.67,4.47,3.74
			c0,0.33-0.07,0.65-0.16,0.95l5.15,3.81c0.66-0.32,1.42-0.52,2.23-0.52c2.47,0,4.47,1.67,4.47,3.74c0,2.06-2,3.74-4.47,3.74
			c-0.54,0-1.06-0.09-1.54-0.24l-4.4,3.83c0.28,0.49,0.45,1.03,0.45,1.61c0,2.06-2,3.74-4.47,3.74c-2.47,0-4.47-1.67-4.47-3.74
			c0-2.06,2-3.74,4.47-3.74c0.51,0,1,0.09,1.46,0.22l4.44-3.87c-0.26-0.47-0.42-1-0.42-1.55c0-0.31,0.06-0.6,0.14-0.89l-5.2-3.84
			C225.48,68.57,224.75,68.75,223.96,68.75z"/>
		<path class="st0" d="M196.89,68.75c-2.47,0-4.47-1.67-4.47-3.74c0-2.06,2-3.74,4.47-3.74c2.47,0,4.47,1.67,4.47,3.74
			c0,0.33-0.07,0.65-0.16,0.95l5.15,3.81c0.66-0.32,1.42-0.52,2.23-0.52c2.47,0,4.47,1.67,4.47,3.74c0,2.06-2,3.74-4.47,3.74
			c-0.54,0-1.06-0.09-1.54-0.24l-4.4,3.83c0.28,0.49,0.45,1.03,0.45,1.61c0,2.06-2,3.74-4.47,3.74c-2.47,0-4.47-1.67-4.47-3.74
			c0-2.06,2-3.74,4.47-3.74c0.51,0,1,0.09,1.46,0.22l4.44-3.87c-0.26-0.47-0.42-1-0.42-1.55c0-0.31,0.06-0.6,0.14-0.89l-5.2-3.84
			C198.41,68.57,197.68,68.75,196.89,68.75z"/>
		<path class="st0" d="M169.82,68.75c-2.47,0-4.47-1.67-4.47-3.74c0-2.06,2-3.74,4.47-3.74s4.47,1.67,4.47,3.74
			c0,0.33-0.07,0.65-0.16,0.95l5.15,3.81c0.66-0.32,1.42-0.52,2.23-0.52c2.47,0,4.47,1.67,4.47,3.74c0,2.06-2,3.74-4.47,3.74
			c-0.54,0-1.06-0.09-1.54-0.24l-4.4,3.83c0.28,0.49,0.45,1.03,0.45,1.61c0,2.06-2,3.74-4.47,3.74c-2.47,0-4.47-1.67-4.47-3.74
			c0-2.06,2-3.74,4.47-3.74c0.51,0,1,0.09,1.46,0.22l4.44-3.87c-0.26-0.47-0.42-1-0.42-1.55c0-0.31,0.06-0.6,0.14-0.89l-5.2-3.84
			C171.34,68.57,170.61,68.75,169.82,68.75z"/>
	</g>
	<g>
		<path class="st0" d="M100.31,95.74c2.47,0,4.47-1.67,4.47-3.74s-2-3.74-4.47-3.74c-2.47,0-4.47,1.67-4.47,3.74
			c0,0.33,0.07,0.65,0.16,0.95l-5.15,3.81c-0.66-0.32-1.42-0.52-2.23-0.52c-2.47,0-4.47,1.67-4.47,3.74c0,2.06,2,3.74,4.47,3.74
			c0.54,0,1.06-0.09,1.54-0.24l4.4,3.83c-0.28,0.49-0.45,1.03-0.45,1.61c0,2.06,2,3.74,4.47,3.74c2.47,0,4.47-1.67,4.47-3.74
			c0-2.06-2-3.74-4.47-3.74c-0.51,0-1,0.09-1.46,0.22l-4.44-3.87c0.26-0.47,0.42-1,0.42-1.55c0-0.31-0.06-0.6-0.14-0.89l5.2-3.84
			C98.79,95.55,99.52,95.74,100.31,95.74z"/>
		<path class="st0" d="M127.38,95.74c2.47,0,4.47-1.67,4.47-3.74s-2-3.74-4.47-3.74s-4.47,1.67-4.47,3.74
			c0,0.33,0.07,0.65,0.16,0.95l-5.15,3.81c-0.66-0.32-1.42-0.52-2.23-0.52c-2.47,0-4.47,1.67-4.47,3.74c0,2.06,2,3.74,4.47,3.74
			c0.54,0,1.06-0.09,1.54-0.24l4.4,3.83c-0.28,0.49-0.45,1.03-0.45,1.61c0,2.06,2,3.74,4.47,3.74c2.47,0,4.47-1.67,4.47-3.74
			c0-2.06-2-3.74-4.47-3.74c-0.51,0-1,0.09-1.46,0.22l-4.44-3.87c0.26-0.47,0.42-1,0.42-1.55c0-0.31-0.06-0.6-0.14-0.89l5.2-3.84
			C125.85,95.55,126.59,95.74,127.38,95.74z"/>
		<path class="st0" d="M154.45,95.74c2.47,0,4.47-1.67,4.47-3.74s-2-3.74-4.47-3.74s-4.47,1.67-4.47,3.74
			c0,0.33,0.07,0.65,0.16,0.95l-5.15,3.81c-0.66-0.32-1.42-0.52-2.23-0.52c-2.47,0-4.47,1.67-4.47,3.74c0,2.06,2,3.74,4.47,3.74
			c0.54,0,1.06-0.09,1.54-0.24l4.4,3.83c-0.28,0.49-0.45,1.03-0.45,1.61c0,2.06,2,3.74,4.47,3.74c2.47,0,4.47-1.67,4.47-3.74
			c0-2.06-2-3.74-4.47-3.74c-0.51,0-1,0.09-1.46,0.22l-4.44-3.87c0.26-0.47,0.42-1,0.42-1.55c0-0.31-0.06-0.6-0.14-0.89l5.2-3.84
			C152.92,95.55,153.66,95.74,154.45,95.74z"/>
		<path class="st0" d="M223.96,95.74c-2.47,0-4.47-1.67-4.47-3.74s2-3.74,4.47-3.74s4.47,1.67,4.47,3.74c0,0.33-0.07,0.65-0.16,0.95
			l5.15,3.81c0.66-0.32,1.42-0.52,2.23-0.52c2.47,0,4.47,1.67,4.47,3.74c0,2.06-2,3.74-4.47,3.74c-0.54,0-1.06-0.09-1.54-0.24
			l-4.4,3.83c0.28,0.49,0.45,1.03,0.45,1.61c0,2.06-2,3.74-4.47,3.74c-2.47,0-4.47-1.67-4.47-3.74c0-2.06,2-3.74,4.47-3.74
			c0.51,0,1,0.09,1.46,0.22l4.44-3.87c-0.26-0.47-0.42-1-0.42-1.55c0-0.31,0.06-0.6,0.14-0.89l-5.2-3.84
			C225.48,95.55,224.75,95.74,223.96,95.74z"/>
		<path class="st0" d="M196.89,95.74c-2.47,0-4.47-1.67-4.47-3.74s2-3.74,4.47-3.74c2.47,0,4.47,1.67,4.47,3.74
			c0,0.33-0.07,0.65-0.16,0.95l5.15,3.81c0.66-0.32,1.42-0.52,2.23-0.52c2.47,0,4.47,1.67,4.47,3.74c0,2.06-2,3.74-4.47,3.74
			c-0.54,0-1.06-0.09-1.54-0.24l-4.4,3.83c0.28,0.49,0.45,1.03,0.45,1.61c0,2.06-2,3.74-4.47,3.74c-2.47,0-4.47-1.67-4.47-3.74
			c0-2.06,2-3.74,4.47-3.74c0.51,0,1,0.09,1.46,0.22l4.44-3.87c-0.26-0.47-0.42-1-0.42-1.55c0-0.31,0.06-0.6,0.14-0.89l-5.2-3.84
			C198.41,95.55,197.68,95.74,196.89,95.74z"/>
		<path class="st0" d="M169.82,95.74c-2.47,0-4.47-1.67-4.47-3.74s2-3.74,4.47-3.74s4.47,1.67,4.47,3.74c0,0.33-0.07,0.65-0.16,0.95
			l5.15,3.81c0.66-0.32,1.42-0.52,2.23-0.52c2.47,0,4.47,1.67,4.47,3.74c0,2.06-2,3.74-4.47,3.74c-0.54,0-1.06-0.09-1.54-0.24
			l-4.4,3.83c0.28,0.49,0.45,1.03,0.45,1.61c0,2.06-2,3.74-4.47,3.74c-2.47,0-4.47-1.67-4.47-3.74c0-2.06,2-3.74,4.47-3.74
			c0.51,0,1,0.09,1.46,0.22l4.44-3.87c-0.26-0.47-0.42-1-0.42-1.55c0-0.31,0.06-0.6,0.14-0.89l-5.2-3.84
			C171.34,95.55,170.61,95.74,169.82,95.74z"/>
	</g>
	<g>
		<path class="st0" d="M100.31,122.73c2.47,0,4.47-1.67,4.47-3.74c0-2.06-2-3.74-4.47-3.74c-2.47,0-4.47,1.67-4.47,3.74
			c0,0.33,0.07,0.65,0.16,0.95l-5.15,3.81c-0.66-0.32-1.42-0.52-2.23-0.52c-2.47,0-4.47,1.67-4.47,3.74c0,2.06,2,3.74,4.47,3.74
			c0.54,0,1.06-0.09,1.54-0.24l4.4,3.83c-0.28,0.49-0.45,1.03-0.45,1.61c0,2.06,2,3.74,4.47,3.74c2.47,0,4.47-1.67,4.47-3.74
			c0-2.06-2-3.74-4.47-3.74c-0.51,0-1,0.09-1.46,0.22l-4.44-3.87c0.26-0.47,0.42-1,0.42-1.55c0-0.31-0.06-0.6-0.14-0.89l5.2-3.84
			C98.79,122.54,99.52,122.73,100.31,122.73z"/>
		<path class="st0" d="M127.38,122.73c2.47,0,4.47-1.67,4.47-3.74c0-2.06-2-3.74-4.47-3.74s-4.47,1.67-4.47,3.74
			c0,0.33,0.07,0.65,0.16,0.95l-5.15,3.81c-0.66-0.32-1.42-0.52-2.23-0.52c-2.47,0-4.47,1.67-4.47,3.74c0,2.06,2,3.74,4.47,3.74
			c0.54,0,1.06-0.09,1.54-0.24l4.4,3.83c-0.28,0.49-0.45,1.03-0.45,1.61c0,2.06,2,3.74,4.47,3.74c2.47,0,4.47-1.67,4.47-3.74
			c0-2.06-2-3.74-4.47-3.74c-0.51,0-1,0.09-1.46,0.22l-4.44-3.87c0.26-0.47,0.42-1,0.42-1.55c0-0.31-0.06-0.6-0.14-0.89l5.2-3.84
			C125.85,122.54,126.59,122.73,127.38,122.73z"/>
		<path class="st0" d="M154.45,122.73c2.47,0,4.47-1.67,4.47-3.74c0-2.06-2-3.74-4.47-3.74s-4.47,1.67-4.47,3.74
			c0,0.33,0.07,0.65,0.16,0.95l-5.15,3.81c-0.66-0.32-1.42-0.52-2.23-0.52c-2.47,0-4.47,1.67-4.47,3.74c0,2.06,2,3.74,4.47,3.74
			c0.54,0,1.06-0.09,1.54-0.24l4.4,3.83c-0.28,0.49-0.45,1.03-0.45,1.61c0,2.06,2,3.74,4.47,3.74c2.47,0,4.47-1.67,4.47-3.74
			c0-2.06-2-3.74-4.47-3.74c-0.51,0-1,0.09-1.46,0.22l-4.44-3.87c0.26-0.47,0.42-1,0.42-1.55c0-0.31-0.06-0.6-0.14-0.89l5.2-3.84
			C152.92,122.54,153.66,122.73,154.45,122.73z"/>
		<path class="st0" d="M223.96,122.73c-2.47,0-4.47-1.67-4.47-3.74c0-2.06,2-3.74,4.47-3.74s4.47,1.67,4.47,3.74
			c0,0.33-0.07,0.65-0.16,0.95l5.15,3.81c0.66-0.32,1.42-0.52,2.23-0.52c2.47,0,4.47,1.67,4.47,3.74c0,2.06-2,3.74-4.47,3.74
			c-0.54,0-1.06-0.09-1.54-0.24l-4.4,3.83c0.28,0.49,0.45,1.03,0.45,1.61c0,2.06-2,3.74-4.47,3.74c-2.47,0-4.47-1.67-4.47-3.74
			c0-2.06,2-3.74,4.47-3.74c0.51,0,1,0.09,1.46,0.22l4.44-3.87c-0.26-0.47-0.42-1-0.42-1.55c0-0.31,0.06-0.6,0.14-0.89l-5.2-3.84
			C225.48,122.54,224.75,122.73,223.96,122.73z"/>
		<path class="st0" d="M196.89,122.73c-2.47,0-4.47-1.67-4.47-3.74c0-2.06,2-3.74,4.47-3.74c2.47,0,4.47,1.67,4.47,3.74
			c0,0.33-0.07,0.65-0.16,0.95l5.15,3.81c0.66-0.32,1.42-0.52,2.23-0.52c2.47,0,4.47,1.67,4.47,3.74c0,2.06-2,3.74-4.47,3.74
			c-0.54,0-1.06-0.09-1.54-0.24l-4.4,3.83c0.28,0.49,0.45,1.03,0.45,1.61c0,2.06-2,3.74-4.47,3.74c-2.47,0-4.47-1.67-4.47-3.74
			c0-2.06,2-3.74,4.47-3.74c0.51,0,1,0.09,1.46,0.22l4.44-3.87c-0.26-0.47-0.42-1-0.42-1.55c0-0.31,0.06-0.6,0.14-0.89l-5.2-3.84
			C198.41,122.54,197.68,122.73,196.89,122.73z"/>
		<path class="st0" d="M169.82,122.73c-2.47,0-4.47-1.67-4.47-3.74c0-2.06,2-3.74,4.47-3.74s4.47,1.67,4.47,3.74
			c0,0.33-0.07,0.65-0.16,0.95l5.15,3.81c0.66-0.32,1.42-0.52,2.23-0.52c2.47,0,4.47,1.67,4.47,3.74c0,2.06-2,3.74-4.47,3.74
			c-0.54,0-1.06-0.09-1.54-0.24l-4.4,3.83c0.28,0.49,0.45,1.03,0.45,1.61c0,2.06-2,3.74-4.47,3.74c-2.47,0-4.47-1.67-4.47-3.74
			c0-2.06,2-3.74,4.47-3.74c0.51,0,1,0.09,1.46,0.22l4.44-3.87c-0.26-0.47-0.42-1-0.42-1.55c0-0.31,0.06-0.6,0.14-0.89l-5.2-3.84
			C171.34,122.54,170.61,122.73,169.82,122.73z"/>
	</g>
	<g>
		<path class="st0" d="M100.31,149.71c2.47,0,4.47-1.67,4.47-3.74c0-2.06-2-3.74-4.47-3.74c-2.47,0-4.47,1.67-4.47,3.74
			c0,0.33,0.07,0.65,0.16,0.95l-5.15,3.81c-0.66-0.32-1.42-0.52-2.23-0.52c-2.47,0-4.47,1.67-4.47,3.74c0,2.06,2,3.74,4.47,3.74
			c0.54,0,1.06-0.09,1.54-0.24l4.4,3.83c-0.28,0.49-0.45,1.03-0.45,1.61c0,2.06,2,3.74,4.47,3.74c2.47,0,4.47-1.67,4.47-3.74
			c0-2.06-2-3.74-4.47-3.74c-0.51,0-1,0.09-1.46,0.22l-4.44-3.87c0.26-0.47,0.42-1,0.42-1.55c0-0.31-0.06-0.6-0.14-0.89l5.2-3.84
			C98.79,149.53,99.52,149.71,100.31,149.71z"/>
		<path class="st0" d="M127.38,149.71c2.47,0,4.47-1.67,4.47-3.74c0-2.06-2-3.74-4.47-3.74s-4.47,1.67-4.47,3.74
			c0,0.33,0.07,0.65,0.16,0.95l-5.15,3.81c-0.66-0.32-1.42-0.52-2.23-0.52c-2.47,0-4.47,1.67-4.47,3.74c0,2.06,2,3.74,4.47,3.74
			c0.54,0,1.06-0.09,1.54-0.24l4.4,3.83c-0.28,0.49-0.45,1.03-0.45,1.61c0,2.06,2,3.74,4.47,3.74c2.47,0,4.47-1.67,4.47-3.74
			c0-2.06-2-3.74-4.47-3.74c-0.51,0-1,0.09-1.46,0.22l-4.44-3.87c0.26-0.47,0.42-1,0.42-1.55c0-0.31-0.06-0.6-0.14-0.89l5.2-3.84
			C125.85,149.53,126.59,149.71,127.38,149.71z"/>
		<path class="st0" d="M154.45,149.71c2.47,0,4.47-1.67,4.47-3.74c0-2.06-2-3.74-4.47-3.74s-4.47,1.67-4.47,3.74
			c0,0.33,0.07,0.65,0.16,0.95l-5.15,3.81c-0.66-0.32-1.42-0.52-2.23-0.52c-2.47,0-4.47,1.67-4.47,3.74c0,2.06,2,3.74,4.47,3.74
			c0.54,0,1.06-0.09,1.54-0.24l4.4,3.83c-0.28,0.49-0.45,1.03-0.45,1.61c0,2.06,2,3.74,4.47,3.74c2.47,0,4.47-1.67,4.47-3.74
			c0-2.06-2-3.74-4.47-3.74c-0.51,0-1,0.09-1.46,0.22l-4.44-3.87c0.26-0.47,0.42-1,0.42-1.55c0-0.31-0.06-0.6-0.14-0.89l5.2-3.84
			C152.92,149.53,153.66,149.71,154.45,149.71z"/>
		<path class="st0" d="M223.96,149.71c-2.47,0-4.47-1.67-4.47-3.74c0-2.06,2-3.74,4.47-3.74s4.47,1.67,4.47,3.74
			c0,0.33-0.07,0.65-0.16,0.95l5.15,3.81c0.66-0.32,1.42-0.52,2.23-0.52c2.47,0,4.47,1.67,4.47,3.74c0,2.06-2,3.74-4.47,3.74
			c-0.54,0-1.06-0.09-1.54-0.24l-4.4,3.83c0.28,0.49,0.45,1.03,0.45,1.61c0,2.06-2,3.74-4.47,3.74c-2.47,0-4.47-1.67-4.47-3.74
			c0-2.06,2-3.74,4.47-3.74c0.51,0,1,0.09,1.46,0.22l4.44-3.87c-0.26-0.47-0.42-1-0.42-1.55c0-0.31,0.06-0.6,0.14-0.89l-5.2-3.84
			C225.48,149.53,224.75,149.71,223.96,149.71z"/>
		<path class="st0" d="M196.89,149.71c-2.47,0-4.47-1.67-4.47-3.74c0-2.06,2-3.74,4.47-3.74c2.47,0,4.47,1.67,4.47,3.74
			c0,0.33-0.07,0.65-0.16,0.95l5.15,3.81c0.66-0.32,1.42-0.52,2.23-0.52c2.47,0,4.47,1.67,4.47,3.74c0,2.06-2,3.74-4.47,3.74
			c-0.54,0-1.06-0.09-1.54-0.24l-4.4,3.83c0.28,0.49,0.45,1.03,0.45,1.61c0,2.06-2,3.74-4.47,3.74c-2.47,0-4.47-1.67-4.47-3.74
			c0-2.06,2-3.74,4.47-3.74c0.51,0,1,0.09,1.46,0.22l4.44-3.87c-0.26-0.47-0.42-1-0.42-1.55c0-0.31,0.06-0.6,0.14-0.89l-5.2-3.84
			C198.41,149.53,197.68,149.71,196.89,149.71z"/>
		<path class="st0" d="M169.82,149.71c-2.47,0-4.47-1.67-4.47-3.74c0-2.06,2-3.74,4.47-3.74s4.47,1.67,4.47,3.74
			c0,0.33-0.07,0.65-0.16,0.95l5.15,3.81c0.66-0.32,1.42-0.52,2.23-0.52c2.47,0,4.47,1.67,4.47,3.74c0,2.06-2,3.74-4.47,3.74
			c-0.54,0-1.06-0.09-1.54-0.24l-4.4,3.83c0.28,0.49,0.45,1.03,0.45,1.61c0,2.06-2,3.74-4.47,3.74c-2.47,0-4.47-1.67-4.47-3.74
			c0-2.06,2-3.74,4.47-3.74c0.51,0,1,0.09,1.46,0.22l4.44-3.87c-0.26-0.47-0.42-1-0.42-1.55c0-0.31,0.06-0.6,0.14-0.89l-5.2-3.84
			C171.34,149.53,170.61,149.71,169.82,149.71z"/>
	</g>
</g>
</svg>
