<?xml version="1.0" encoding="utf-8"?>
<!-- Generator: Adobe Illustrator 27.3.1, SVG Export Plug-In . SVG Version: 6.00 Build 0)  -->
<svg version="1.1" id="Layer_1" xmlns="http://www.w3.org/2000/svg" xmlns:xlink="http://www.w3.org/1999/xlink" x="0px" y="0px"
	 viewBox="0 0 320 320" style="enable-background:new 0 0 320 320;" xml:space="preserve">
<style type="text/css">
	.st0{fill:#062844;}
	.st1{fill:#102648;}
	.st2{fill:url(#SVGID_1_);}
	.st3{fill:#A1B9C7;}
	.st4{opacity:0.38;}
	.st5{opacity:0.15;fill:#062844;}
</style>
<g>
	<path class="st0" d="M56.53,234.71v8.66h-0.67c-0.23-1.67-0.63-2.99-1.19-3.96c-0.29-0.49-0.63-0.94-1.06-1.33
		c-0.43-0.38-0.88-0.72-1.4-1.01c-0.49-0.27-1.03-0.49-1.6-0.65c-0.56-0.16-1.12-0.23-1.69-0.23c-0.63,0-1.22,0.11-1.75,0.32
		c-0.54,0.23-1.01,0.5-1.42,0.86c-0.4,0.36-0.72,0.76-0.92,1.24c-0.23,0.47-0.34,0.95-0.34,1.44c0,0.7,0.16,1.28,0.47,1.8
		c0.31,0.52,0.76,0.99,1.33,1.42s1.22,0.86,1.98,1.26c0.76,0.4,1.57,0.83,2.47,1.31c0.99,0.54,1.93,1.06,2.83,1.55
		c0.9,0.5,1.69,1.06,2.36,1.67c0.67,0.61,1.24,1.31,1.64,2.09c0.41,0.79,0.61,1.71,0.61,2.81c0,0.95-0.2,1.82-0.58,2.68
		c-0.38,0.83-0.92,1.58-1.62,2.2c-0.7,0.63-1.53,1.15-2.5,1.51c-0.97,0.38-2.02,0.56-3.19,0.56c-0.43,0-0.81,0-1.1,0
		c-0.31,0-0.61-0.05-0.88-0.09c-0.29-0.05-0.58-0.11-0.88-0.2c-0.29-0.09-0.65-0.23-1.08-0.38c-0.29-0.11-0.61-0.2-0.9-0.31
		c-0.31-0.09-0.58-0.16-0.85-0.23c-0.27-0.07-0.47-0.11-0.65-0.16s-0.29-0.05-0.34-0.05c-0.32,0-0.54,0.09-0.72,0.27
		s-0.31,0.56-0.4,1.15h-0.68v-8.57h0.68c0.16,0.9,0.34,1.69,0.56,2.36c0.22,0.68,0.45,1.24,0.72,1.69c0.27,0.45,0.63,0.86,1.06,1.24
		c0.43,0.38,0.92,0.72,1.44,0.99c0.54,0.27,1.1,0.49,1.73,0.65c0.63,0.16,1.26,0.23,1.91,0.23c0.76,0,1.46-0.11,2.09-0.34
		c0.61-0.23,1.15-0.52,1.58-0.9c0.43-0.38,0.76-0.81,0.99-1.3c0.23-0.49,0.34-1.01,0.34-1.55c0-0.81-0.16-1.46-0.5-2.02
		c-0.34-0.54-0.79-1.04-1.33-1.46c-0.56-0.43-1.22-0.83-1.96-1.24s-1.53-0.83-2.36-1.33c-0.94-0.56-1.85-1.08-2.7-1.57
		c-0.88-0.5-1.64-1.04-2.29-1.64c-0.65-0.61-1.19-1.28-1.6-2.05c-0.41-0.76-0.61-1.67-0.61-2.72c0-0.88,0.18-1.73,0.56-2.52
		s0.88-1.51,1.53-2.12s1.42-1.08,2.32-1.44c0.9-0.36,1.87-0.52,2.92-0.52c1.31,0,2.72,0.32,4.23,0.97c0.67,0.32,1.15,0.47,1.46,0.47
		s0.58-0.09,0.79-0.29c0.2-0.18,0.36-0.58,0.49-1.15h0.67L56.53,234.71z"/>
	<path class="st0" d="M67.96,248.59v7.29c0,1.57,0.18,2.54,0.52,2.93c0.47,0.54,1.17,0.81,2.12,0.81h0.97v0.68H60.83v-0.68h0.94
		c0.52,0,0.97-0.09,1.35-0.25c0.38-0.18,0.7-0.43,0.92-0.76c0.25-0.38,0.36-1.3,0.36-2.72V239.7c0-1.55-0.16-2.54-0.5-2.93
		c-0.47-0.54-1.19-0.81-2.14-0.81h-0.94v-0.68h9.18c2.23,0,3.98,0.23,5.29,0.7c0.63,0.23,1.24,0.54,1.8,0.95
		c0.56,0.38,1.03,0.86,1.46,1.39c0.43,0.54,0.74,1.12,0.99,1.78c0.25,0.65,0.36,1.35,0.36,2.12c0,1.01-0.18,1.96-0.52,2.79
		c-0.34,0.83-0.86,1.57-1.51,2.18c-0.65,0.61-1.46,1.08-2.43,1.42c-0.97,0.34-2.05,0.52-3.29,0.52s-2.63-0.18-4.21-0.52
		L67.96,248.59z M67.96,247.53c0.67,0.11,1.24,0.23,1.75,0.27c0.5,0.07,0.92,0.09,1.28,0.09c0.63,0,1.24-0.13,1.82-0.4
		c0.56-0.27,1.08-0.63,1.48-1.1c0.43-0.47,0.77-1.04,1.01-1.69c0.25-0.65,0.38-1.37,0.38-2.14c0-0.9-0.13-1.73-0.4-2.45
		c-0.27-0.72-0.65-1.33-1.12-1.82c-0.47-0.49-1.03-0.88-1.69-1.12s-1.35-0.38-2.09-0.38c-0.32,0-0.68,0.02-1.08,0.09
		c-0.4,0.05-0.85,0.13-1.33,0.27v10.42L67.96,247.53z"/>
	<path class="st0" d="M106.8,260.31h-6.68l-8.48-11.7c-0.32,0-0.61,0-0.86,0.02c-0.25,0-0.47,0-0.67,0c-0.16,0-0.34,0-0.52,0
		s-0.38,0-0.56-0.02v7.27c0,1.57,0.18,2.54,0.52,2.93c0.47,0.54,1.17,0.81,2.09,0.81h0.97v0.68H81.87v-0.68h0.94
		c1.03,0,1.8-0.34,2.27-1.04c0.25-0.38,0.38-1.28,0.38-2.72v-16.18c0-1.57-0.18-2.54-0.52-2.93c-0.47-0.54-1.19-0.81-2.14-0.81
		h-0.94v-0.68h9.11c2.63,0,4.59,0.2,5.87,0.58c0.63,0.18,1.22,0.47,1.75,0.83c0.54,0.36,1.04,0.81,1.44,1.31
		c0.4,0.49,0.74,1.08,0.97,1.69c0.25,0.63,0.36,1.3,0.36,2c0,0.76-0.11,1.51-0.36,2.16c-0.25,0.68-0.63,1.28-1.12,1.85
		c-0.49,0.56-1.15,1.04-1.93,1.44c-0.76,0.4-1.69,0.72-2.72,0.97l5.17,7.18c1.19,1.67,2.21,2.75,3.04,3.29
		c0.85,0.54,1.96,0.88,3.33,1.04v0.68L106.8,260.31z M89.02,247.44c0.22,0,0.43,0,0.61,0s0.32,0,0.43,0c1.19,0,2.25-0.13,3.15-0.4
		c0.9-0.27,1.67-0.65,2.25-1.15c0.61-0.49,1.06-1.08,1.35-1.75c0.29-0.68,0.45-1.39,0.45-2.18c0-0.79-0.13-1.49-0.38-2.14
		c-0.25-0.65-0.63-1.19-1.1-1.67c-0.47-0.47-1.03-0.83-1.69-1.08c-0.65-0.25-1.37-0.38-2.16-0.38c-0.36,0-0.76,0.02-1.26,0.09
		c-0.47,0.05-1.03,0.13-1.64,0.27v10.42L89.02,247.44z"/>
	<path class="st0" d="M118.12,259.62v0.68h-10.73v-0.68h0.88c1.03,0,1.8-0.29,2.25-0.9c0.29-0.38,0.45-1.33,0.45-2.83V239.7
		c0-0.58,0-1.08-0.04-1.44c-0.02-0.36-0.07-0.68-0.14-0.92c-0.07-0.25-0.16-0.43-0.29-0.56s-0.32-0.27-0.52-0.38
		c-0.54-0.29-1.1-0.45-1.69-0.45h-0.88v-0.68h10.73v0.68h-0.9c-1.03,0-1.78,0.29-2.23,0.9c-0.31,0.38-0.45,1.33-0.45,2.83v16.18
		c0,0.58,0,1.08,0.04,1.44c0.02,0.36,0.07,0.68,0.14,0.9c0.07,0.23,0.16,0.43,0.32,0.56c0.14,0.14,0.31,0.27,0.54,0.4
		c0.52,0.29,1.08,0.45,1.69,0.45h0.9L118.12,259.62z"/>
	<path class="st0" d="M118.54,235.27h6.8l15.3,18.76v-14.42c0-1.53-0.18-2.5-0.52-2.88c-0.47-0.52-1.19-0.76-2.16-0.76h-0.88v-0.68
		h8.71v0.68h-0.88c-1.06,0-1.8,0.31-2.25,0.97c-0.27,0.38-0.4,1.28-0.4,2.7v21.11h-0.68l-16.49-20.16v15.41
		c0,1.53,0.16,2.5,0.5,2.88c0.45,0.52,1.17,0.76,2.16,0.76h0.88v0.68h-8.71v-0.68h0.88c1.08,0,1.82-0.32,2.27-0.97
		c0.27-0.38,0.4-1.28,0.4-2.7v-17.42c-0.36-0.43-0.67-0.76-0.92-1.04c-0.25-0.25-0.47-0.47-0.7-0.63c-0.22-0.16-0.47-0.29-0.72-0.4
		c-0.27-0.11-0.58-0.23-0.97-0.36c-0.36-0.11-0.9-0.16-1.62-0.16v-0.68L118.54,235.27z"/>
	<path class="st0" d="M169.55,234.71l0.65,7.9h-0.65c-0.63-1.96-1.48-3.44-2.52-4.45c-1.51-1.44-3.42-2.16-5.74-2.16
		c-3.19,0-5.6,1.26-7.27,3.78c-1.39,2.14-2.09,4.66-2.09,7.61c0,2.38,0.45,4.57,1.4,6.52c0.4,0.88,0.9,1.67,1.46,2.36
		c0.56,0.7,1.19,1.3,1.89,1.8c0.7,0.49,1.46,0.88,2.27,1.15s1.69,0.4,2.59,0.4c0.9,0,1.82-0.11,2.68-0.36
		c0.85-0.23,1.69-0.58,2.5-1.04v-7.25c0-0.63-0.02-1.15-0.07-1.53c-0.05-0.38-0.11-0.7-0.2-0.92c-0.09-0.23-0.23-0.4-0.36-0.54
		c-0.14-0.14-0.34-0.23-0.52-0.34c-0.38-0.2-1.1-0.32-2.09-0.32v-0.7h9.7v0.7h-0.45c-0.43,0-0.76,0.05-1.08,0.13
		c-0.29,0.09-0.54,0.27-0.72,0.52c-0.18,0.25-0.34,0.63-0.4,1.1c-0.09,0.47-0.13,1.1-0.13,1.89v7.65c-0.74,0.38-1.46,0.72-2.14,1.01
		c-0.7,0.27-1.39,0.49-2.09,0.67c-0.7,0.18-1.44,0.32-2.18,0.4c-0.74,0.09-1.53,0.13-2.36,0.13c-4.84,0-8.51-1.55-11.03-4.66
		c-1.89-2.32-2.83-5.02-2.83-8.06c0-0.86,0.09-1.71,0.25-2.57c0.18-0.86,0.43-1.69,0.74-2.5s0.72-1.6,1.17-2.34
		c0.47-0.74,0.99-1.44,1.58-2.05c1.24-1.37,2.63-2.38,4.21-3.04c1.57-0.65,3.35-0.97,5.29-0.97c0.59,0,1.08,0,1.51,0.07
		c0.43,0.05,0.85,0.11,1.26,0.2s0.83,0.23,1.28,0.36c0.45,0.16,0.99,0.34,1.6,0.56c0.67,0.25,1.15,0.38,1.39,0.38
		c0.25,0,0.43-0.11,0.61-0.32c0.16-0.23,0.27-0.63,0.31-1.26h0.68L169.55,234.71z"/>
	<path class="st0" d="M181.36,236.64v9.83h4.57c0.52,0,0.99-0.05,1.35-0.16c0.36-0.11,0.7-0.27,0.95-0.54
		c0.27-0.25,0.47-0.61,0.61-1.06s0.27-1.01,0.36-1.69h0.68v8.46h-0.68c0-0.63-0.07-1.17-0.18-1.6c-0.11-0.45-0.29-0.81-0.54-1.08
		c-0.25-0.29-0.59-0.5-0.99-0.61c-0.4-0.13-0.92-0.2-1.55-0.2h-4.57v7.85c0,0.58,0,1.08,0.04,1.44c0.02,0.36,0.07,0.68,0.13,0.9
		c0.07,0.23,0.16,0.43,0.32,0.56c0.13,0.14,0.31,0.27,0.54,0.4c0.52,0.29,1.1,0.45,1.69,0.45h0.9v0.68h-10.73v-0.68h0.88
		c1.04,0,1.8-0.29,2.25-0.9c0.29-0.38,0.45-1.33,0.45-2.83V239.7c0-0.58,0-1.08-0.04-1.44c-0.02-0.36-0.07-0.68-0.13-0.92
		c-0.07-0.25-0.16-0.43-0.29-0.56s-0.32-0.27-0.52-0.38c-0.54-0.29-1.1-0.45-1.69-0.45h-0.88v-0.68h18.63v5.49h-0.4
		c-0.25-0.9-0.52-1.62-0.83-2.16c-0.32-0.54-0.68-0.97-1.1-1.26s-0.95-0.49-1.53-0.58c-0.59-0.09-1.28-0.13-2.12-0.13h-5.51
		L181.36,236.64z"/>
	<path class="st0" d="M206.34,259.62v0.68h-10.73v-0.68h0.88c1.06,0,1.8-0.29,2.25-0.9c0.29-0.38,0.45-1.33,0.45-2.83V239.7
		c0-0.58,0-1.08-0.04-1.44c-0.02-0.36-0.07-0.68-0.13-0.92c-0.07-0.25-0.16-0.43-0.29-0.56s-0.32-0.27-0.52-0.38
		c-0.54-0.29-1.1-0.45-1.69-0.45h-0.88v-0.68h10.73v0.68h-0.9c-1.04,0-1.78,0.29-2.23,0.9c-0.32,0.38-0.45,1.33-0.45,2.83v16.18
		c0,0.58,0,1.08,0.04,1.44c0.02,0.36,0.07,0.68,0.13,0.9c0.07,0.23,0.18,0.43,0.32,0.56c0.13,0.14,0.31,0.27,0.54,0.4
		c0.52,0.29,1.08,0.45,1.69,0.45h0.9L206.34,259.62z"/>
	<path class="st0" d="M215.16,236.64v9.9h5.49c0.81,0,1.44-0.07,1.96-0.2c0.5-0.13,0.9-0.36,1.17-0.68
		c0.29-0.29,0.47-0.68,0.59-1.12c0.11-0.45,0.18-0.99,0.22-1.62h0.68v8.71h-0.68c-0.09-0.61-0.18-1.12-0.25-1.51
		c-0.09-0.38-0.18-0.68-0.27-0.83c-0.11-0.23-0.25-0.4-0.43-0.58c-0.18-0.16-0.4-0.32-0.68-0.43c-0.27-0.11-0.61-0.23-0.97-0.27
		c-0.38-0.07-0.83-0.09-1.35-0.09h-5.49v8.26c0,1.1,0.04,1.78,0.16,2.02c0.04,0.11,0.11,0.23,0.18,0.32
		c0.07,0.09,0.18,0.18,0.31,0.25c0.13,0.07,0.32,0.11,0.56,0.16c0.25,0.05,0.52,0.05,0.85,0.05h4.25c0.72,0,1.33,0,1.82-0.07
		c0.49-0.05,0.9-0.11,1.28-0.23c0.38-0.11,0.68-0.25,0.97-0.45c0.27-0.18,0.56-0.43,0.88-0.72c0.38-0.36,0.76-0.83,1.17-1.42
		c0.38-0.58,0.79-1.26,1.17-2.02h0.74l-2.16,6.28h-19.28v-0.68h0.88c0.22,0,0.47-0.02,0.74-0.07s0.49-0.13,0.72-0.25
		c0.22-0.11,0.43-0.25,0.61-0.4c0.18-0.16,0.32-0.36,0.38-0.58c0.16-0.38,0.23-1.19,0.23-2.41v-16.27c0-1.57-0.16-2.54-0.47-2.93
		c-0.45-0.49-1.19-0.74-2.21-0.74h-0.88v-0.68h19.28v5.49h-0.45c-0.13-0.68-0.27-1.21-0.4-1.64s-0.29-0.79-0.47-1.08
		c-0.18-0.29-0.36-0.52-0.58-0.68c-0.23-0.16-0.5-0.31-0.79-0.45c-0.49-0.18-1.37-0.27-2.61-0.27h-6.86L215.16,236.64z"/>
	<path class="st0" d="M252.01,253.38l0.61,0.13l-2.14,6.8h-19.37v-0.68h0.94c1.04,0,1.8-0.34,2.27-1.04
		c0.27-0.38,0.38-1.28,0.38-2.72v-16.15c0-1.57-0.18-2.54-0.52-2.93c-0.47-0.54-1.19-0.81-2.14-0.81h-0.94v-0.68h11.34v0.68
		c-0.68,0-1.24,0.02-1.69,0.09c-0.45,0.07-0.81,0.16-1.1,0.27s-0.52,0.27-0.68,0.43s-0.32,0.34-0.4,0.54
		c-0.2,0.38-0.29,1.33-0.29,2.83v15.73c0,0.43,0,0.81,0.04,1.1c0.02,0.32,0.09,0.56,0.16,0.77c0.07,0.2,0.18,0.36,0.29,0.49
		c0.11,0.13,0.29,0.23,0.47,0.32c0.29,0.11,1.26,0.18,2.88,0.18h1.82c1.91,0,3.26-0.13,4.05-0.43c0.41-0.14,0.76-0.32,1.1-0.56
		c0.34-0.23,0.68-0.54,1.01-0.92c0.32-0.38,0.65-0.86,0.97-1.42c0.32-0.56,0.63-1.21,0.97-2L252.01,253.38z"/>
	<path class="st0" d="M254.08,260.31v-0.68h0.95c1.04,0,1.8-0.34,2.25-1.01c0.27-0.38,0.4-1.31,0.4-2.72v-16.18
		c0-1.57-0.18-2.54-0.52-2.93c-0.47-0.54-1.19-0.81-2.14-0.81h-0.95v-0.68h10.19c3.74,0,6.59,0.43,8.53,1.28
		c1.96,0.86,3.53,2.27,4.7,4.25c1.19,1.98,1.8,4.25,1.8,6.86c0,1.85-0.29,3.56-0.9,5.08c-0.61,1.55-1.49,2.88-2.65,4
		c-1.17,1.12-2.63,1.98-4.39,2.61s-3.78,0.94-6.07,0.94h-11.18L254.08,260.31z M261.22,258.51c1.53,0.34,2.86,0.52,3.94,0.52
		c1.42,0,2.72-0.27,3.94-0.79c1.21-0.52,2.25-1.26,3.15-2.23c0.9-0.97,1.57-2.14,2.09-3.51c0.49-1.37,0.76-2.93,0.76-4.63
		c0-1.71-0.25-3.26-0.74-4.66c-0.49-1.37-1.19-2.54-2.09-3.51s-1.96-1.71-3.2-2.23c-1.24-0.52-2.59-0.76-4.05-0.76
		c-0.56,0-1.15,0.05-1.78,0.13c-0.63,0.09-1.31,0.23-2,0.4v21.29L261.22,258.51z"/>
</g>
<g>
	<g>
		<path class="st1" d="M253.54,63.83H69.25c-0.86,0-1.56,0.7-1.56,1.56v124.18c0,0.86,0.7,1.56,1.56,1.56h184.29
			c0.87,0,1.56-0.7,1.56-1.56V65.39C255.1,64.53,254.41,63.83,253.54,63.83z M134.22,157.13v7.93l-53.35-27.47v-6.21l53.35-27.48
			v7.93l-44.95,22.53v0.24L134.22,157.13z M141.69,169.67l11.32-29.43l0.64-1.67l20.11-52.26h7.82l-15.87,41.09l-4.92,12.73
			l-11.4,29.54H141.69z M242.17,137.7l-53.35,27.36v-7.93l45.3-22.53v-0.24l-45.3-22.53v-7.93l53.35,27.37V137.7z"/>
		<linearGradient id="SVGID_1_" gradientUnits="userSpaceOnUse" x1="66.9064" y1="192.605" x2="246.7824" y2="68.2638">
			<stop  offset="0" style="stop-color:#447EC1"/>
			<stop  offset="0.48" style="stop-color:#536AB2"/>
			<stop  offset="1" style="stop-color:#7758A5"/>
		</linearGradient>
		<path class="st2" d="M244.93,72.76H76.54c-0.98,0-1.77,0.8-1.77,1.78v106.41c0,0.98,0.79,1.78,1.77,1.78h168.39
			c0.98,0,1.77-0.8,1.77-1.78V74.54C246.7,73.56,245.91,72.76,244.93,72.76z M134.22,111.83l-44.95,22.53v0.24l44.95,22.53v7.93
			l-53.35-27.47v-6.21l53.35-27.48V111.83z M165.71,127.4l-4.92,12.73l-11.4,29.54h-7.7l11.32-29.43l0.64-1.67l20.11-52.26h7.82
			L165.71,127.4z M242.17,137.7l-53.35,27.36v-7.93l45.3-22.53v-0.24l-45.3-22.53v-7.93l53.35,27.37V137.7z"/>
	</g>
	<g>
		<polygon class="st3" points="279.75,208.48 39.58,208.48 67.69,194.3 255.08,194.3 		"/>
		<path class="st0" d="M284.74,211.24v10.2c0,0.38-0.29,0.67-0.67,0.67H36.58c-0.38,0-0.67-0.29-0.67-0.67v-10.2
			c0-0.36,0.31-0.67,0.67-0.67h99.36l5.02,5.06h40.15l5.02-5.06h97.92c0.38,0,0.67,0.31,0.67,0.67L284.74,211.24z"/>
	</g>
</g>
<g class="st4">
	<g>
		<path class="st0" d="M235.31,204c0,0.99,2.74,1.79,6.14,1.79c3.4,0,6.14-0.8,6.13-1.79c0-0.99-2.74-1.79-6.14-1.79
			c-0.53,0-1.06,0.03-1.55,0.07l-6.22-2.06c0.53-0.26,0.86-0.57,0.86-0.89c0-0.99-2.74-1.79-6.14-1.79s-6.14,0.8-6.13,1.79
			c0,0.22,0.16,0.42,0.41,0.62l-6.26,1.76c-0.82-0.11-1.68-0.18-2.66-0.18c-3.4,0-6.14,0.8-6.13,1.79c0,0.99,2.74,1.79,6.14,1.79
			s6.14-0.8,6.13-1.79c0-0.21-0.12-0.4-0.37-0.58l6.34-1.78c0.78,0.1,1.64,0.17,2.54,0.17c0.49,0,0.98-0.02,1.47-0.06l6.3,2.08
			c-0.49,0.26-0.82,0.55-0.82,0.87L235.31,204z"/>
		<path class="st0" d="M191.13,204.03c0,0.99,2.74,1.79,6.14,1.79s6.14-0.8,6.13-1.79c0-0.99-2.74-1.79-6.14-1.79
			c-0.53,0-1.06,0.03-1.55,0.07l-6.22-2.06c0.53-0.26,0.86-0.57,0.86-0.89c0-0.99-2.74-1.79-6.14-1.79c-3.4,0-6.14,0.8-6.13,1.79
			c0,0.22,0.16,0.42,0.41,0.62l-6.26,1.76c-0.82-0.11-1.68-0.18-2.66-0.18c-3.4,0-6.14,0.8-6.13,1.79c0,0.99,2.74,1.79,6.14,1.79
			s6.14-0.8,6.13-1.79c0-0.21-0.12-0.4-0.37-0.58l6.34-1.78c0.78,0.1,1.64,0.17,2.54,0.17c0.49,0,0.98-0.02,1.47-0.06l6.3,2.08
			c-0.49,0.26-0.82,0.55-0.82,0.87L191.13,204.03z"/>
		<path class="st0" d="M147,204.05c0,0.99,2.74,1.79,6.14,1.79s6.14-0.8,6.13-1.79c0-0.99-2.74-1.79-6.14-1.79
			c-0.53,0-1.06,0.03-1.55,0.07l-6.22-2.06c0.53-0.26,0.86-0.57,0.86-0.89c0-0.99-2.74-1.79-6.14-1.79c-3.4,0-6.14,0.8-6.13,1.79
			c0,0.22,0.16,0.42,0.41,0.62l-6.26,1.76c-0.82-0.11-1.68-0.18-2.66-0.18c-3.4,0-6.14,0.8-6.13,1.79c0,0.99,2.74,1.79,6.14,1.79
			s6.14-0.8,6.13-1.79c0-0.21-0.12-0.4-0.37-0.58l6.34-1.78c0.78,0.1,1.64,0.17,2.54,0.17c0.49,0,0.98-0.02,1.47-0.06l6.3,2.08
			c-0.49,0.26-0.82,0.55-0.82,0.87L147,204.05z"/>
		<path class="st0" d="M102.82,204.08c0,0.99,2.74,1.79,6.14,1.79s6.14-0.8,6.13-1.79c0-0.99-2.74-1.79-6.14-1.79
			c-0.53,0-1.06,0.03-1.55,0.07l-6.22-2.06c0.53-0.26,0.86-0.57,0.86-0.89c0-0.99-2.74-1.79-6.14-1.79s-6.14,0.8-6.13,1.79
			c0,0.22,0.16,0.42,0.41,0.62l-6.26,1.76c-0.82-0.11-1.68-0.18-2.66-0.18c-3.4,0-6.14,0.8-6.13,1.79c0,0.99,2.74,1.79,6.14,1.79
			s6.14-0.8,6.13-1.79c0-0.21-0.12-0.4-0.37-0.58l6.34-1.78c0.78,0.1,1.64,0.17,2.54,0.17c0.49,0,0.98-0.02,1.47-0.06l6.3,2.08
			c-0.49,0.26-0.82,0.55-0.82,0.87L102.82,204.08z"/>
	</g>
</g>
<path class="st5" d="M176.67,103.36v19.25h-1.5c-0.5-3.7-1.4-6.65-2.65-8.8c-0.65-1.1-1.4-2.1-2.35-2.95
	c-0.95-0.85-1.95-1.6-3.1-2.25c-1.1-0.6-2.3-1.1-3.55-1.45c-1.25-0.35-2.5-0.5-3.75-0.5c-1.4,0-2.7,0.25-3.9,0.7
	c-1.2,0.5-2.25,1.1-3.15,1.9c-0.9,0.8-1.6,1.7-2.05,2.75c-0.5,1.05-0.75,2.1-0.75,3.2c0,1.55,0.35,2.85,1.05,4
	c0.7,1.15,1.7,2.2,2.95,3.15s2.7,1.9,4.4,2.8s3.5,1.85,5.5,2.9c2.2,1.2,4.3,2.35,6.3,3.45s3.75,2.35,5.25,3.7s2.75,2.9,3.65,4.65
	c0.9,1.75,1.35,3.8,1.35,6.25c0,2.1-0.45,4.05-1.3,5.95c-0.85,1.85-2.05,3.5-3.6,4.9s-3.4,2.55-5.55,3.35
	c-2.15,0.85-4.5,1.25-7.1,1.25c-0.95,0-1.8,0-2.45,0c-0.7,0-1.35-0.1-1.95-0.2c-0.65-0.1-1.3-0.25-1.95-0.45s-1.45-0.5-2.4-0.85
	c-0.65-0.25-1.35-0.45-2-0.7c-0.7-0.2-1.3-0.35-1.9-0.5c-0.6-0.15-1.05-0.25-1.45-0.35s-0.65-0.1-0.75-0.1c-0.7,0-1.2,0.2-1.6,0.6
	c-0.4,0.4-0.7,1.25-0.9,2.55h-1.5v-19.05h1.5c0.35,2,0.75,3.75,1.25,5.25s1,2.75,1.6,3.75c0.6,1,1.4,1.9,2.35,2.75s2.05,1.6,3.2,2.2
	c1.2,0.6,2.45,1.1,3.85,1.45c1.4,0.35,2.8,0.5,4.25,0.5c1.7,0,3.25-0.25,4.65-0.75c1.35-0.5,2.55-1.15,3.5-2s1.7-1.8,2.2-2.9
	s0.75-2.25,0.75-3.45c0-1.8-0.35-3.25-1.1-4.5c-0.75-1.2-1.75-2.3-2.95-3.25c-1.25-0.95-2.7-1.85-4.35-2.75
	c-1.65-0.9-3.4-1.85-5.25-2.95c-2.1-1.25-4.1-2.4-6-3.5c-1.95-1.1-3.65-2.3-5.1-3.65s-2.65-2.85-3.55-4.55
	c-0.9-1.7-1.35-3.7-1.35-6.05c0-1.95,0.4-3.85,1.25-5.6c0.85-1.75,1.95-3.35,3.4-4.7s3.15-2.4,5.15-3.2s4.15-1.15,6.5-1.15
	c2.9,0,6.05,0.7,9.4,2.15c1.5,0.7,2.55,1.05,3.25,1.05s1.3-0.2,1.75-0.65c0.45-0.4,0.8-1.3,1.1-2.55h1.5L176.67,103.36z"/>
</svg>
