<?xml version="1.0" encoding="utf-8"?>
<!-- Generator: Adobe Illustrator 27.3.1, SVG Export Plug-In . SVG Version: 6.00 Build 0)  -->
<svg version="1.1" id="Layer_1" xmlns="http://www.w3.org/2000/svg" xmlns:xlink="http://www.w3.org/1999/xlink" x="0px" y="0px"
	 viewBox="0 0 320 320" style="enable-background:new 0 0 320 320;" xml:space="preserve">
<style type="text/css">
	.st0{fill:url(#SVGID_1_);}
	.st1{fill:url(#SVGID_00000024003172130650536670000011831362358721474180_);}
	.st2{fill:url(#SVGID_00000109714428441229388760000016081333202791167919_);}
	.st3{fill:#072844;}
</style>
<g>
	<linearGradient id="SVGID_1_" gradientUnits="userSpaceOnUse" x1="10.9735" y1="159.1605" x2="107.7185" y2="159.1605">
		<stop  offset="0" style="stop-color:#447EC1"/>
		<stop  offset="0.4829" style="stop-color:#5369B1"/>
		<stop  offset="1" style="stop-color:#7657A5"/>
	</linearGradient>
	<path class="st0" d="M107.72,118.09V103.7l-96.74,49.84v11.25l96.74,49.83v-14.38L26.2,159.37v-0.42L107.72,118.09z"/>
	
		<linearGradient id="SVGID_00000099651493271530593840000010822160094623383188_" gradientUnits="userSpaceOnUse" x1="121.2705" y1="147.385" x2="193.6175" y2="147.385">
		<stop  offset="0" style="stop-color:#447EC1"/>
		<stop  offset="0.4829" style="stop-color:#5369B1"/>
		<stop  offset="1" style="stop-color:#7657A5"/>
	</linearGradient>
	<path style="fill:url(#SVGID_00000099651493271530593840000010822160094623383188_);" d="M179.44,71.8l-36.48,94.79l-1.15,3.02
		l-20.54,53.36h13.96l20.69-53.56c-0.81-0.22-1.59-0.52-2.34-0.89c-1.81-0.91-3.26-2.25-4.32-4.04c-1.07-1.78-1.59-3.9-1.59-6.36
		c0-3.74,1.2-6.72,3.6-8.92c2.4-2.21,5.53-3.31,9.4-3.31c1.47,0,2.86,0.13,4.18,0.42l28.78-74.51H179.44z M160.2,147.34
		c-1.85,0-3.5,0.41-4.93,1.23c-1.43,0.82-2.51,2.02-3.23,3.6c-0.73,1.57-1.09,3.32-1.09,5.25c0,1.99,0.38,3.84,1.17,5.55
		c0.78,1.72,1.9,3.05,3.37,4.02c0.36,0.24,0.74,0.44,1.13,0.63l7.57-19.6c-0.51-0.19-1.01-0.33-1.53-0.44
		C161.89,147.41,161.08,147.34,160.2,147.34z"/>
	
		<linearGradient id="SVGID_00000009565347508382981660000016943661191261812644_" gradientUnits="userSpaceOnUse" x1="206.7515" y1="159.1605" x2="303.4965" y2="159.1605">
		<stop  offset="0" style="stop-color:#447EC1"/>
		<stop  offset="0.4829" style="stop-color:#5369B1"/>
		<stop  offset="1" style="stop-color:#7657A5"/>
	</linearGradient>
	<path style="fill:url(#SVGID_00000009565347508382981660000016943661191261812644_);" d="M206.75,103.7v14.39l82.15,40.86v0.42
		l-82.15,40.88v14.38L303.5,165v-11.67L206.75,103.7z"/>
</g>
<g>
	<path class="st3" d="M69.12,158.81c-0.5-0.84-1.14-1.44-1.97-1.83c-0.81-0.38-2.12-0.72-3.92-0.98c-1.31-0.21-2.21-0.38-2.71-0.53
		c-0.48-0.13-0.92-0.35-1.29-0.64c-0.37-0.29-0.68-0.67-0.91-1.17s-0.35-1.06-0.35-1.69c0-0.82,0.2-1.63,0.58-2.42
		c0.38-0.79,0.96-1.36,1.7-1.74c0.75-0.36,1.56-0.55,2.42-0.55c1.03,0,2,0.25,2.88,0.75c0.88,0.5,1.34,0.91,1.39,1.24
		c0.03,0.34,0.07,1.16,0.09,2.45l0.12,0.12h0.79l0.14-0.13c0.04-1.84,0.19-3.26,0.41-4.26l-0.11-0.19c-0.85-0.46-1.79-0.8-2.84-1.03
		c-1.03-0.23-2-0.35-2.88-0.35c-2.22,0-3.99,0.65-5.31,1.95c-1.32,1.29-1.98,2.95-1.98,4.97c0,0.74,0.11,1.44,0.34,2.09
		c0.23,0.66,0.53,1.21,0.91,1.66c0.37,0.45,0.86,0.81,1.42,1.11c0.57,0.29,1.14,0.51,1.72,0.65s1.36,0.3,2.39,0.47
		c1.05,0.18,1.83,0.35,2.35,0.51c0.53,0.15,1,0.4,1.41,0.71c0.42,0.32,0.74,0.75,0.97,1.28c0.22,0.53,0.34,1.14,0.34,1.86
		c0,1.02-0.24,1.94-0.71,2.75c-0.48,0.82-1.14,1.44-2,1.86c-0.86,0.43-1.83,0.64-2.9,0.64c-0.78,0-1.56-0.11-2.32-0.33
		c-0.77-0.21-1.39-0.5-1.85-0.84c-0.46-0.34-0.74-0.66-0.82-0.97c-0.08-0.31-0.15-1.15-0.2-2.54l-0.12-0.13h-0.75l-0.12,0.13
		c-0.05,2.5-0.13,4.09-0.23,4.77l0.09,0.21c1.58,0.79,3.43,1.2,5.53,1.2c2.51,0,4.64-0.77,6.4-2.31c1.76-1.53,2.64-3.45,2.64-5.75
		C69.86,160.65,69.61,159.63,69.12,158.81z"/>
	<path class="st3" d="M87.75,148.53c-0.62-0.84-1.39-1.41-2.31-1.72c-0.92-0.32-2.1-0.47-3.52-0.47c-0.3,0-1.08,0.02-2.33,0.07
		c-1.19,0.05-2.27,0.08-3.21,0.08c-0.7,0-2.33-0.04-4.89-0.12l-0.12,0.11v0.81l0.12,0.11c1.08,0.04,1.76,0.1,2.02,0.18
		c0.28,0.08,0.46,0.18,0.56,0.3c0.1,0.12,0.17,0.35,0.21,0.72c0.05,0.35,0.08,1.14,0.09,2.38l0.03,3.17v7.51l-0.02,3.42
		c-0.01,1.16-0.04,1.9-0.11,2.23c-0.07,0.34-0.15,0.56-0.26,0.66c-0.1,0.1-0.31,0.19-0.63,0.25c-0.32,0.07-0.95,0.12-1.89,0.16
		l-0.12,0.1v0.8l0.12,0.13c2.56-0.09,4.01-0.13,4.36-0.13c0.33,0,1.78,0.04,4.38,0.13l0.12-0.13v-0.8l-0.12-0.1
		c-1.08-0.04-1.76-0.11-2.03-0.19c-0.26-0.09-0.45-0.19-0.55-0.31c-0.1-0.11-0.18-0.35-0.22-0.7c-0.05-0.36-0.09-1.16-0.1-2.38
		l-0.01-3.16v-7.51c0-3.19,0.04-5.2,0.14-6.04c1.1-0.36,2.11-0.55,3.04-0.55c1.7,0,2.97,0.44,3.81,1.32
		c0.84,0.87,1.25,2.05,1.25,3.52c0,1.45-0.41,2.65-1.21,3.59c-0.8,0.93-1.88,1.41-3.2,1.41c-0.48,0-1.1-0.09-1.86-0.27l-0.14,0.17
		l0.26,0.98c0.77,0.15,1.47,0.23,2.1,0.23c0.84,0,1.65-0.13,2.43-0.41c0.78-0.29,1.56-0.74,2.32-1.38s1.35-1.41,1.78-2.32
		c0.42-0.91,0.64-1.85,0.64-2.83C88.67,150.37,88.36,149.37,87.75,148.53z"/>
	<path class="st3" d="M109.98,168.35c-0.36,0-0.64-0.02-0.8-0.05c-0.16-0.03-0.36-0.12-0.59-0.26c-0.24-0.14-0.76-0.78-1.56-1.89
		c-0.8-1.12-1.55-2.19-2.24-3.19l-2.17-3.06c-0.74-1.03-1.25-1.76-1.54-2.19c1.53-0.31,2.74-0.78,3.61-1.4
		c0.88-0.63,1.54-1.38,1.98-2.24c0.45-0.88,0.67-1.77,0.67-2.68c0-1.36-0.45-2.54-1.36-3.53c-0.92-1-2.66-1.5-5.22-1.5
		c-0.33,0-0.85,0.01-1.57,0.03c-1.95,0.08-3.5,0.11-4.64,0.11c-1.03,0-2.49-0.04-4.34-0.12l-0.12,0.11v0.81l0.12,0.11
		c1.08,0.04,1.75,0.1,2.02,0.18c0.27,0.08,0.46,0.18,0.56,0.3c0.1,0.12,0.17,0.35,0.21,0.72c0.04,0.35,0.08,1.14,0.09,2.38
		l0.03,3.17v7.51l-0.02,3.42c-0.01,1.16-0.04,1.9-0.11,2.23c-0.07,0.34-0.15,0.56-0.26,0.66c-0.1,0.1-0.31,0.19-0.63,0.25
		c-0.32,0.07-0.95,0.12-1.89,0.16l-0.12,0.1v0.8l0.12,0.13c2.6-0.09,4.05-0.13,4.36-0.13c0.41,0,0.97,0.01,1.69,0.03
		c1.74,0.07,2.63,0.1,2.68,0.1l0.12-0.13v-0.8l-0.12-0.1c-1.08-0.04-1.76-0.11-2.03-0.19c-0.28-0.09-0.45-0.19-0.55-0.31
		c-0.1-0.11-0.18-0.35-0.22-0.7c-0.05-0.36-0.09-1.16-0.09-2.38L96,161.65v-7.51c0-3.82,0.08-5.84,0.23-6.08
		c0.95-0.32,1.95-0.47,3.01-0.47c1.52,0,2.73,0.36,3.62,1.1c0.9,0.73,1.34,1.8,1.34,3.23c0,1.58-0.5,2.84-1.49,3.73
		c-1,0.9-2.38,1.34-4.14,1.34c-0.29,0-0.7-0.01-1.23-0.04l-0.14,0.51c1.83,2.21,3.61,4.62,5.36,7.22c1.5,2.23,2.61,3.82,3.3,4.72
		c0.86-0.07,1.64-0.1,2.37-0.1c0.67,0,1.24,0.03,1.74,0.1l0.13-0.14v-0.76L109.98,168.35z"/>
	<path class="st3" d="M117,150.4c0-0.78,0.03-1.39,0.09-1.83c0.05-0.44,0.17-0.71,0.34-0.84c0.18-0.12,0.45-0.2,0.82-0.24
		c0.39-0.04,0.92-0.08,1.63-0.1l0.12-0.11v-0.81l-0.12-0.11c-2.57,0.08-4.03,0.12-4.38,0.12c-0.38,0-1.2-0.02-2.44-0.07l-1.9-0.06
		l-0.13,0.11v0.81l0.13,0.11c1.07,0.04,1.75,0.1,2.02,0.18s0.45,0.18,0.55,0.3c0.1,0.12,0.17,0.35,0.22,0.72
		c0.04,0.35,0.07,1.14,0.08,2.38l0.03,3.17v7.51l-0.01,3.42c-0.01,1.16-0.05,1.9-0.12,2.23c-0.07,0.34-0.15,0.56-0.25,0.66
		c-0.11,0.1-0.32,0.19-0.64,0.25c-0.31,0.07-0.95,0.12-1.88,0.16l-0.13,0.1v0.8l0.13,0.13c2.59-0.09,4.04-0.13,4.35-0.13
		c0.41,0,0.98,0.01,1.69,0.03c1.74,0.07,2.63,0.1,2.68,0.1l0.12-0.13v-0.8l-0.12-0.1c-1.08-0.04-1.75-0.11-2.02-0.19
		c-0.28-0.09-0.46-0.19-0.56-0.31c-0.1-0.11-0.16-0.35-0.22-0.7c-0.05-0.36-0.08-1.16-0.09-2.38l-0.02-3.16v-7.51L117,150.4z"/>
	<path class="st3" d="M145.51,146.41c-0.64,0.05-1.64,0.08-3.04,0.08c-1.52,0-2.7-0.02-3.52-0.08l-0.12,0.14v0.75l0.12,0.13
		c0.6,0.01,1.08,0.04,1.43,0.1c0.35,0.07,0.58,0.15,0.72,0.27c0.12,0.12,0.21,0.35,0.26,0.68c0.05,0.34,0.1,1.15,0.13,2.42
		c0.03,1.28,0.05,2.1,0.05,2.5v12.55c-0.9-1.03-1.77-2.13-2.64-3.29l-7.14-9.54l-4.86-6.72c-0.66,0.05-1.5,0.08-2.53,0.08
		c-0.43,0-1.35-0.02-2.75-0.08l-0.12,0.14v0.77l0.12,0.12c0.78,0.01,1.33,0.05,1.66,0.12c0.32,0.08,0.58,0.24,0.77,0.51
		c0.19,0.26,0.28,0.67,0.28,1.22v13.11c0,0.51-0.01,1.35-0.05,2.53c-0.03,1.18-0.07,1.94-0.1,2.28c-0.03,0.33-0.11,0.57-0.22,0.73
		c-0.1,0.15-0.34,0.25-0.71,0.32c-0.36,0.07-0.86,0.11-1.49,0.12l-0.13,0.13v0.74l0.13,0.15c1.14-0.08,2.46-0.12,3.98-0.12
		c1.18,0,2.02,0.04,2.55,0.12l0.12-0.13v-0.76l-0.12-0.13c-0.84-0.01-1.4-0.07-1.66-0.15c-0.28-0.08-0.45-0.18-0.53-0.28
		c-0.08-0.11-0.14-0.3-0.2-0.56c-0.05-0.27-0.1-1.05-0.13-2.32c-0.03-1.28-0.05-2.17-0.05-2.66v-12.44l10.33,13.74l3.25,4.21
		l1.08,1.36c0.55,0.12,1.02,0.23,1.43,0.33c0.52,0.13,0.92,0.25,1.21,0.35c-0.02-1.12-0.03-2.25-0.05-3.38
		c0-0.34-0.01-0.67-0.01-1.01l-0.01-4.47v-7.7c0-0.53,0.01-1.38,0.04-2.55c0.04-1.18,0.08-1.93,0.11-2.23
		c0.03-0.32,0.1-0.56,0.19-0.72c0.1-0.17,0.33-0.29,0.69-0.35s0.88-0.11,1.55-0.12l0.12-0.13v-0.75L145.51,146.41z"/>
	<path class="st3" d="M169.34,160.32c-1.12,0.07-1.97,0.1-2.54,0.1c-1,0-2.31-0.03-3.9-0.09l-0.92-0.03l-0.13,0.15v0.7l0.13,0.15
		c1.33,0.02,2.2,0.08,2.6,0.15c0.41,0.09,0.65,0.24,0.76,0.45c0.1,0.21,0.14,0.75,0.14,1.6v1.8c0,1.05-0.04,1.75-0.13,2.09
		c-0.57,0.33-1.3,0.58-2.17,0.76c-0.88,0.18-1.74,0.26-2.58,0.26c-1.45,0-2.78-0.28-3.97-0.81l-0.69,1.8
		c1.18,0.32,2.44,0.47,3.76,0.47c2.94,0,5.8-0.57,8.58-1.7l0.09-0.16c-0.11-1.1-0.17-2.12-0.17-3.06c0-0.84,0.02-1.54,0.07-2.12
		c0.04-0.58,0.09-0.9,0.11-0.97c0.03-0.07,0.14-0.15,0.33-0.27l0.74-0.46l0.07-0.2v-0.48L169.34,160.32z M166.34,149.06
		c0.19,0.15,0.3,0.29,0.33,0.39c0.03,0.1,0.07,0.43,0.1,0.99l0.08,1.72l0.12,0.13h0.7l0.12-0.12c0.24-2.31,0.45-3.83,0.64-4.55
		l-0.11-0.18c-1.09-0.5-2.25-0.87-3.48-1.12l-0.66,1.69c0.25,0.09,0.5,0.2,0.75,0.31C165.69,148.66,166.16,148.91,166.34,149.06z"/>
	<path class="st3" d="M186.27,146.37c-2.53,0.06-5,0.09-7.43,0.09c-0.73,0-3.23-0.03-7.53-0.09l-0.12,0.11v0.81l0.12,0.11
		c1.08,0.04,1.75,0.1,2.02,0.18c0.27,0.08,0.46,0.18,0.55,0.3c0.1,0.12,0.18,0.35,0.22,0.72c0.04,0.35,0.07,1.14,0.08,2.38
		l0.03,3.17v7.51l-0.01,3.45c-0.01,1.14-0.05,1.88-0.12,2.2c-0.07,0.33-0.15,0.55-0.25,0.65c-0.11,0.11-0.32,0.2-0.63,0.26
		c-0.31,0.07-0.95,0.12-1.89,0.16l-0.12,0.1v0.8l0.12,0.13c2.57-0.09,4.03-0.13,4.36-0.13s1.79,0.04,4.37,0.13l0.12-0.13v-0.8
		l-0.12-0.1c-1.08-0.04-1.75-0.11-2.02-0.19c-0.28-0.09-0.46-0.19-0.56-0.3c-0.1-0.11-0.16-0.36-0.22-0.75
		c-0.04-0.37-0.08-1.17-0.09-2.34l-0.02-3.16v-3.3c0.53-0.03,1.3-0.04,2.32-0.04c1.15,0,2.01,0.03,2.57,0.1
		c0.56,0.07,0.91,0.13,1.08,0.21c0.17,0.08,0.28,0.24,0.35,0.48c0.07,0.25,0.12,0.65,0.15,1.19l0.05,1.38l0.11,0.13h0.76l0.14-0.13
		c0-0.48-0.02-1.18-0.07-2.06c-0.03-0.78-0.04-1.38-0.04-1.78l0.11-3.55l-0.12-0.15h-0.78l-0.11,0.13l-0.09,0.88
		c-0.07,0.6-0.12,1-0.19,1.18c-0.07,0.18-0.17,0.3-0.29,0.36s-0.5,0.13-1.11,0.2c-0.62,0.08-1.36,0.11-2.22,0.11
		c-0.46,0-1.34-0.01-2.64-0.03v-2.81c0-3.27,0.07-5.32,0.18-6.16c1.11-0.13,2.09-0.2,2.93-0.2c1.85,0,3.31,0.19,4.37,0.56
		c0.11,0.51,0.19,1.05,0.24,1.64c0.07,0.76,0.12,1.18,0.13,1.25l0.11,0.13h0.72l0.12-0.13c0.07-1.25,0.12-2.22,0.18-2.92
		c0.04-0.68,0.15-1.3,0.32-1.84L186.27,146.37z"/>
	<path class="st3" d="M194.57,150.4c0-0.78,0.02-1.39,0.08-1.83c0.07-0.44,0.18-0.71,0.35-0.84c0.16-0.12,0.44-0.2,0.82-0.24
		c0.38-0.04,0.92-0.08,1.62-0.1l0.13-0.11v-0.81l-0.13-0.11c-2.56,0.08-4.01,0.12-4.37,0.12c-0.39,0-1.2-0.02-2.45-0.07l-1.9-0.06
		l-0.12,0.11v0.81l0.12,0.11c1.08,0.04,1.76,0.1,2.02,0.18c0.28,0.08,0.46,0.18,0.56,0.3c0.1,0.12,0.16,0.35,0.21,0.72
		c0.04,0.35,0.08,1.14,0.09,2.38l0.03,3.17v7.51l-0.02,3.42c-0.01,1.16-0.04,1.9-0.11,2.23c-0.07,0.34-0.15,0.56-0.26,0.66
		c-0.1,0.1-0.31,0.19-0.63,0.25c-0.32,0.07-0.95,0.12-1.89,0.16l-0.12,0.1v0.8l0.12,0.13c2.6-0.09,4.05-0.13,4.36-0.13
		c0.41,0,0.97,0.01,1.69,0.03c1.74,0.07,2.63,0.1,2.67,0.1l0.13-0.13v-0.8l-0.13-0.1c-1.07-0.04-1.75-0.11-2.02-0.19
		c-0.27-0.09-0.45-0.19-0.55-0.31c-0.1-0.11-0.18-0.35-0.22-0.7c-0.05-0.36-0.09-1.16-0.1-2.38l-0.01-3.16v-7.51L194.57,150.4z"/>
	<path class="st3" d="M215.96,163.77h-0.74l-0.15,0.11c-0.02,0.23-0.14,0.79-0.35,1.69s-0.36,1.48-0.45,1.73
		c-0.56,0.25-1.14,0.41-1.77,0.47c-0.62,0.07-2.16,0.1-4.63,0.1h-2.79c-0.05-1.07-0.08-2.74-0.08-5.02c0-2.11,0.02-3.63,0.08-4.54
		c1.21-0.06,2.1-0.08,2.7-0.08c1.07,0,1.9,0.03,2.51,0.1c0.62,0.07,0.99,0.15,1.13,0.25c0.15,0.11,0.24,0.24,0.29,0.38
		c0.04,0.14,0.11,0.59,0.2,1.35l0.11,0.98l0.12,0.13h0.69l0.12-0.13l-0.07-3.65c0.02-1.19,0.05-2.38,0.07-3.55l-0.12-0.13h-0.69
		L212,154.1l-0.07,1c-0.04,0.52-0.09,0.87-0.14,1.07c-0.05,0.2-0.13,0.33-0.24,0.41c-0.11,0.07-0.47,0.13-1.11,0.2
		c-0.63,0.07-1.41,0.1-2.34,0.1c-0.92,0-1.94-0.03-3.02-0.1l0.04-3.29l0.04-2.97l0.07-2.6c1.24-0.12,2.27-0.18,3.07-0.18
		c0.57,0,1.42,0.04,2.55,0.13c1.13,0.1,2.02,0.3,2.66,0.59c0.13,0.84,0.2,1.72,0.2,2.63c0,0.08-0.01,0.16-0.02,0.26l0.14,0.13h0.75
		l0.09-0.13c0.12-2.22,0.31-3.85,0.56-4.88l-0.08-0.11c-2.6,0.06-5.57,0.09-8.89,0.09c-0.98,0-3.2-0.03-6.69-0.09l-0.12,0.11v0.81
		l0.12,0.11l1.16,0.1c0.35,0.04,0.6,0.09,0.76,0.15c0.14,0.05,0.25,0.13,0.32,0.22c0.07,0.09,0.12,0.23,0.18,0.45
		c0.04,0.22,0.09,0.57,0.1,1.08c0.02,0.51,0.03,1.15,0.03,1.96l0.02,3.68V161c0,0.95-0.03,2.33-0.09,4.14
		c-0.05,1.82-0.13,2.76-0.21,2.85c-0.09,0.08-0.43,0.28-1.03,0.6l-0.12,0.17v0.53l0.12,0.13c1.04-0.09,2.06-0.13,3.01-0.13
		l4.15,0.03c3.14,0,5.68,0.03,7.61,0.1l0.11-0.13c0-0.81,0.04-1.8,0.12-2.97c0.09-1.15,0.18-1.97,0.28-2.43L215.96,163.77z"/>
	<path class="st3" d="M235.2,163.63h-0.75l-0.13,0.12c-0.01,0.15-0.12,0.71-0.33,1.69c-0.21,0.97-0.36,1.6-0.47,1.86
		c-0.57,0.25-1.17,0.41-1.78,0.47c-0.61,0.07-2.16,0.1-4.63,0.1h-3.11l-0.07-2.81c-0.02-0.71-0.03-1.97-0.03-3.76v-7.17l0.03-3.73
		c0-0.78,0.02-1.39,0.08-1.83c0.05-0.44,0.18-0.71,0.34-0.84c0.18-0.12,0.45-0.2,0.84-0.24c0.37-0.04,0.92-0.08,1.62-0.1l0.12-0.11
		v-0.81l-0.12-0.11c-2.56,0.08-4.03,0.12-4.37,0.12c-0.38,0-1.84-0.04-4.36-0.12l-0.12,0.11v0.81l0.12,0.11
		c1.08,0.04,1.75,0.1,2.02,0.18c0.28,0.08,0.46,0.18,0.56,0.3c0.09,0.12,0.16,0.35,0.21,0.72c0.04,0.35,0.08,1.14,0.09,2.38
		l0.02,3.17v6.96c0,1.86-0.03,3.44-0.1,4.76c-0.07,1.32-0.12,2.02-0.19,2.09c-0.07,0.08-0.41,0.29-1.03,0.64l-0.12,0.17v0.53
		l0.12,0.13c1.06-0.09,2.09-0.13,3.1-0.13l4.45,0.03c3.14,0,5.67,0.03,7.59,0.1l0.12-0.13c0-0.77,0.04-1.77,0.13-3.01
		c0.09-1.24,0.18-2.08,0.25-2.52L235.2,163.63z"/>
	<path class="st3" d="M258.5,152.54c-0.53-1.33-1.29-2.49-2.3-3.49c-1.01-1-2.17-1.7-3.47-2.11c-1.3-0.41-2.97-0.6-4.99-0.6
		l-7.13,0.15c-0.64,0-1.84-0.04-3.6-0.12l-0.12,0.11v0.81l0.12,0.11l1.15,0.1c0.36,0.04,0.6,0.09,0.76,0.15
		c0.14,0.05,0.25,0.13,0.32,0.22c0.07,0.09,0.12,0.23,0.18,0.45c0.04,0.22,0.09,0.57,0.1,1.08c0.02,0.51,0.03,1.15,0.03,1.96
		l0.02,3.68V161c0,0.95-0.03,2.33-0.09,4.14c-0.05,1.82-0.13,2.76-0.21,2.85c-0.09,0.08-0.43,0.28-1.03,0.6l-0.12,0.17v0.53
		l0.12,0.13c1-0.09,1.85-0.13,2.54-0.13c0.24,0,0.72,0.01,1.43,0.03c2.2,0.07,3.7,0.1,4.49,0.1c1.18,0,2.32-0.12,3.45-0.35
		c1.12-0.23,2.24-0.69,3.37-1.39c1.12-0.69,2.12-1.59,3-2.73c0.88-1.13,1.56-2.41,2.03-3.84c0.47-1.43,0.72-2.87,0.72-4.33
		C259.28,155.28,259.01,153.86,258.5,152.54z M254.95,162.96c-0.7,1.66-1.76,2.9-3.18,3.75c-1.42,0.85-3.3,1.26-5.66,1.26
		c-1.35,0-2.55-0.11-3.59-0.33c-0.06-1.56-0.09-2.82-0.09-3.74l-0.03-4.77v-5.09c0-2.22,0.04-4.22,0.12-6.01
		c1.26-0.21,2.57-0.32,3.93-0.32c3.3,0,5.72,0.85,7.25,2.53c1.54,1.68,2.3,4.06,2.3,7.12C256,159.44,255.66,161.31,254.95,162.96z"
		/>
</g>
</svg>
