<?xml version="1.0" encoding="utf-8"?>
<!-- Generator: Adobe Illustrator 27.3.1, SVG Export Plug-In . SVG Version: 6.00 Build 0)  -->
<svg version="1.1" id="Layer_1" xmlns="http://www.w3.org/2000/svg" xmlns:xlink="http://www.w3.org/1999/xlink" x="0px" y="0px"
	 viewBox="0 0 320 320" style="enable-background:new 0 0 320 320;" xml:space="preserve">
<style type="text/css">
	.st0{fill:#0E2648;}
	.st1{fill:url(#SVGID_1_);}
	.st2{fill:#A1B8C7;}
	.st3{fill:#072844;}
	.st4{opacity:0.38;}
</style>
<g>
	<g>
		<path class="st0" d="M264.57,64.64H59.71c-0.36,0-0.65,0.29-0.65,0.64v138.75c0,0.35,0.29,0.64,0.65,0.64h204.86
			c0.35,0,0.64-0.29,0.64-0.64V65.28C265.21,64.93,264.92,64.64,264.57,64.64z M138.68,154.81l0.47,0.46c0.19,5,0.46,8.06,0.79,9.17
			c0.33,1.12,1.38,2.29,3.16,3.52c1.26,0.87,2.82,1.64,4.67,2.28c0.76,0.27,1.56,0.51,2.42,0.74c1.81,0.48,3.64,0.81,5.48,1
			c1.15,0.11,2.3,0.17,3.46,0.17c2.33,0,4.53-0.24,6.59-0.73c1.6-0.37,3.13-0.89,4.57-1.56c1.27-0.58,2.43-1.27,3.48-2.07
			c1.69-1.28,3.09-2.82,4.22-4.64c1.84-2.94,2.76-6.25,2.76-9.93c0-0.22,0-0.44-0.01-0.66c-0.07-2.3-0.51-4.33-1.31-6.08
			c-0.29-0.63-0.61-1.21-0.98-1.75c-0.74-1.12-1.65-2.07-2.71-2.84c-0.59-0.43-1.21-0.82-1.86-1.18c-1.1-0.58-2.29-1.05-3.56-1.4
			c-1.3-0.36-3.01-0.75-5.12-1.15c-1.19-0.22-2.51-0.45-3.96-0.7c-3.91-0.62-6.97-1.19-9.17-1.7c-2.21-0.51-4.41-1.29-6.6-2.34
			c-2.18-1.06-4.01-2.39-5.47-4.02c-1.47-1.62-2.64-3.61-3.52-5.97s-1.32-4.89-1.32-7.59c0-7.3,2.54-13.29,7.62-17.96
			c0.38-0.35,0.77-0.69,1.17-1.01c0.88-0.71,1.81-1.36,2.78-1.94c4.49-2.7,9.99-4.05,16.5-4.05c3.4,0,7.1,0.42,11.1,1.26
			c0.92,0.19,1.81,0.4,2.69,0.64c2.4,0.64,4.66,1.43,6.77,2.39c0.5,0.22,0.99,0.45,1.47,0.69l0.41,0.7
			c-0.86,3.6-1.39,8.71-1.58,15.35l-0.53,0.47h-3.05l-0.47-0.41c-0.07-4.68-0.19-7.63-0.35-8.84c-0.13-1.07-1.53-2.37-4.19-3.89
			c-0.36-0.21-0.74-0.42-1.14-0.63c-1.07-0.56-2.17-1.04-3.3-1.43c-0.01,0-0.01,0-0.02,0c-2.45-0.84-5.03-1.26-7.75-1.26
			c-3.32,0-6.43,0.66-9.32,1.99c-0.02,0.01-0.05,0.02-0.07,0.03c-2.72,1.27-4.82,3.22-6.26,5.85c-0.09,0.13-0.16,0.26-0.23,0.39
			c-1.49,2.85-2.23,5.76-2.23,8.73c0,0.74,0.05,1.45,0.14,2.13c0.16,1.23,0.48,2.37,0.94,3.41c0.08,0.2,0.17,0.39,0.27,0.58
			c0.9,1.78,2.06,3.19,3.49,4.22c1.42,1.04,3.08,1.81,4.98,2.32c1.89,0.51,5.36,1.13,10.4,1.87c0.53,0.07,1.04,0.15,1.55,0.23
			c3.44,0.52,6.37,1.1,8.79,1.73c1.89,0.5,3.47,1.03,4.74,1.59c3.15,1.38,5.67,3.58,7.56,6.59c1.9,3.01,2.84,6.64,2.84,10.9
			c0,8.32-3.38,15.25-10.16,20.8c-1.24,1.02-2.53,1.94-3.87,2.77c-1.03,0.64-2.09,1.23-3.18,1.75c-5.21,2.54-11.07,3.8-17.59,3.8
			c-3.82,0-7.43-0.32-10.8-0.98c-2.81-0.53-5.46-1.29-7.95-2.28c-0.86-0.33-1.7-0.69-2.52-1.08l-0.35-0.76
			c0.39-2.46,0.68-8.2,0.88-17.23l0.47-0.46H138.68z"/>
		<linearGradient id="SVGID_1_" gradientUnits="userSpaceOnUse" x1="57.7671" y1="63.2894" x2="256.4696" y2="200.6533">
			<stop  offset="0" style="stop-color:#447EC1"/>
			<stop  offset="0.4829" style="stop-color:#5369B1"/>
			<stop  offset="1" style="stop-color:#7657A5"/>
		</linearGradient>
		<path class="st1" d="M255.23,74.45H67.6c-0.41,0-0.74,0.34-0.74,0.75v119.49c0,0.41,0.33,0.74,0.74,0.74h187.63
			c0.41,0,0.74-0.33,0.74-0.74V75.2C255.97,74.79,255.64,74.45,255.23,74.45z M180.72,169.28c-1.24,1.02-2.53,1.94-3.87,2.77
			c-1.03,0.64-2.09,1.23-3.18,1.75c-5.21,2.54-11.07,3.8-17.59,3.8c-3.82,0-7.43-0.32-10.8-0.98c-2.81-0.53-5.46-1.29-7.95-2.28
			c-0.86-0.33-1.7-0.69-2.52-1.08l-0.35-0.76c0.39-2.46,0.68-8.2,0.88-17.23l0.47-0.46h2.87l0.47,0.46c0.19,5,0.46,8.06,0.79,9.17
			c0.33,1.12,1.38,2.29,3.16,3.52c1.26,0.87,2.82,1.64,4.67,2.28c0.76,0.27,1.56,0.51,2.42,0.74c1.81,0.48,3.64,0.81,5.48,1
			c1.15,0.11,2.3,0.17,3.46,0.17c2.33,0,4.53-0.24,6.59-0.73c1.6-0.37,3.13-0.89,4.57-1.56c1.27-0.58,2.43-1.27,3.48-2.07
			c1.69-1.28,3.09-2.82,4.22-4.64c1.84-2.94,2.76-6.25,2.76-9.93c0-0.22,0-0.44-0.01-0.66c-0.07-2.3-0.51-4.33-1.31-6.08
			c-0.29-0.63-0.61-1.21-0.98-1.75c-0.74-1.12-1.65-2.07-2.71-2.84c-0.59-0.43-1.21-0.82-1.86-1.18c-1.1-0.58-2.29-1.05-3.56-1.4
			c-1.3-0.36-3.01-0.75-5.12-1.15c-1.19-0.22-2.51-0.45-3.96-0.7c-3.91-0.62-6.97-1.19-9.17-1.7c-2.21-0.51-4.41-1.29-6.6-2.34
			c-2.18-1.06-4.01-2.39-5.47-4.02c-1.47-1.62-2.64-3.61-3.52-5.97s-1.32-4.89-1.32-7.59c0-7.3,2.54-13.29,7.62-17.96
			c0.38-0.35,0.77-0.69,1.17-1.01c0.88-0.71,1.81-1.36,2.78-1.94c4.49-2.7,9.99-4.05,16.5-4.05c3.4,0,7.1,0.42,11.1,1.26
			c0.92,0.19,1.81,0.4,2.69,0.64c2.4,0.64,4.66,1.43,6.77,2.39c0.5,0.22,0.99,0.45,1.47,0.69l0.41,0.7
			c-0.86,3.6-1.39,8.71-1.58,15.35l-0.53,0.47h-3.05l-0.47-0.41c-0.07-4.68-0.19-7.63-0.35-8.84c-0.13-1.07-1.53-2.37-4.19-3.89
			c-0.36-0.21-0.74-0.42-1.14-0.63c-1.07-0.56-2.17-1.04-3.3-1.43c-0.01,0-0.01,0-0.02,0c-2.45-0.84-5.03-1.26-7.75-1.26
			c-3.32,0-6.43,0.66-9.32,1.99c-0.02,0.01-0.05,0.02-0.07,0.03c-2.72,1.27-4.82,3.22-6.26,5.85c-0.09,0.13-0.16,0.26-0.23,0.39
			c-1.49,2.85-2.23,5.76-2.23,8.73c0,0.74,0.05,1.45,0.14,2.13c0.16,1.23,0.48,2.37,0.94,3.41c0.08,0.2,0.17,0.39,0.27,0.58
			c0.9,1.78,2.06,3.19,3.49,4.22c1.42,1.04,3.08,1.81,4.98,2.32c1.89,0.51,5.36,1.13,10.4,1.87c0.53,0.07,1.04,0.15,1.55,0.23
			c3.44,0.52,6.37,1.1,8.79,1.73c1.89,0.5,3.47,1.03,4.74,1.59c3.15,1.38,5.67,3.58,7.56,6.59c1.9,3.01,2.84,6.64,2.84,10.9
			C190.88,156.8,187.5,163.73,180.72,169.28z"/>
	</g>
	<g>
		<polygon class="st2" points="292.35,223.73 28.17,223.73 59.06,208.14 265.21,208.14 		"/>
		<path class="st3" d="M297.84,226.77V238c0,0.41-0.33,0.74-0.74,0.74H24.87c-0.41,0-0.75-0.33-0.75-0.74v-11.23
			c0-0.4,0.34-0.74,0.75-0.74h109.3l5.52,5.57h44.17l5.52-5.57H297.1C297.51,226.04,297.84,226.37,297.84,226.77z"/>
	</g>
</g>
<g class="st4">
	<g>
		<path class="st3" d="M95.8,87.21c2.61,0,4.72-1.77,4.72-3.95c0-2.18-2.11-3.95-4.72-3.95c-2.61,0-4.72,1.77-4.72,3.95
			c0,0.35,0.07,0.68,0.17,1.01l-5.44,4.02c-0.7-0.34-1.5-0.55-2.36-0.55c-2.61,0-4.72,1.77-4.72,3.95c0,2.18,2.11,3.95,4.72,3.95
			c0.57,0,1.12-0.1,1.62-0.25l4.64,4.05c-0.3,0.52-0.48,1.09-0.48,1.7c0,2.18,2.11,3.95,4.72,3.95c2.61,0,4.72-1.77,4.72-3.95
			c0-2.18-2.11-3.95-4.72-3.95c-0.54,0-1.05,0.09-1.54,0.23l-4.69-4.09c0.28-0.5,0.44-1.05,0.44-1.64c0-0.33-0.06-0.64-0.15-0.94
			l5.49-4.06C94.19,87.01,94.96,87.21,95.8,87.21z"/>
		<path class="st3" d="M124.38,87.21c2.61,0,4.72-1.77,4.72-3.95c0-2.18-2.11-3.95-4.72-3.95s-4.72,1.77-4.72,3.95
			c0,0.35,0.07,0.68,0.17,1.01l-5.44,4.02c-0.7-0.34-1.5-0.55-2.36-0.55c-2.61,0-4.72,1.77-4.72,3.95c0,2.18,2.11,3.95,4.72,3.95
			c0.57,0,1.12-0.1,1.62-0.25l4.64,4.05c-0.3,0.52-0.48,1.09-0.48,1.7c0,2.18,2.11,3.95,4.72,3.95c2.61,0,4.72-1.77,4.72-3.95
			c0-2.18-2.11-3.95-4.72-3.95c-0.54,0-1.05,0.09-1.54,0.23l-4.69-4.09c0.28-0.5,0.44-1.05,0.44-1.64c0-0.33-0.06-0.64-0.15-0.94
			l5.49-4.06C122.77,87.01,123.55,87.21,124.38,87.21z"/>
		<path class="st3" d="M155.85,101.13c0,2.18-2.12,3.95-4.73,3.95c-1.37,0-2.61-0.49-3.48-1.29c1.44-2.63,3.54-4.58,6.26-5.85
			C155.08,98.66,155.85,99.82,155.85,101.13z"/>
		<path class="st3" d="M157.69,83.26c0,2.18-2.12,3.95-4.72,3.95c-0.84,0-1.61-0.2-2.29-0.52l-5.49,4.06
			c0.09,0.3,0.15,0.61,0.15,0.94c0,0.58-0.17,1.14-0.44,1.64l1.83,1.6c-0.97,0.58-1.9,1.23-2.78,1.94l-1.71-1.49
			c-0.51,0.16-1.05,0.25-1.63,0.25c-2.61,0-4.72-1.76-4.72-3.94s2.11-3.95,4.72-3.95c0.87,0,1.67,0.21,2.36,0.55l5.45-4.03
			c-0.11-0.32-0.18-0.65-0.18-1c0-2.18,2.12-3.95,4.73-3.95C155.57,79.31,157.69,81.08,157.69,83.26z"/>
		<path class="st3" d="M226.37,87.21c-2.61,0-4.72-1.77-4.72-3.95c0-2.18,2.11-3.95,4.72-3.95c2.61,0,4.72,1.77,4.72,3.95
			c0,0.35-0.07,0.68-0.17,1.01l5.44,4.02c0.7-0.34,1.5-0.55,2.36-0.55c2.61,0,4.72,1.77,4.72,3.95c0,2.18-2.11,3.95-4.72,3.95
			c-0.57,0-1.12-0.1-1.62-0.25l-4.64,4.05c0.3,0.52,0.48,1.09,0.48,1.7c0,2.18-2.11,3.95-4.72,3.95c-2.61,0-4.72-1.77-4.72-3.95
			c0-2.18,2.11-3.95,4.72-3.95c0.54,0,1.05,0.09,1.54,0.23l4.69-4.09c-0.28-0.5-0.44-1.05-0.44-1.64c0-0.33,0.06-0.64,0.15-0.94
			l-5.49-4.06C227.98,87.01,227.2,87.21,226.37,87.21z"/>
		<path class="st3" d="M197.78,87.21c-2.61,0-4.72-1.77-4.72-3.95c0-2.18,2.11-3.95,4.72-3.95c2.61,0,4.72,1.77,4.72,3.95
			c0,0.35-0.07,0.68-0.17,1.01l5.44,4.02c0.7-0.34,1.5-0.55,2.36-0.55c2.61,0,4.72,1.77,4.72,3.95c0,2.18-2.11,3.95-4.72,3.95
			c-0.57,0-1.12-0.1-1.62-0.25l-4.64,4.05c0.3,0.52,0.48,1.09,0.48,1.7c0,2.18-2.11,3.95-4.72,3.95c-2.61,0-4.72-1.77-4.72-3.95
			c0-2.18,2.11-3.95,4.72-3.95c0.54,0,1.05,0.09,1.54,0.23l4.69-4.09c-0.28-0.5-0.44-1.05-0.44-1.64c0-0.33,0.06-0.64,0.15-0.94
			l-5.49-4.06C199.39,87.01,198.62,87.21,197.78,87.21z"/>
		<path class="st3" d="M175.28,99.43c0.3,0.52,0.48,1.09,0.48,1.7c0,2.18-2.11,3.95-4.72,3.95c-2.61,0-4.72-1.77-4.72-3.95
			s2.11-3.95,4.72-3.95c0.01,0,0.01,0,0.02,0c1.13,0.39,2.23,0.87,3.3,1.43c0.4,0.21,0.78,0.42,1.14,0.63L175.28,99.43z"/>
		<path class="st3" d="M186.27,91.69c0,1.51-1.01,2.81-2.48,3.48c-2.11-0.96-4.37-1.75-6.77-2.39c-0.12-0.34-0.19-0.71-0.19-1.09
			c0-0.33,0.06-0.64,0.15-0.94l-5.49-4.06c-0.68,0.32-1.46,0.52-2.29,0.52c-2.61,0-4.73-1.77-4.73-3.95c0-2.18,2.12-3.95,4.73-3.95
			s4.72,1.77,4.72,3.95c0,0.35-0.07,0.68-0.17,1l5.44,4.03c0.7-0.34,1.5-0.55,2.36-0.55C184.16,87.74,186.27,89.51,186.27,91.69z"/>
	</g>
	<g>
		<path class="st3" d="M95.8,115.7c2.61,0,4.72-1.77,4.72-3.95s-2.11-3.95-4.72-3.95c-2.61,0-4.72,1.77-4.72,3.95
			c0,0.35,0.07,0.68,0.17,1.01l-5.44,4.02c-0.7-0.34-1.5-0.55-2.36-0.55c-2.61,0-4.72,1.77-4.72,3.95c0,2.18,2.11,3.95,4.72,3.95
			c0.57,0,1.12-0.1,1.62-0.25l4.64,4.05c-0.3,0.52-0.48,1.09-0.48,1.7c0,2.18,2.11,3.95,4.72,3.95c2.61,0,4.72-1.77,4.72-3.95
			s-2.11-3.95-4.72-3.95c-0.54,0-1.05,0.09-1.54,0.23l-4.69-4.09c0.28-0.5,0.44-1.05,0.44-1.64c0-0.33-0.06-0.64-0.15-0.94
			l5.49-4.06C94.19,115.51,94.96,115.7,95.8,115.7z"/>
		<path class="st3" d="M124.38,115.7c2.61,0,4.72-1.77,4.72-3.95s-2.11-3.95-4.72-3.95s-4.72,1.77-4.72,3.95
			c0,0.35,0.07,0.68,0.17,1.01l-5.44,4.02c-0.7-0.34-1.5-0.55-2.36-0.55c-2.61,0-4.72,1.77-4.72,3.95c0,2.18,2.11,3.95,4.72,3.95
			c0.57,0,1.12-0.1,1.62-0.25l4.64,4.05c-0.3,0.52-0.48,1.09-0.48,1.7c0,2.18,2.11,3.95,4.72,3.95c2.61,0,4.72-1.77,4.72-3.95
			s-2.11-3.95-4.72-3.95c-0.54,0-1.05,0.09-1.54,0.23l-4.69-4.09c0.28-0.5,0.44-1.05,0.44-1.64c0-0.33-0.06-0.64-0.15-0.94
			l5.49-4.06C122.77,115.51,123.55,115.7,124.38,115.7z"/>
		<path class="st3" d="M157.69,111.76c0,2.18-2.12,3.94-4.72,3.94c-0.84,0-1.61-0.19-2.29-0.51l-4.42,3.26
			c-0.46-1.04-0.78-2.18-0.94-3.41l3.1-2.28c-0.11-0.32-0.18-0.65-0.18-1c0-2.18,2.12-3.95,4.73-3.95
			C155.57,107.81,157.69,109.58,157.69,111.76z"/>
		<path class="st3" d="M226.37,115.7c-2.61,0-4.72-1.77-4.72-3.95s2.11-3.95,4.72-3.95c2.61,0,4.72,1.77,4.72,3.95
			c0,0.35-0.07,0.68-0.17,1.01l5.44,4.02c0.7-0.34,1.5-0.55,2.36-0.55c2.61,0,4.72,1.77,4.72,3.95c0,2.18-2.11,3.95-4.72,3.95
			c-0.57,0-1.12-0.1-1.62-0.25l-4.64,4.05c0.3,0.52,0.48,1.09,0.48,1.7c0,2.18-2.11,3.95-4.72,3.95c-2.61,0-4.72-1.77-4.72-3.95
			s2.11-3.95,4.72-3.95c0.54,0,1.05,0.09,1.54,0.23l4.69-4.09c-0.28-0.5-0.44-1.05-0.44-1.64c0-0.33,0.06-0.64,0.15-0.94l-5.49-4.06
			C227.98,115.51,227.2,115.7,226.37,115.7z"/>
		<path class="st3" d="M197.78,115.7c-2.61,0-4.72-1.77-4.72-3.95s2.11-3.95,4.72-3.95c2.61,0,4.72,1.77,4.72,3.95
			c0,0.35-0.07,0.68-0.17,1.01l5.44,4.02c0.7-0.34,1.5-0.55,2.36-0.55c2.61,0,4.72,1.77,4.72,3.95c0,2.18-2.11,3.95-4.72,3.95
			c-0.57,0-1.12-0.1-1.62-0.25l-4.64,4.05c0.3,0.52,0.48,1.09,0.48,1.7c0,2.18-2.11,3.95-4.72,3.95c-2.61,0-4.72-1.77-4.72-3.95
			s2.11-3.95,4.72-3.95c0.54,0,1.05,0.09,1.54,0.23l4.69-4.09c-0.28-0.5-0.44-1.05-0.44-1.64c0-0.33,0.06-0.64,0.15-0.94l-5.49-4.06
			C199.39,115.51,198.62,115.7,197.78,115.7z"/>
		<path class="st3" d="M186.27,120.19c0,2.18-2.11,3.94-4.72,3.94c-0.57,0-1.12-0.1-1.62-0.25l-4.65,4.05
			c0.26,0.45,0.43,0.95,0.46,1.47c-2.42-0.63-5.35-1.21-8.79-1.73c0.81-1.19,2.34-1.99,4.09-1.99c0.54,0,1.05,0.1,1.54,0.24
			l4.69-4.09c-0.28-0.5-0.44-1.06-0.44-1.64c0-0.33,0.06-0.64,0.15-0.95l-5.49-4.05c-0.68,0.32-1.46,0.51-2.29,0.51
			c-2.61,0-4.73-1.76-4.73-3.94c0-2.18,2.12-3.95,4.73-3.95s4.72,1.77,4.72,3.95c0,0.35-0.07,0.68-0.17,1l5.44,4.02
			c0.7-0.33,1.5-0.54,2.36-0.54C184.16,116.24,186.27,118,186.27,120.19z"/>
	</g>
	<g>
		<path class="st3" d="M95.8,144.2c2.61,0,4.72-1.77,4.72-3.95c0-2.18-2.11-3.95-4.72-3.95c-2.61,0-4.72,1.77-4.72,3.95
			c0,0.35,0.07,0.68,0.17,1.01l-5.44,4.02c-0.7-0.34-1.5-0.55-2.36-0.55c-2.61,0-4.72,1.77-4.72,3.95c0,2.18,2.11,3.95,4.72,3.95
			c0.57,0,1.12-0.1,1.62-0.25l4.64,4.05c-0.3,0.52-0.48,1.09-0.48,1.7c0,2.18,2.11,3.95,4.72,3.95c2.61,0,4.72-1.77,4.72-3.95
			c0-2.18-2.11-3.95-4.72-3.95c-0.54,0-1.05,0.09-1.54,0.23l-4.69-4.09c0.28-0.5,0.44-1.05,0.44-1.64c0-0.33-0.06-0.64-0.15-0.94
			l5.49-4.06C94.19,144.01,94.96,144.2,95.8,144.2z"/>
		<path class="st3" d="M124.38,144.2c2.61,0,4.72-1.77,4.72-3.95c0-2.18-2.11-3.95-4.72-3.95s-4.72,1.77-4.72,3.95
			c0,0.35,0.07,0.68,0.17,1.01l-5.44,4.02c-0.7-0.34-1.5-0.55-2.36-0.55c-2.61,0-4.72,1.77-4.72,3.95c0,2.18,2.11,3.95,4.72,3.95
			c0.57,0,1.12-0.1,1.62-0.25l4.64,4.05c-0.3,0.52-0.48,1.09-0.48,1.7c0,2.18,2.11,3.95,4.72,3.95c2.61,0,4.72-1.77,4.72-3.95
			c0-2.18-2.11-3.95-4.72-3.95c-0.54,0-1.05,0.09-1.54,0.23l-4.69-4.09c0.28-0.5,0.44-1.05,0.44-1.64c0-0.33-0.06-0.64-0.15-0.94
			l5.49-4.06C122.77,144.01,123.55,144.2,124.38,144.2z"/>
		<path class="st3" d="M152.97,144.2c2.61,0,4.72-1.77,4.72-3.95c0-2.18-2.11-3.95-4.72-3.95c-2.61,0-4.72,1.77-4.72,3.95
			c0,0.35,0.07,0.68,0.17,1.01l-5.44,4.02c-0.7-0.34-1.5-0.55-2.36-0.55c-2.61,0-4.72,1.77-4.72,3.95c0,2.18,2.11,3.95,4.72,3.95
			c0.57,0,1.12-0.1,1.62-0.25l4.64,4.05c-0.3,0.52-0.48,1.09-0.48,1.7c0,2.18,2.11,3.95,4.72,3.95c2.61,0,4.72-1.77,4.72-3.95
			c0-2.18-2.11-3.95-4.72-3.95c-0.54,0-1.05,0.09-1.54,0.23l-4.69-4.09c0.28-0.5,0.44-1.05,0.44-1.64c0-0.33-0.06-0.64-0.15-0.94
			l5.49-4.06C151.36,144.01,152.13,144.2,152.97,144.2z"/>
		<path class="st3" d="M226.37,144.2c-2.61,0-4.72-1.77-4.72-3.95c0-2.18,2.11-3.95,4.72-3.95c2.61,0,4.72,1.77,4.72,3.95
			c0,0.35-0.07,0.68-0.17,1.01l5.44,4.02c0.7-0.34,1.5-0.55,2.36-0.55c2.61,0,4.72,1.77,4.72,3.95c0,2.18-2.11,3.95-4.72,3.95
			c-0.57,0-1.12-0.1-1.62-0.25l-4.64,4.05c0.3,0.52,0.48,1.09,0.48,1.7c0,2.18-2.11,3.95-4.72,3.95c-2.61,0-4.72-1.77-4.72-3.95
			c0-2.18,2.11-3.95,4.72-3.95c0.54,0,1.05,0.09,1.54,0.23l4.69-4.09c-0.28-0.5-0.44-1.05-0.44-1.64c0-0.33,0.06-0.64,0.15-0.94
			l-5.49-4.06C227.98,144.01,227.2,144.2,226.37,144.2z"/>
		<path class="st3" d="M197.78,144.2c-2.61,0-4.72-1.77-4.72-3.95c0-2.18,2.11-3.95,4.72-3.95c2.61,0,4.72,1.77,4.72,3.95
			c0,0.35-0.07,0.68-0.17,1.01l5.44,4.02c0.7-0.34,1.5-0.55,2.36-0.55c2.61,0,4.72,1.77,4.72,3.95c0,2.18-2.11,3.95-4.72,3.95
			c-0.57,0-1.12-0.1-1.62-0.25l-4.64,4.05c0.3,0.52,0.48,1.09,0.48,1.7c0,2.18-2.11,3.95-4.72,3.95c-2.61,0-4.72-1.77-4.72-3.95
			c0-2.18,2.11-3.95,4.72-3.95c0.54,0,1.05,0.09,1.54,0.23l4.69-4.09c-0.28-0.5-0.44-1.05-0.44-1.64c0-0.33,0.06-0.64,0.15-0.94
			l-5.49-4.06C199.39,144.01,198.62,144.2,197.78,144.2z"/>
		<path class="st3" d="M179.93,152.38l-4.65,4.05c0.3,0.51,0.48,1.09,0.48,1.7c0,2.18-2.11,3.95-4.72,3.95
			c-2.61,0-4.72-1.77-4.72-3.95s2.11-3.95,4.72-3.95c0.54,0,1.05,0.09,1.54,0.23l4.69-4.08c-0.28-0.51-0.44-1.06-0.44-1.65
			c0-0.32,0.06-0.63,0.15-0.94l-5.49-4.05c-0.68,0.32-1.46,0.51-2.29,0.51c-2.61,0-4.73-1.76-4.73-3.94c0-0.78,0.26-1.5,0.73-2.1
			c2.11,0.4,3.82,0.79,5.12,1.15c1.27,0.35,2.46,0.82,3.56,1.4c-0.03,0.19-0.07,0.37-0.13,0.55l4.7,3.47
			c0.37,0.54,0.69,1.12,0.98,1.75c0.8,1.75,1.24,3.78,1.31,6.08C180.46,152.52,180.19,152.46,179.93,152.38z"/>
	</g>
	<g>
		<path class="st3" d="M95.8,172.7c2.61,0,4.72-1.77,4.72-3.95c0-2.18-2.11-3.95-4.72-3.95c-2.61,0-4.72,1.77-4.72,3.95
			c0,0.35,0.07,0.68,0.17,1.01l-5.44,4.02c-0.7-0.34-1.5-0.55-2.36-0.55c-2.61,0-4.72,1.77-4.72,3.95c0,2.18,2.11,3.95,4.72,3.95
			c0.57,0,1.12-0.1,1.62-0.25l4.64,4.05c-0.3,0.52-0.48,1.09-0.48,1.7c0,2.18,2.11,3.95,4.72,3.95c2.61,0,4.72-1.77,4.72-3.95
			s-2.11-3.95-4.72-3.95c-0.54,0-1.05,0.09-1.54,0.23l-4.69-4.09c0.28-0.5,0.44-1.05,0.44-1.64c0-0.33-0.06-0.64-0.15-0.94
			l5.49-4.06C94.19,172.5,94.96,172.7,95.8,172.7z"/>
		<path class="st3" d="M124.38,172.7c2.61,0,4.72-1.77,4.72-3.95c0-2.18-2.11-3.95-4.72-3.95s-4.72,1.77-4.72,3.95
			c0,0.35,0.07,0.68,0.17,1.01l-5.44,4.02c-0.7-0.34-1.5-0.55-2.36-0.55c-2.61,0-4.72,1.77-4.72,3.95c0,2.18,2.11,3.95,4.72,3.95
			c0.57,0,1.12-0.1,1.62-0.25l4.64,4.05c-0.3,0.52-0.48,1.09-0.48,1.7c0,2.18,2.11,3.95,4.72,3.95c2.61,0,4.72-1.77,4.72-3.95
			s-2.11-3.95-4.72-3.95c-0.54,0-1.05,0.09-1.54,0.23l-4.69-4.09c0.28-0.5,0.44-1.05,0.44-1.64c0-0.33-0.06-0.64-0.15-0.94
			l5.49-4.06C122.77,172.5,123.55,172.7,124.38,172.7z"/>
		<path class="st3" d="M155.85,186.63c0,2.18-2.12,3.95-4.73,3.95c-2.6,0-4.72-1.77-4.72-3.95c0-0.61,0.18-1.19,0.48-1.7l-4.64-4.05
			c-0.51,0.15-1.05,0.25-1.63,0.25c-2.61,0-4.72-1.77-4.72-3.95c0-1.11,0.55-2.12,1.44-2.84c2.49,0.99,5.14,1.75,7.95,2.28
			c0.04,0.18,0.06,0.37,0.06,0.56c0,0.59-0.17,1.14-0.44,1.64l4.69,4.09c0.48-0.14,0.99-0.23,1.53-0.23
			C153.73,182.68,155.85,184.45,155.85,186.63z"/>
		<path class="st3" d="M157.69,168.75c0,1.34-0.8,2.52-2.02,3.23c-1.84-0.19-3.67-0.52-5.48-1c-0.86-0.23-1.66-0.47-2.42-0.74
			l0.65-0.48c-0.11-0.32-0.18-0.66-0.18-1.01c0-2.18,2.12-3.94,4.73-3.94C155.57,164.81,157.69,166.57,157.69,168.75z"/>
		<path class="st3" d="M226.37,172.7c-2.61,0-4.72-1.77-4.72-3.95c0-2.18,2.11-3.95,4.72-3.95c2.61,0,4.72,1.77,4.72,3.95
			c0,0.35-0.07,0.68-0.17,1.01l5.44,4.02c0.7-0.34,1.5-0.55,2.36-0.55c2.61,0,4.72,1.77,4.72,3.95c0,2.18-2.11,3.95-4.72,3.95
			c-0.57,0-1.12-0.1-1.62-0.25l-4.64,4.05c0.3,0.52,0.48,1.09,0.48,1.7c0,2.18-2.11,3.95-4.72,3.95c-2.61,0-4.72-1.77-4.72-3.95
			s2.11-3.95,4.72-3.95c0.54,0,1.05,0.09,1.54,0.23l4.69-4.09c-0.28-0.5-0.44-1.05-0.44-1.64c0-0.33,0.06-0.64,0.15-0.94l-5.49-4.06
			C227.98,172.5,227.2,172.7,226.37,172.7z"/>
		<path class="st3" d="M197.78,172.7c-2.61,0-4.72-1.77-4.72-3.95c0-2.18,2.11-3.95,4.72-3.95c2.61,0,4.72,1.77,4.72,3.95
			c0,0.35-0.07,0.68-0.17,1.01l5.44,4.02c0.7-0.34,1.5-0.55,2.36-0.55c2.61,0,4.72,1.77,4.72,3.95c0,2.18-2.11,3.95-4.72,3.95
			c-0.57,0-1.12-0.1-1.62-0.25l-4.64,4.05c0.3,0.52,0.48,1.09,0.48,1.7c0,2.18-2.11,3.95-4.72,3.95c-2.61,0-4.72-1.77-4.72-3.95
			s2.11-3.95,4.72-3.95c0.54,0,1.05,0.09,1.54,0.23l4.69-4.09c-0.28-0.5-0.44-1.05-0.44-1.64c0-0.33,0.06-0.64,0.15-0.94l-5.49-4.06
			C199.39,172.5,198.62,172.7,197.78,172.7z"/>
		<path class="st3" d="M173.77,167.79c-1.05,0.8-2.21,1.49-3.48,2.07c-1.44,0.67-2.97,1.19-4.57,1.56c-0.78-0.7-1.25-1.64-1.25-2.67
			c0-2.18,2.12-3.94,4.73-3.94C171.41,164.81,173.27,166.08,173.77,167.79z"/>
		<path class="st3" d="M186.27,177.18c0,2.18-2.11,3.95-4.72,3.95c-0.57,0-1.12-0.1-1.62-0.25l-4.65,4.05
			c0.3,0.51,0.48,1.09,0.48,1.7c0,2.18-2.11,3.95-4.72,3.95c-2.61,0-4.72-1.77-4.72-3.95s2.11-3.95,4.72-3.95
			c0.54,0,1.05,0.09,1.54,0.23l4.69-4.09c-0.28-0.5-0.44-1.05-0.44-1.64c0-0.32,0.06-0.64,0.15-0.94l-3.31-2.44
			c1.09-0.52,2.15-1.11,3.18-1.75l2.34,1.73c0.7-0.34,1.5-0.55,2.36-0.55C184.16,173.23,186.27,175,186.27,177.18z"/>
	</g>
</g>
</svg>
