<?xml version="1.0" encoding="utf-8"?>
<!-- Generator: Adobe Illustrator 27.3.1, SVG Export Plug-In . SVG Version: 6.00 Build 0)  -->
<svg version="1.1" id="Layer_1" xmlns="http://www.w3.org/2000/svg" xmlns:xlink="http://www.w3.org/1999/xlink" x="0px" y="0px"
	 viewBox="0 0 320 320" style="enable-background:new 0 0 320 320;" xml:space="preserve">
<style type="text/css">
	.st0{fill:url(#SVGID_1_);}
	.st1{fill:#75479C;}
</style>
<linearGradient id="SVGID_1_" gradientUnits="userSpaceOnUse" x1="70.8104" y1="84.9065" x2="67.7997" y2="172.6484">
	<stop  offset="0" style="stop-color:#447EC1"/>
	<stop  offset="0.337" style="stop-color:#4F70B6"/>
	<stop  offset="0.5472" style="stop-color:#5369B1"/>
	<stop  offset="1" style="stop-color:#7657A5"/>
</linearGradient>
<path class="st0" d="M102.35,109.62c0-6.61-1.71-10.65-5.14-12.12s-7.7-2.2-12.82-2.2c-10.54,0-20.09,2.08-28.67,6.23
	s-12.86,9.13-12.86,14.95c0,4.18,1.9,7.82,5.7,10.92c3.8,3.11,12.09,6.52,24.87,10.25c12.38,3.58,21.19,7.27,26.43,11.07
	c5.24,3.8,7.87,8.39,7.87,13.76c0,5.42-3.65,11.27-10.96,17.56c-7.31,6.29-16.12,11.07-26.43,14.35s-19.08,4.92-26.28,4.92
	c-6.01,0-10.58-0.71-13.68-2.13c-3.11-1.42-4.66-3.19-4.66-5.33c0-1.49,0.46-3.32,1.38-5.48s1.85-3.24,2.8-3.24
	c0.99,0,2.01,0.17,3.06,0.52c5.32,1.99,10.59,2.98,15.81,2.98c9.39,0,19.36-2.75,29.9-8.24s15.81-10.63,15.81-15.4
	c0-2.04-1.6-3.99-4.81-5.85c-3.21-1.86-11.32-4.86-24.34-8.98c-16.16-5.12-26.08-10.1-29.79-14.95s-5.55-9.95-5.55-15.32
	c0-10.34,5.94-18.68,17.82-25.02s24.31-9.51,37.28-9.51c8.6,0,15.21,1.45,19.83,4.36s6.93,6.13,6.93,9.66
	c0,1.69-0.52,4.15-1.57,7.38C109.21,108,106.58,109.62,102.35,109.62z"/>
<g>
	<path class="st1" d="M115.77,182.99c-0.66,2.41-1.27,5.79-1.85,10.14l-0.56,3.8c-0.09,0.54-0.34,1.07-0.74,1.6
		c-0.4,0.53-0.77,0.79-1.1,0.79c-0.42,0-0.89-0.21-1.42-0.63c-0.53-0.42-0.79-0.76-0.79-1.01c0-0.74,0.17-1.75,0.5-3.05
		c2.45-9.89,3.67-18.58,3.67-26.07l-0.02-1.69c-0.03-1.45,0.23-2.5,0.76-3.15c0.54-0.66,1.15-0.98,1.85-0.98
		c0.32,0,0.63,0.25,0.92,0.75c0.29,0.5,0.44,1.21,0.44,2.14c0,1.3-0.13,2.87-0.4,4.72c-0.35,2.33-0.53,3.67-0.54,4.02
		c1.99-3.48,4.11-6.2,6.35-8.15c2.24-1.95,4.31-2.93,6.23-2.93c1.35,0,2.49,0.51,3.42,1.52c0.93,1.01,1.4,2.27,1.4,3.77
		c0,4.36-1.67,8.33-5.02,11.89c-3.35,3.56-6.61,5.34-9.78,5.34c-0.79,0-1.42-0.2-1.88-0.6
		C116.74,184.78,116.27,184.05,115.77,182.99z M128.24,166.83c-1.89,0-4.22,1.77-7.01,5.3s-4.18,6.29-4.18,8.25
		c0,0.48,0.27,0.95,0.82,1.41c0.55,0.46,1.25,0.68,2.09,0.68c1.91,0,4.12-1.42,6.61-4.25c2.49-2.83,3.74-5.61,3.74-8.34
		c0-0.98-0.2-1.73-0.59-2.26S128.83,166.83,128.24,166.83z"/>
	<path class="st1" d="M142.54,177.35c0.13-0.24,0.29-0.58,0.48-1c0.91-2.09,1.75-3.73,2.51-4.91c0.76-1.18,1.6-2.32,2.52-3.4
		c0.92-1.08,1.75-1.91,2.51-2.47c0.76-0.56,1.44-0.95,2.06-1.17s1.21-0.33,1.79-0.33c1.16,0,2.12,0.35,2.85,1.05
		c0.74,0.7,1.1,1.52,1.1,2.46c0,0.42-0.13,0.79-0.39,1.12s-0.66,0.5-1.19,0.5c-0.56,0-1.08-0.25-1.55-0.74
		c-0.48-0.5-0.98-0.74-1.51-0.74c-1.39,0-3.32,1.69-5.78,5.06c-2.46,3.37-3.96,7.09-4.5,11.15c-0.13,1.04-0.39,1.73-0.76,2.07
		s-0.9,0.5-1.59,0.5c-0.66,0-1.13-0.49-1.43-1.47s-0.44-2.62-0.44-4.94c0-0.63,0.03-2.01,0.1-4.16c0.08-2.53,0.24-4.57,0.48-6.12
		c0.04-0.25,0.11-0.85,0.2-1.79c0.09-1.03,0.21-1.75,0.35-2.15c0.14-0.4,0.43-0.78,0.86-1.12s0.91-0.52,1.42-0.52
		c0.5,0,0.87,0.16,1.11,0.47c0.25,0.31,0.37,0.65,0.37,1.01c0,0.52-0.13,1.26-0.4,2.21c-0.31,1.06-0.49,1.79-0.54,2.19
		c-0.04,0.46-0.11,0.93-0.22,1.43c-0.13,0.58-0.27,2.09-0.4,4.54l-0.02,0.74V177.35z"/>
	<path class="st1" d="M163.67,180.86c0,1.02,0.14,2.16,0.42,3.43c0.05,0.24,0.08,0.44,0.08,0.6c0,0.24-0.22,0.55-0.66,0.93
		c-0.44,0.38-0.91,0.57-1.41,0.57c-1.3,0-1.95-1.19-1.95-3.57c0-2.46,0.51-6.36,1.53-11.69c0.35-1.86,0.52-3.01,0.52-3.43
		c0-0.84,0.15-1.56,0.46-2.16s0.74-0.89,1.31-0.89c0.68,0,1.22,0.16,1.62,0.49s0.59,0.69,0.59,1.09s-0.09,0.93-0.28,1.59
		c-1,3.53-1.63,6.06-1.87,7.59C163.79,176.95,163.67,178.76,163.67,180.86z M166.3,158.43c-0.28,0-0.5-0.3-0.64-0.9
		c-0.05-0.19-0.13-0.39-0.22-0.62c-0.36-0.87-0.54-1.63-0.54-2.27c0-0.54,0.32-1.08,0.95-1.64c0.64-0.56,1.34-0.83,2.12-0.83
		c0.39,0,0.82,0.15,1.31,0.45c0.48,0.3,0.72,0.59,0.72,0.87c0,0.44-0.16,1.19-0.49,2.25s-0.85,1.77-1.57,2.14
		S166.67,158.43,166.3,158.43z"/>
	<path class="st1" d="M185.39,169.88c-0.7,0-1.46,0.46-2.28,1.37c-0.82,0.91-2.08,2.95-3.77,6.12c-2.22,4.26-3.66,6.68-4.31,7.27
		c-0.65,0.59-1.19,0.88-1.62,0.88c-1.58,0-2.37-0.76-2.37-2.29c0-0.64,0.11-1.55,0.32-2.73c0.74-4.04,1.1-8.31,1.1-12.79
		c0-0.51,0.22-1.07,0.65-1.7c0.44-0.62,0.85-0.93,1.24-0.93c0.7,0,1.19,0.21,1.49,0.64c0.29,0.43,0.44,1.29,0.44,2.59
		c0,1.35-0.4,4.14-1.2,8.35c-0.27,1.39-0.4,2.28-0.4,2.65c0,0.21,0.05,0.32,0.16,0.32c0.2,0,1.13-1.6,2.79-4.8
		c1.67-3.25,3.14-5.54,4.4-6.87s2.64-1.99,4.16-1.99c1.2,0,2.19,0.55,2.94,1.65s1.31,3.1,1.66,6c0.37,3.31,0.71,5.37,1.01,6.18
		c0.3,0.81,0.78,1.21,1.44,1.21c0.42,0,0.94-0.15,1.57-0.44c0.11-0.05,0.19-0.08,0.24-0.08c0.58,0,0.86,0.33,0.86,1
		c0,0.59-0.39,1.21-1.18,1.88s-1.74,0.99-2.85,0.99c-1.14,0-2.02-0.45-2.64-1.36c-0.62-0.9-1.11-3.32-1.48-7.24
		C187.39,171.85,186.6,169.88,185.39,169.88z"/>
	<path class="st1" d="M213.19,178.05c-0.16-0.12-0.61,0.25-1.35,1.12c-1.22,1.43-2.77,2.7-4.67,3.82c-1.89,1.11-3.65,1.67-5.27,1.67
		c-1.2,0-2.15-0.38-2.83-1.13s-1.02-1.8-1.02-3.14c0-2.08,0.78-4.39,2.35-6.94c1.57-2.55,3.76-4.78,6.58-6.68
		c2.82-1.9,5.28-2.85,7.4-2.85c1.11,0,2.09,0.32,2.93,0.96c0.2,0.16,0.37,0.29,0.52,0.4c0.24,0.17,0.47,0.53,0.68,1.05
		s0.32,0.95,0.32,1.28c0,0.2-0.07,0.51-0.22,0.92c-0.82,2.22-1.37,4.06-1.67,5.52c-0.29,1.46-0.62,3.92-0.96,7.37
		c-0.32,3.11-0.67,5.5-1.04,7.17s-1.05,3.29-2.03,4.86c-0.98,1.57-2.15,2.74-3.51,3.52c-1.37,0.78-2.77,1.17-4.22,1.17
		c-2.5,0-4.97-0.86-7.41-2.59c-2.44-1.73-3.65-3.11-3.65-4.16c0-0.66,0.25-0.98,0.74-0.98c0.24,0,0.96,0.39,2.15,1.18
		c3.15,2.1,5.98,3.15,8.49,3.15c2.2,0,3.87-1.17,5.01-3.51c1.14-2.34,1.92-5.84,2.34-10.5
		C212.94,179.69,213.05,178.79,213.19,178.05z M213.15,167.03c-1.14,0-2.56,0.59-4.27,1.77c-1.71,1.18-3.36,2.91-4.97,5.18
		c-1.61,2.28-2.41,4.18-2.41,5.72c0,0.52,0.16,0.93,0.49,1.24c0.33,0.3,0.69,0.45,1.09,0.45c1.19,0,2.75-0.62,4.67-1.85
		s3.57-2.94,4.96-5.13c1.39-2.19,2.08-3.91,2.08-5.15C214.79,167.77,214.25,167.03,213.15,167.03z"/>
	<path class="st1" d="M226.6,186.25c-0.09,0.33-0.35,0.62-0.76,0.84c-0.42,0.23-0.83,0.34-1.25,0.34c-1.37,0-2.05-1-2.05-2.99
		c0-0.95,0.31-3.64,0.94-8.07c0.39-2.72,0.58-4.78,0.58-6.19c0-0.24-0.28-0.56-0.84-0.94c-0.58-0.37-0.86-0.74-0.86-1.1
		c0-0.58,0.44-1.2,1.31-1.87c0.67-0.52,1.08-1.1,1.24-1.75s0.33-1.53,0.53-2.67c0.68-4.15,1.75-7.14,3.2-8.98
		c1.45-1.83,3.3-2.75,5.55-2.75c1.19,0,2.2,0.4,3.03,1.21c0.83,0.81,1.25,1.82,1.25,3.02c0,0.98-0.23,2.09-0.69,3.32
		s-0.99,1.86-1.58,1.86c-0.44,0-0.66-0.22-0.66-0.66l0.14-1.95c0-2.58-0.72-3.88-2.17-3.88c-1.57,0-2.87,1.54-3.9,4.61
		s-1.55,5.57-1.55,7.5c0,0.62,0.4,0.92,1.2,0.92c3.49,0,5.55-0.01,6.18-0.04c0.62-0.03,0.93,0.23,0.93,0.78
		c0,0.55-0.34,0.97-1.01,1.26c-0.68,0.29-2.15,0.55-4.43,0.77c-1.94,0.2-3.04,0.37-3.29,0.5c-0.9,4.98-1.35,9.42-1.35,13.31
		c0,1.16,0.05,2.03,0.16,2.59C226.56,185.78,226.6,186.11,226.6,186.25z"/>
	<path class="st1" d="M241.76,180.86c0,1.02,0.14,2.16,0.42,3.43c0.05,0.24,0.08,0.44,0.08,0.6c0,0.24-0.22,0.55-0.66,0.93
		c-0.44,0.38-0.91,0.57-1.41,0.57c-1.3,0-1.95-1.19-1.95-3.57c0-2.46,0.51-6.36,1.53-11.69c0.35-1.86,0.52-3.01,0.52-3.43
		c0-0.84,0.15-1.56,0.46-2.16c0.31-0.6,0.74-0.89,1.31-0.89c0.68,0,1.22,0.16,1.62,0.49s0.59,0.69,0.59,1.09s-0.09,0.93-0.28,1.59
		c-1,3.53-1.63,6.06-1.87,7.59C241.88,176.95,241.76,178.76,241.76,180.86z M244.39,158.43c-0.28,0-0.5-0.3-0.64-0.9
		c-0.05-0.19-0.13-0.39-0.22-0.62c-0.36-0.87-0.54-1.63-0.54-2.27c0-0.54,0.32-1.08,0.95-1.64s1.34-0.83,2.12-0.83
		c0.39,0,0.82,0.15,1.31,0.45c0.48,0.3,0.72,0.59,0.72,0.87c0,0.44-0.16,1.19-0.49,2.25c-0.33,1.06-0.85,1.77-1.57,2.14
		C245.32,158.25,244.77,158.43,244.39,158.43z"/>
	<path class="st1" d="M267.01,178.51c0,1.37-1.21,3.01-3.62,4.94c-2.42,1.93-4.91,2.89-7.48,2.89c-2.16,0-3.82-0.64-4.99-1.91
		c-1.17-1.27-1.76-3.05-1.76-5.32c0-3.83,1.29-7.47,3.88-10.92c2.58-3.45,5.41-5.18,8.47-5.18c1,0,1.82,0.33,2.46,0.98
		c0.64,0.66,0.95,1.45,0.95,2.37c0,2.06-1.01,4.04-3.03,5.92c-2.02,1.89-4.73,3.74-8.11,5.56c-0.7,0.36-1.04,0.83-1.04,1.41
		c0,1.11,0.32,2,0.96,2.67s1.59,1,2.85,1c2.88,0,5.82-1.59,8.82-4.78c0.44-0.44,0.78-0.66,1-0.66
		C266.79,177.49,267.01,177.83,267.01,178.51z M253.05,175.38c5.68-3.37,8.51-6.08,8.51-8.13c0-0.8-0.36-1.2-1.08-1.2
		c-1.23,0-2.62,0.9-4.17,2.71C254.77,170.56,253.68,172.77,253.05,175.38z"/>
	<path class="st1" d="M278.23,151.32c0.96,0,1.45,0.62,1.45,1.85c0,1.1-0.58,3.71-1.75,7.83c-0.74,2.6-1.31,5.46-1.71,8.6
		c-0.4,3.13-0.6,5.59-0.6,7.37c0,2.21,0.14,4.4,0.42,6.59c0.05,0.42,0.08,0.72,0.08,0.9c0,0.67-0.23,1.25-0.68,1.73
		c-0.46,0.48-0.94,0.72-1.45,0.72c-0.71,0-1.2-0.44-1.48-1.33s-0.41-2.31-0.41-4.28c0-4.48,0.54-10.04,1.62-16.67
		s1.93-10.5,2.57-11.63S277.58,151.32,278.23,151.32z"/>
	<path class="st1" d="M297.37,177.01c-1.79,2.88-3.7,5.1-5.7,6.66c-2.01,1.56-3.86,2.34-5.54,2.34c-1.3,0-2.33-0.5-3.08-1.5
		c-0.76-1-1.13-2.33-1.13-3.99c0-3.39,1.38-6.86,4.13-10.42c2.75-3.56,5.72-5.34,8.91-5.34c1.39,0,2.68,0.6,3.88,1.79l2.81-13.13
		c0.2-0.9,0.57-1.5,1.11-1.81c0.54-0.31,0.97-0.46,1.28-0.46c0.94,0,1.41,0.83,1.41,2.49c0,0.29-0.31,1.39-0.92,3.29
		c-0.98,2.95-1.9,6.56-2.78,10.85c-0.88,4.29-1.32,7.73-1.32,10.33c0,2.68,0.58,4.02,1.75,4.02c0.75,0,1.53-0.25,2.33-0.74
		c0.33-0.24,0.65-0.36,0.94-0.36c0.43,0,0.64,0.28,0.64,0.84c0,0.68-0.6,1.47-1.8,2.37c-1.2,0.9-2.43,1.35-3.69,1.35
		c-2.21,0-3.31-2.13-3.31-6.39C297.27,178.47,297.3,177.74,297.37,177.01z M294.74,167.61c-2.17,0-4.32,1.47-6.45,4.41
		s-3.19,5.65-3.19,8.14c0,1.67,0.56,2.51,1.67,2.51c1.04,0,2.31-0.55,3.81-1.65c1.49-1.1,3.03-2.85,4.61-5.25
		c1.58-2.4,2.37-4.21,2.37-5.41c0-0.59-0.27-1.19-0.81-1.82S295.53,167.61,294.74,167.61z"/>
</g>
</svg>
