<?xml version="1.0" encoding="utf-8"?>
<!-- Generator: Adobe Illustrator 27.3.1, SVG Export Plug-In . SVG Version: 6.00 Build 0)  -->
<svg version="1.1" id="Layer_1" xmlns="http://www.w3.org/2000/svg" xmlns:xlink="http://www.w3.org/1999/xlink" x="0px" y="0px"
	 viewBox="0 0 320 320" style="enable-background:new 0 0 320 320;" xml:space="preserve">
<style type="text/css">
	.st0{fill:url(#SVGID_1_);}
	.st1{fill:url(#SVGID_00000085945277756077651270000008189546691253995158_);}
	.st2{fill:url(#SVGID_00000145024202887106388430000009098047207202410909_);}
</style>
<linearGradient id="SVGID_1_" gradientUnits="userSpaceOnUse" x1="63.75" y1="182.975" x2="115.44" y2="182.975">
	<stop  offset="0.3244" style="stop-color:#42479D"/>
	<stop  offset="1" style="stop-color:#47B9D2"/>
</linearGradient>
<path class="st0" d="M89.11,166.69c2.21,0.35,4.27,0.69,6.18,1.01c1.91,0.33,3.58,0.62,5.01,0.89c1.42,0.27,2.41,0.46,2.95,0.57
	c3.6,0.86,6.54,2.09,8.8,3.67c2.26,1.59,3.39,3.46,3.39,5.62c0,1.29-0.29,2.56-0.89,3.79c-0.59,1.24-1.34,2.41-2.26,3.52
	c-0.91,1.1-1.94,2.11-3.07,3.03c-1.13,0.91-2.2,1.69-3.23,2.34c-2.74,1.45-5.54,2.81-8.4,4.08c-2.85,1.26-5.67,2.37-8.44,3.31
	c-2.77,0.94-5.45,1.72-8.04,2.34c-2.58,0.62-4.95,1.04-7.1,1.26c-0.17,0-0.72-0.05-1.66-0.13s-2.03-0.17-3.27-0.28l-5.33-0.56
	c1.56-6.14,3.11-12.24,4.64-18.3c1.54-6.06,3.33-12.4,5.37-19.02c0.76,0.21,1.95,0.48,3.6,0.8c1.64,0.33,3.46,0.66,5.45,1.01
	C84.8,165.99,86.9,166.34,89.11,166.69z"/>
<linearGradient id="SVGID_00000128484305934073614550000009827018086201831824_" gradientUnits="userSpaceOnUse" x1="77.72" y1="131.475" x2="129.66" y2="131.475">
	<stop  offset="0.3244" style="stop-color:#42479D"/>
	<stop  offset="1" style="stop-color:#47B9D2"/>
</linearGradient>
<path style="fill:url(#SVGID_00000128484305934073614550000009827018086201831824_);" d="M129.09,116.82
	c0.38,0.8,0.57,1.61,0.57,2.42c0,1.24-0.31,2.49-0.93,3.75c-0.62,1.27-1.43,2.48-2.42,3.64c-1,1.16-2.13,2.23-3.39,3.23
	c-1.27,1-2.55,1.85-3.84,2.55h0.08c-3.61,1.77-7.23,3.54-10.87,5.29c-3.63,1.75-7.21,3.4-10.74,4.96c-3.53,1.57-6.96,3.01-10.3,4.33
	c-3.34,1.31-6.51,2.46-9.53,3.43c0.59-1.99,1.17-3.91,1.74-5.74c0.56-1.83,1.07-3.5,1.53-5c0.46-1.51,0.85-2.82,1.17-3.92
	c0.33-1.11,0.54-1.93,0.65-2.47c0.38-0.48,0.77-1.23,1.17-2.26c0.4-1.02,0.8-2.08,1.17-3.19c0.38-1.1,0.72-2.11,1.01-3.03
	c0.3-0.91,0.53-1.51,0.69-1.77c0.81-1.14,2.45-2.32,4.93-3.56c2.47-1.24,5.3-2.37,8.48-3.39c3.17-1.02,6.46-1.87,9.85-2.55
	c3.39-0.67,6.44-1.01,9.13-1.01c1.94,0,3.57,0.19,4.89,0.57s2.38,0.89,3.19,1.53C128.13,115.28,128.72,116.01,129.09,116.82z"/>
<linearGradient id="SVGID_00000029037298594895887410000012504964996263973823_" gradientUnits="userSpaceOnUse" x1="17.29" y1="157.805" x2="302.95" y2="157.805">
	<stop  offset="0.3244" style="stop-color:#42479D"/>
	<stop  offset="1" style="stop-color:#47B9D2"/>
</linearGradient>
<path style="fill:url(#SVGID_00000029037298594895887410000012504964996263973823_);" d="M249.51,197.96
	c-0.03-0.37-0.09-0.73-0.2-1.06c-0.12-0.34-0.29-0.62-0.51-0.85c-0.23-0.23-0.55-0.34-0.97-0.34c-0.5,0-1,0.1-1.49,0.31
	c-0.5,0.21-0.99,0.48-1.47,0.81c-0.48,0.34-0.94,0.73-1.4,1.17c-0.45,0.45-0.88,0.91-1.28,1.38c-0.41,0.46-0.79,0.94-1.15,1.41
	c-0.36,0.47-0.68,0.91-0.97,1.31c-0.05,0.07-0.11,0.16-0.18,0.26c-0.07,0.11-0.14,0.23-0.22,0.35c-0.07,0.13-0.14,0.27-0.2,0.41
	c-0.07,0.13-0.13,0.26-0.17,0.37h1.72c0.63,0,1.34-0.04,2.14-0.13c0.81-0.09,1.6-0.2,2.39-0.32c0.79-0.12,1.51-0.25,2.17-0.38
	c0.65-0.12,1.15-0.22,1.49-0.29c0.04-0.14,0.08-0.34,0.12-0.58c0.04-0.25,0.08-0.52,0.11-0.83c0.03-0.3,0.06-0.62,0.08-0.96
	c0.01-0.34,0.02-0.69,0.02-1.04C249.54,198.67,249.53,198.33,249.51,197.96z M249.51,197.96c-0.03-0.37-0.09-0.73-0.2-1.06
	c-0.12-0.34-0.29-0.62-0.51-0.85c-0.23-0.23-0.55-0.34-0.97-0.34c-0.5,0-1,0.1-1.49,0.31c-0.5,0.21-0.99,0.48-1.47,0.81
	c-0.48,0.34-0.94,0.73-1.4,1.17c-0.45,0.45-0.88,0.91-1.28,1.38c-0.41,0.46-0.79,0.94-1.15,1.41c-0.36,0.47-0.68,0.91-0.97,1.31
	c-0.05,0.07-0.11,0.16-0.18,0.26c-0.07,0.11-0.14,0.23-0.22,0.35c-0.07,0.13-0.14,0.27-0.2,0.41c-0.07,0.13-0.13,0.26-0.17,0.37
	h1.72c0.63,0,1.34-0.04,2.14-0.13c0.81-0.09,1.6-0.2,2.39-0.32c0.79-0.12,1.51-0.25,2.17-0.38c0.65-0.12,1.15-0.22,1.49-0.29
	c0.04-0.14,0.08-0.34,0.12-0.58c0.04-0.25,0.08-0.52,0.11-0.83c0.03-0.3,0.06-0.62,0.08-0.96c0.01-0.34,0.02-0.69,0.02-1.04
	C249.54,198.67,249.53,198.33,249.51,197.96z M295.06,13.54H25.17c-4.35,0-7.88,3.53-7.88,7.89v272.76c0,4.35,3.53,7.88,7.88,7.88
	h269.89c4.36,0,7.89-3.53,7.89-7.88V21.43C302.95,17.07,299.42,13.54,295.06,13.54z M143.43,210.61c-0.04,0.19-0.08,0.34-0.12,0.46
	c-0.14,0.21-0.31,0.41-0.52,0.58c-0.21,0.17-0.44,0.32-0.67,0.45c-0.24,0.13-0.46,0.24-0.69,0.33c-0.22,0.09-0.4,0.15-0.55,0.2
	c-0.18,0.07-0.42,0.16-0.71,0.27c-0.3,0.11-0.62,0.23-0.96,0.37c-0.35,0.13-0.71,0.27-1.07,0.41c-0.37,0.13-0.72,0.27-1.04,0.39
	c-0.33,0.12-0.61,0.23-0.86,0.32c-0.25,0.1-0.43,0.16-0.53,0.2c-0.48,0.18-1.01,0.38-1.6,0.6c-0.59,0.22-1.17,0.43-1.75,0.64
	c-0.58,0.2-1.13,0.37-1.65,0.51c-0.52,0.14-0.95,0.21-1.29,0.21c-0.43,0-0.76-0.04-1-0.11c-0.24-0.06-0.45-0.15-0.64-0.27
	c-0.19-0.12-0.39-0.26-0.58-0.43c-0.2-0.17-0.46-0.35-0.78-0.55c-0.29-0.18-0.5-0.42-0.62-0.74c-0.12-0.31-0.18-0.64-0.18-1
	c0-0.18,0.01-0.39,0.04-0.62c0.03-0.23,0.06-0.48,0.11-0.74c0.04-0.25,0.09-0.5,0.15-0.75c0.05-0.24,0.12-0.46,0.18-0.65l0.94-2.85
	c0.5-1.54,0.98-3.01,1.44-4.43c0.46-1.42,0.86-2.73,1.21-3.93c0.35-1.21,0.63-2.27,0.84-3.2c0.21-0.93,0.32-1.66,0.34-2.21
	c0.14-0.52,0.37-0.94,0.71-1.25c0.34-0.32,0.74-0.47,1.18-0.47c0.27,0,0.5,0.06,0.69,0.18s0.34,0.29,0.46,0.49
	c0.12,0.2,0.2,0.42,0.26,0.67s0.08,0.51,0.08,0.77c0,0.18-0.01,0.36-0.03,0.51c-0.02,0.16-0.05,0.31-0.08,0.46
	c-0.26,1.02-0.57,2.08-0.92,3.18c-0.36,1.09-0.73,2.2-1.1,3.32s-0.75,2.24-1.11,3.37c-0.37,1.13-0.7,2.23-0.99,3.31l-0.3,1.14
	c-0.16,0.58-0.29,1.13-0.4,1.66c-0.12,0.52-0.17,0.95-0.17,1.27c0,0.18,0.03,0.32,0.1,0.43c0.07,0.1,0.19,0.16,0.38,0.16
	c0.46,0,1-0.08,1.61-0.23c0.61-0.15,1.25-0.34,1.91-0.55c0.66-0.22,1.31-0.46,1.96-0.72c0.66-0.26,1.26-0.51,1.8-0.75
	c0.29-0.12,0.54-0.23,0.75-0.32c0.2-0.08,0.46-0.19,0.77-0.32s0.72-0.3,1.23-0.51c0.51-0.21,1.22-0.51,2.12-0.89
	c0.16-0.05,0.3-0.1,0.41-0.14c0.12-0.04,0.23-0.06,0.33-0.06c0.18,0,0.33,0.03,0.46,0.1s0.23,0.16,0.3,0.27
	c0.07,0.11,0.13,0.24,0.16,0.38c0.03,0.15,0.05,0.29,0.05,0.44C143.49,210.21,143.47,210.43,143.43,210.61z M143.07,126.51
	c-2.53,3.82-6.11,7.38-10.74,10.66c-4.64,3.29-10.2,6.34-16.68,9.17c-6.49,2.83-13.72,5.61-21.69,8.36
	c6.35,0.97,11.83,2.11,16.43,3.43c4.61,1.32,8.42,2.87,11.43,4.65c3.02,1.77,5.26,3.79,6.71,6.06c1.45,2.26,2.18,4.84,2.18,7.75
	c0,3.88-1.14,7.86-3.43,11.95c-2.29,4.1-5.94,7.92-10.95,11.48c-1.56,1.07-3.46,2.24-5.69,3.51c-2.24,1.26-4.66,2.54-7.27,3.84
	c-2.61,1.29-5.36,2.54-8.24,3.75c-2.88,1.21-5.79,2.28-8.73,3.19c-2.93,0.92-5.8,1.66-8.6,2.22c-2.8,0.57-5.44,0.85-7.91,0.85
	c-1.24,0-2.31-0.09-3.2-0.28c-0.88-0.19-1.71-0.53-2.46-1.01c-0.75-0.49-1.48-1.16-2.18-2.02c-0.7-0.86-1.45-1.94-2.26-3.23
	c-1.29,0.97-2.65,1.68-4.08,2.14s-2.87,0.69-4.32,0.69h-2.26c-0.43,0-0.84-0.15-1.22-0.45c-0.37-0.29-0.71-0.66-1.01-1.09
	c-0.29-0.43-0.52-0.9-0.68-1.41c-0.16-0.51-0.24-1.01-0.24-1.5c0-2.74,0.39-5.37,1.17-7.87c0.78-2.51,1.68-5,2.7-7.47
	c1.51-4.58,3.05-9.39,4.61-14.42c1.56-5.04,3.07-10.09,4.52-15.15c1.45-5.06,2.84-10.05,4.16-14.98c1.32-4.93,2.55-9.6,3.68-14.02
	l2.26-9.37c0-0.16-0.03-0.62-0.08-1.37c-0.06-0.75-0.12-1.58-0.21-2.46c-0.08-0.89-0.14-1.71-0.2-2.47l-0.08-1.05l0.41-1.37
	l-0.08,0.08c0.26-0.97,0.64-2.07,1.13-3.31c0.48-1.24,1.07-2.4,1.77-3.48c0.7-1.07,1.47-1.97,2.31-2.7c0.83-0.73,1.73-1.09,2.7-1.09
	c0.92,0,2.09,0.07,3.52,0.2c1.42,0.13,2.7,0.2,3.83,0.2c0.54,0,1.07-0.02,1.58-0.08c0.51-0.05,1.16-0.19,1.94-0.4
	c0.78-0.22,1.8-0.53,3.07-0.93c1.26-0.41,2.92-0.96,4.96-1.66c3.07-1.07,5.89-1.98,8.44-2.7c2.56-0.73,4.99-1.32,7.27-1.78
	c2.29-0.46,4.51-0.79,6.67-1.01c2.15-0.22,4.36-0.32,6.62-0.32c2.86,0,5.62,0.27,8.28,0.8c2.67,0.54,5.04,1.42,7.11,2.63
	s3.73,2.8,4.97,4.77c1.24,1.96,1.86,4.34,1.86,7.14C146.87,118.38,145.6,122.69,143.07,126.51z M169.4,196.48
	c-0.12,0.65-0.25,1.27-0.41,1.86c-0.32,1.28-0.71,2.57-1.16,3.86c-0.45,1.3-0.99,2.56-1.61,3.8c-0.63,1.24-1.36,2.44-2.19,3.61
	c-0.83,1.16-1.79,2.26-2.87,3.27c-0.53,0.5-1.11,1-1.74,1.48c-0.62,0.49-1.28,0.92-1.96,1.32c-0.68,0.39-1.37,0.7-2.09,0.94
	c-0.71,0.24-1.42,0.36-2.12,0.36c-1.02,0-1.9-0.14-2.65-0.43c-0.74-0.28-1.37-0.68-1.86-1.19c-0.5-0.52-0.87-1.13-1.12-1.84
	c-0.24-0.7-0.36-1.48-0.36-2.33c0-0.4,0.03-0.85,0.1-1.33c0.06-0.49,0.15-0.96,0.25-1.43c0.24-1.13,0.51-2.13,0.79-3.02
	c0.29-0.89,0.57-1.71,0.85-2.48c0.28-0.76,0.54-1.49,0.79-2.19s0.47-1.42,0.66-2.17l0.2-0.8c0.05-0.2,0.09-0.45,0.12-0.75
	c0.03-0.31,0.07-0.62,0.11-0.95c0.04-0.33,0.09-0.66,0.16-0.98s0.16-0.61,0.29-0.87s0.29-0.46,0.5-0.63
	c0.2-0.16,0.45-0.24,0.77-0.24c0.34,0,0.63,0.06,0.87,0.18c0.24,0.13,0.44,0.29,0.58,0.49c0.15,0.2,0.25,0.43,0.32,0.69
	c0.07,0.27,0.1,0.54,0.1,0.82c0,0.23-0.01,0.46-0.04,0.7c-0.03,0.23-0.07,0.45-0.13,0.65c-0.12,0.5-0.32,1.09-0.6,1.76
	c-0.28,0.67-0.59,1.41-0.92,2.22c-0.34,0.81-0.68,1.68-1.02,2.62c-0.35,0.95-0.65,1.94-0.92,2.99c-0.16,0.59-0.29,1.24-0.41,1.94
	s-0.18,1.34-0.18,1.91c0,0.46,0.04,0.89,0.12,1.3c0.08,0.4,0.22,0.76,0.42,1.07c0.2,0.3,0.47,0.55,0.81,0.73
	c0.34,0.17,0.77,0.26,1.3,0.26c0.4,0,0.81-0.03,1.24-0.1c0.43-0.06,0.94-0.23,1.53-0.48c0.87-0.39,1.7-0.9,2.47-1.52
	c0.78-0.62,1.5-1.32,2.16-2.11c0.67-0.8,1.28-1.65,1.84-2.56c0.57-0.92,1.08-1.87,1.53-2.85c0.46-0.98,0.87-1.97,1.22-2.98
	c0.35-1,0.65-1.99,0.89-2.96c0.1-0.41,0.18-0.8,0.24-1.16c0.05-0.37,0.09-0.74,0.12-1.12c0.03-0.38,0.05-0.78,0.07-1.22
	c0.02-0.43,0.05-0.93,0.09-1.49c0.03-0.44,0.16-0.83,0.38-1.16c0.22-0.33,0.55-0.49,0.99-0.49c0.28,0,0.53,0.11,0.73,0.33
	c0.21,0.22,0.38,0.5,0.51,0.83c0.14,0.33,0.24,0.68,0.3,1.05c0.07,0.36,0.1,0.69,0.1,0.98C169.56,195.23,169.51,195.83,169.4,196.48
	z M189.12,195.08c-0.36,0.06-0.76,0.13-1.18,0.2c-0.43,0.08-0.83,0.15-1.21,0.21c-0.37,0.07-0.63,0.12-0.77,0.15
	c-0.06,0.01-0.22,0.06-0.47,0.13c-0.25,0.07-0.56,0.15-0.92,0.25c-0.35,0.09-0.74,0.2-1.16,0.33c-0.42,0.12-0.83,0.24-1.24,0.36
	c-0.4,0.11-0.78,0.22-1.13,0.33c-0.34,0.11-0.62,0.19-0.83,0.26c-0.68,0.27-1.22,0.62-1.6,1.06c-0.39,0.44-0.69,0.94-0.91,1.48
	c-0.05,0.1-0.11,0.27-0.2,0.51s-0.19,0.52-0.3,0.82c-0.1,0.31-0.22,0.64-0.34,0.98c-0.12,0.35-0.24,0.68-0.35,0.99
	c-0.11,0.31-0.21,0.6-0.29,0.85c-0.09,0.26-0.15,0.45-0.18,0.57c-0.03,0.11-0.06,0.21-0.07,0.3c-0.01,0.09-0.01,0.16-0.01,0.21
	c0,0.06,0.01,0.1,0.05,0.1c0.16,0,0.51-0.08,1.04-0.23c0.53-0.15,1.15-0.34,1.86-0.56c0.71-0.22,1.47-0.46,2.28-0.72
	s1.58-0.5,2.32-0.72c0.74-0.22,1.41-0.41,1.99-0.56c0.58-0.15,0.99-0.23,1.25-0.23c0.39,0,0.65,0.07,0.79,0.2
	c0.13,0.12,0.2,0.27,0.2,0.42c0,0.4-0.14,0.76-0.43,1.06c-0.28,0.3-0.64,0.56-1.06,0.78c-0.14,0.07-0.38,0.17-0.75,0.3
	c-0.36,0.12-0.75,0.26-1.17,0.39c-0.42,0.13-0.81,0.26-1.19,0.38c-0.38,0.13-0.66,0.22-0.82,0.27c-1.1,0.43-1.99,0.77-2.67,1.05
	c-0.69,0.27-1.24,0.49-1.67,0.67c-0.42,0.17-0.75,0.3-0.98,0.39c-0.23,0.09-0.44,0.17-0.63,0.23c-0.2,0.06-0.41,0.12-0.65,0.17
	c-0.23,0.06-0.56,0.14-0.97,0.24c-0.1,0.23-0.22,0.59-0.35,1.06c-0.13,0.47-0.26,0.96-0.38,1.47c-0.13,0.51-0.23,0.98-0.31,1.42
	c-0.09,0.43-0.13,0.73-0.13,0.9c0,0.2,0.03,0.35,0.08,0.44c0.06,0.1,0.13,0.16,0.2,0.2c0.08,0.03,0.16,0.05,0.24,0.05h0.18
	c0.54,0,1.18-0.08,1.94-0.24c0.75-0.15,1.49-0.36,2.23-0.62c0.7-0.24,1.32-0.51,1.84-0.8c0.53-0.29,1.02-0.56,1.48-0.81
	c0.46-0.25,0.92-0.47,1.36-0.64c0.44-0.17,0.92-0.26,1.44-0.27c0.12,0,0.25,0.01,0.4,0.03c0.15,0.02,0.29,0.06,0.43,0.12
	c0.13,0.07,0.24,0.15,0.32,0.25c0.09,0.1,0.12,0.23,0.09,0.38c-0.04,0.33-0.2,0.64-0.48,0.96c-0.28,0.31-0.63,0.61-1.06,0.9
	c-0.42,0.29-0.89,0.57-1.42,0.84c-0.52,0.26-1.06,0.52-1.61,0.76c-0.54,0.24-1.08,0.46-1.6,0.65c-0.53,0.2-0.99,0.37-1.41,0.51
	c-1.02,0.36-2.02,0.62-2.99,0.79c-0.97,0.16-1.84,0.25-2.61,0.25c-0.85,0-1.5-0.16-1.95-0.48c-0.46-0.32-0.68-0.84-0.68-1.58
	c0-0.39,0.05-0.8,0.17-1.24c0.38-1.52,0.82-3,1.33-4.46c0.5-1.45,0.96-2.9,1.38-4.34c0.41-1.44,0.75-2.65,1.03-3.64
	c0.27-0.99,0.51-1.84,0.72-2.54c0.22-0.71,0.41-1.32,0.59-1.84c0.18-0.51,0.37-1.02,0.59-1.52c0.13-0.3,0.28-0.61,0.44-0.94
	c0.16-0.32,0.34-0.62,0.53-0.89c0.19-0.28,0.38-0.5,0.59-0.67s0.42-0.26,0.64-0.26c0.46,0,0.81,0.07,1.05,0.22
	c0.24,0.16,0.39,0.29,0.44,0.41l0.15,0.69c0.17-0.01,0.39-0.04,0.66-0.09c0.27-0.05,0.54-0.1,0.81-0.16s0.53-0.11,0.76-0.17
	c0.23-0.05,0.41-0.1,0.54-0.15c0.73-0.2,1.41-0.37,2.04-0.52c0.62-0.14,1.22-0.26,1.78-0.36c0.56-0.09,1.1-0.16,1.62-0.21
	c0.51-0.04,1.03-0.06,1.55-0.06c0.51,0,0.93,0.02,1.26,0.08c0.32,0.06,0.58,0.13,0.77,0.23c0.19,0.09,0.32,0.2,0.39,0.33
	c0.07,0.13,0.11,0.27,0.11,0.41s-0.04,0.28-0.11,0.43s-0.19,0.29-0.36,0.42c-0.17,0.14-0.39,0.26-0.65,0.36
	c-0.27,0.1-0.61,0.16-1.01,0.2C189.71,194.98,189.48,195.02,189.12,195.08z M210.68,193.43c-0.05,0.17-0.13,0.31-0.22,0.41
	c-0.09,0.11-0.18,0.19-0.29,0.23c-0.1,0.04-0.21,0.07-0.33,0.07c-0.3,0-0.57-0.04-0.82-0.1c-0.25-0.07-0.5-0.15-0.73-0.23
	c-0.24-0.08-0.47-0.16-0.7-0.23c-0.24-0.08-0.5-0.11-0.77-0.11c-0.83,0-1.67,0.16-2.52,0.49c-0.86,0.33-1.69,0.75-2.5,1.26
	c-0.81,0.5-1.57,1.07-2.29,1.7c-0.72,0.62-1.36,1.23-1.93,1.82c-0.3,0.31-0.52,0.62-0.66,0.94c-0.14,0.31-0.21,0.6-0.21,0.88
	c0,0.42,0.18,0.74,0.53,0.97c0.36,0.24,0.8,0.36,1.31,0.36c0.3,0,0.64-0.01,1.02-0.02s0.77-0.03,1.16-0.04
	c0.4-0.02,0.78-0.04,1.16-0.05c0.37-0.02,0.7-0.03,0.99-0.03c0.69,0,1.36,0.1,1.99,0.29c0.64,0.2,1.2,0.49,1.69,0.87
	c0.5,0.38,0.89,0.85,1.18,1.41c0.3,0.56,0.45,1.21,0.45,1.93c0,0.45-0.07,0.9-0.2,1.36c-0.14,0.46-0.32,0.92-0.56,1.38
	c-0.23,0.46-0.5,0.92-0.8,1.37s-0.62,0.9-0.95,1.33c-0.6,0.78-1.28,1.52-2.02,2.21c-0.74,0.69-1.53,1.3-2.37,1.81
	c-0.83,0.51-1.72,0.92-2.65,1.22s-1.89,0.45-2.87,0.45c-0.42,0-0.86-0.04-1.3-0.12c-0.45-0.07-0.89-0.19-1.33-0.34
	c-0.43-0.15-0.84-0.34-1.23-0.57c-0.38-0.23-0.72-0.49-1.01-0.78c-0.29-0.29-0.52-0.61-0.69-0.96c-0.18-0.35-0.26-0.73-0.26-1.14
	c0-0.2,0.03-0.4,0.09-0.58c0.06-0.19,0.21-0.28,0.46-0.28c0.38,0.14,0.77,0.29,1.16,0.47c0.4,0.18,0.81,0.35,1.23,0.51
	c0.43,0.16,0.87,0.3,1.33,0.41c0.47,0.11,0.96,0.17,1.48,0.17c0.62,0,1.24-0.07,1.86-0.22c0.63-0.14,1.24-0.36,1.83-0.64
	c0.6-0.29,1.17-0.63,1.72-1.04c0.55-0.41,1.05-0.88,1.51-1.41c0.5-0.57,0.92-1.09,1.25-1.55c0.34-0.47,0.61-0.88,0.81-1.24
	c0.21-0.36,0.36-0.68,0.45-0.94c0.08-0.26,0.13-0.49,0.13-0.68c0-0.27-0.1-0.52-0.29-0.72c-0.18-0.21-0.44-0.38-0.76-0.51
	c-0.31-0.14-0.67-0.24-1.08-0.3c-0.4-0.06-0.82-0.09-1.25-0.09c-0.26,0-0.56,0.01-0.9,0.03c-0.35,0.01-0.7,0.03-1.06,0.05
	c-0.36,0.01-0.7,0.03-1.04,0.04c-0.33,0.01-0.62,0.01-0.87,0.01c-0.37,0-0.75-0.04-1.14-0.12c-0.4-0.08-0.79-0.22-1.17-0.41
	s-0.73-0.45-1.05-0.77c-0.32-0.32-0.59-0.73-0.8-1.21c-0.07-0.15-0.13-0.34-0.19-0.55c-0.05-0.21-0.08-0.44-0.08-0.68
	c0-0.27,0.02-0.53,0.06-0.77c0.04-0.24,0.08-0.47,0.14-0.69c0.16-0.56,0.41-1.12,0.78-1.7c0.36-0.57,0.8-1.13,1.3-1.68
	c0.51-0.55,1.06-1.08,1.66-1.59c0.6-0.51,1.21-1,1.84-1.45c0.63-0.45,1.25-0.86,1.86-1.22c0.61-0.36,1.17-0.67,1.7-0.93
	c0.73-0.36,1.48-0.61,2.25-0.78c0.76-0.16,1.52-0.24,2.26-0.24c0.45,0,0.88,0.06,1.28,0.18c0.4,0.11,0.75,0.28,1.06,0.51
	c0.31,0.22,0.55,0.5,0.73,0.83c0.18,0.32,0.27,0.7,0.27,1.13C210.77,193.06,210.74,193.27,210.68,193.43z M230.74,195.08
	c-0.36,0.06-0.76,0.13-1.18,0.2c-0.43,0.08-0.83,0.15-1.21,0.21c-0.37,0.07-0.63,0.12-0.77,0.15c-0.06,0.01-0.22,0.06-0.47,0.13
	c-0.25,0.07-0.56,0.15-0.92,0.25c-0.35,0.09-0.74,0.2-1.16,0.33c-0.42,0.12-0.83,0.24-1.24,0.36c-0.4,0.11-0.78,0.22-1.13,0.33
	c-0.34,0.11-0.62,0.19-0.83,0.26c-0.68,0.27-1.22,0.62-1.6,1.06c-0.39,0.44-0.69,0.94-0.91,1.48c-0.05,0.1-0.11,0.27-0.2,0.51
	c-0.09,0.24-0.19,0.52-0.3,0.82c-0.1,0.31-0.22,0.64-0.34,0.98c-0.12,0.35-0.24,0.68-0.35,0.99c-0.11,0.31-0.21,0.6-0.29,0.85
	c-0.09,0.26-0.15,0.45-0.18,0.57c-0.03,0.11-0.06,0.21-0.07,0.3c-0.01,0.09-0.01,0.16-0.01,0.21c0,0.06,0.01,0.1,0.05,0.1
	c0.16,0,0.51-0.08,1.04-0.23c0.53-0.15,1.15-0.34,1.86-0.56c0.71-0.22,1.47-0.46,2.28-0.72c0.8-0.26,1.58-0.5,2.32-0.72
	c0.74-0.22,1.41-0.41,1.99-0.56c0.58-0.15,0.99-0.23,1.25-0.23c0.39,0,0.65,0.07,0.79,0.2c0.13,0.12,0.2,0.27,0.2,0.42
	c0,0.4-0.14,0.76-0.43,1.06c-0.28,0.3-0.64,0.56-1.06,0.78c-0.14,0.07-0.38,0.17-0.75,0.3c-0.36,0.12-0.75,0.26-1.17,0.39
	s-0.82,0.26-1.19,0.38c-0.38,0.13-0.66,0.22-0.82,0.27c-1.1,0.43-1.99,0.77-2.67,1.05c-0.69,0.27-1.24,0.49-1.67,0.67
	c-0.42,0.17-0.75,0.3-0.98,0.39c-0.23,0.09-0.44,0.17-0.63,0.23c-0.2,0.06-0.41,0.12-0.65,0.17c-0.23,0.06-0.56,0.14-0.97,0.24
	c-0.1,0.23-0.22,0.59-0.35,1.06c-0.13,0.47-0.26,0.96-0.38,1.47c-0.13,0.51-0.23,0.98-0.31,1.42c-0.09,0.43-0.13,0.73-0.13,0.9
	c0,0.2,0.03,0.35,0.08,0.44c0.06,0.1,0.13,0.16,0.2,0.2c0.08,0.03,0.16,0.05,0.24,0.05h0.18c0.54,0,1.18-0.08,1.94-0.24
	c0.75-0.15,1.49-0.36,2.23-0.62c0.7-0.24,1.32-0.51,1.84-0.8c0.53-0.29,1.02-0.56,1.48-0.81c0.46-0.25,0.92-0.47,1.36-0.64
	c0.44-0.17,0.92-0.26,1.44-0.27c0.12,0,0.25,0.01,0.4,0.03c0.15,0.02,0.29,0.06,0.42,0.12c0.14,0.07,0.25,0.15,0.33,0.25
	c0.08,0.1,0.12,0.23,0.09,0.38c-0.04,0.33-0.2,0.64-0.48,0.96c-0.28,0.31-0.63,0.61-1.06,0.9c-0.42,0.29-0.89,0.57-1.42,0.84
	c-0.52,0.26-1.06,0.52-1.61,0.76c-0.54,0.24-1.08,0.46-1.6,0.65c-0.53,0.2-0.99,0.37-1.41,0.51c-1.02,0.36-2.02,0.62-2.99,0.79
	c-0.97,0.16-1.84,0.25-2.61,0.25c-0.85,0-1.5-0.16-1.95-0.48c-0.46-0.32-0.68-0.84-0.68-1.58c0-0.39,0.05-0.8,0.17-1.24
	c0.38-1.52,0.82-3,1.33-4.46c0.5-1.45,0.96-2.9,1.38-4.34c0.41-1.44,0.75-2.65,1.03-3.64c0.27-0.99,0.51-1.84,0.72-2.54
	c0.22-0.71,0.41-1.32,0.59-1.84c0.18-0.51,0.37-1.02,0.59-1.52c0.13-0.3,0.28-0.61,0.44-0.94c0.16-0.32,0.34-0.62,0.53-0.89
	c0.19-0.28,0.38-0.5,0.59-0.67c0.21-0.17,0.42-0.26,0.64-0.26c0.46,0,0.81,0.07,1.05,0.22c0.24,0.16,0.39,0.29,0.44,0.41l0.15,0.69
	c0.17-0.01,0.39-0.04,0.66-0.09c0.27-0.05,0.54-0.1,0.81-0.16s0.53-0.11,0.76-0.17c0.23-0.05,0.41-0.1,0.54-0.15
	c0.73-0.2,1.41-0.37,2.04-0.52c0.62-0.14,1.22-0.26,1.78-0.36c0.56-0.09,1.1-0.16,1.61-0.21c0.52-0.04,1.04-0.06,1.56-0.06
	c0.51,0,0.93,0.02,1.26,0.08c0.32,0.06,0.58,0.13,0.77,0.23c0.19,0.09,0.32,0.2,0.39,0.33c0.07,0.13,0.11,0.27,0.11,0.41
	s-0.04,0.28-0.11,0.43s-0.19,0.29-0.36,0.42c-0.17,0.14-0.39,0.26-0.65,0.36c-0.27,0.1-0.61,0.16-1.01,0.2
	C231.33,194.98,231.1,195.02,230.74,195.08z M252.61,200.91c-0.09,0.8-0.21,1.57-0.35,2.33s-0.29,1.49-0.45,2.19
	c-0.16,0.71-0.31,1.34-0.45,1.91l-0.58,2.28c-0.02,0.06-0.07,0.2-0.13,0.4c-0.06,0.2-0.14,0.44-0.23,0.73
	c-0.1,0.28-0.2,0.59-0.32,0.92s-0.23,0.65-0.35,0.97c-0.12,0.32-0.23,0.61-0.34,0.88c-0.1,0.26-0.19,0.48-0.27,0.65l0.02-0.02
	c-0.08,0.29-0.17,0.59-0.26,0.89c-0.09,0.3-0.21,0.57-0.36,0.81c-0.16,0.24-0.36,0.44-0.61,0.59c-0.24,0.15-0.56,0.22-0.95,0.22
	c-0.23,0-0.44-0.04-0.62-0.13c-0.18-0.09-0.33-0.21-0.44-0.35c-0.12-0.15-0.21-0.32-0.27-0.5c-0.06-0.19-0.09-0.38-0.09-0.57
	c0-0.17,0.04-0.4,0.13-0.7c0.09-0.29,0.2-0.63,0.34-0.99c0.14-0.37,0.3-0.76,0.46-1.16c0.17-0.4,0.33-0.79,0.49-1.15
	c0.16-0.37,0.29-0.71,0.4-1.02c0.11-0.32,0.19-0.56,0.24-0.74c0.04-0.2,0.1-0.44,0.16-0.72c0.07-0.28,0.15-0.58,0.23-0.91
	c0.08-0.33,0.17-0.68,0.25-1.04s0.17-0.73,0.26-1.1c-0.16,0.04-0.35,0.07-0.58,0.1c-0.23,0.02-0.47,0.05-0.73,0.07
	c-0.36,0.03-0.73,0.08-1.08,0.15c-0.36,0.07-0.73,0.14-1.1,0.23c-0.37,0.08-0.76,0.17-1.16,0.27c-0.4,0.09-0.83,0.19-1.29,0.29
	c-0.67,0.14-1.34,0.31-2.01,0.48c-0.67,0.18-1.37,0.27-2.09,0.27c-0.22,0-0.43-0.06-0.62-0.17c-0.19-0.12-0.4-0.21-0.64-0.26
	c-0.22,0.35-0.43,0.74-0.63,1.14c-0.2,0.41-0.39,0.83-0.56,1.26c-0.16,0.43-0.31,0.85-0.45,1.27c-0.13,0.42-0.25,0.81-0.35,1.18
	c-0.05,0.2-0.1,0.46-0.14,0.78c-0.04,0.32-0.08,0.64-0.11,0.97c-0.03,0.33-0.07,0.64-0.1,0.94c-0.03,0.31-0.07,0.54-0.1,0.72
	c-0.03,0.17-0.1,0.34-0.2,0.5c-0.1,0.16-0.22,0.31-0.37,0.44c-0.14,0.13-0.31,0.24-0.48,0.33c-0.18,0.08-0.36,0.12-0.54,0.12
	c-0.31,0-0.57-0.09-0.76-0.27c-0.2-0.19-0.35-0.42-0.47-0.69c-0.12-0.27-0.2-0.57-0.24-0.9c-0.05-0.32-0.07-0.61-0.07-0.88
	c0-0.68,0.08-1.39,0.25-2.12c0.17-0.73,0.39-1.47,0.68-2.22c0.28-0.76,0.62-1.52,1-2.28c0.39-0.77,0.8-1.53,1.25-2.29
	c0.37-0.68,0.83-1.46,1.37-2.35c0.55-0.9,1.16-1.81,1.83-2.76c0.68-0.94,1.41-1.86,2.2-2.77c0.78-0.9,1.6-1.71,2.45-2.42
	c0.85-0.7,1.72-1.28,2.61-1.71c0.89-0.44,1.78-0.65,2.66-0.65c0.93,0,1.7,0.16,2.32,0.5c0.62,0.33,1.11,0.79,1.48,1.35
	c0.37,0.57,0.63,1.24,0.78,2c0.15,0.75,0.22,1.56,0.22,2.41C252.75,199.35,252.71,200.12,252.61,200.91z M274.2,210.61
	c-0.04,0.19-0.08,0.34-0.13,0.46c-0.13,0.21-0.3,0.41-0.52,0.58c-0.21,0.17-0.43,0.32-0.66,0.45c-0.24,0.13-0.47,0.24-0.69,0.33
	c-0.22,0.09-0.41,0.15-0.55,0.2c-0.18,0.07-0.42,0.16-0.71,0.27c-0.3,0.11-0.62,0.23-0.97,0.37c-0.34,0.13-0.7,0.27-1.07,0.41
	c-0.37,0.13-0.71,0.27-1.04,0.39c-0.32,0.12-0.61,0.23-0.86,0.32c-0.25,0.1-0.42,0.16-0.52,0.2c-0.48,0.18-1.02,0.38-1.6,0.6
	c-0.59,0.22-1.17,0.43-1.75,0.64c-0.58,0.2-1.13,0.37-1.65,0.51c-0.52,0.14-0.95,0.21-1.3,0.21c-0.42,0-0.75-0.04-0.99-0.11
	c-0.24-0.06-0.46-0.15-0.65-0.27s-0.38-0.26-0.57-0.43c-0.2-0.17-0.46-0.35-0.78-0.55c-0.29-0.18-0.5-0.42-0.62-0.74
	c-0.12-0.31-0.19-0.64-0.19-1c0-0.18,0.02-0.39,0.05-0.62c0.02-0.23,0.06-0.48,0.11-0.74c0.04-0.25,0.09-0.5,0.15-0.75
	c0.05-0.24,0.11-0.46,0.18-0.65l0.94-2.85c0.5-1.54,0.98-3.01,1.44-4.43c0.45-1.42,0.86-2.73,1.21-3.93
	c0.35-1.21,0.63-2.27,0.84-3.2c0.2-0.93,0.32-1.66,0.34-2.21c0.13-0.52,0.37-0.94,0.71-1.25c0.34-0.32,0.73-0.47,1.18-0.47
	c0.27,0,0.5,0.06,0.69,0.18c0.19,0.12,0.34,0.29,0.46,0.49c0.11,0.2,0.2,0.42,0.26,0.67c0.05,0.25,0.08,0.51,0.08,0.77
	c0,0.18-0.01,0.36-0.03,0.51c-0.03,0.16-0.05,0.31-0.09,0.46c-0.25,1.02-0.56,2.08-0.92,3.18c-0.35,1.09-0.72,2.2-1.09,3.32
	c-0.38,1.12-0.75,2.24-1.12,3.37c-0.36,1.13-0.69,2.23-0.98,3.31l-0.31,1.14c-0.15,0.58-0.29,1.13-0.4,1.66
	c-0.11,0.52-0.16,0.95-0.16,1.27c0,0.18,0.03,0.32,0.1,0.43c0.06,0.1,0.19,0.16,0.38,0.16c0.46,0,0.99-0.08,1.61-0.23
	c0.61-0.15,1.25-0.34,1.91-0.55c0.65-0.22,1.31-0.46,1.96-0.72c0.65-0.26,1.25-0.51,1.8-0.75c0.29-0.12,0.54-0.23,0.75-0.32
	c0.2-0.08,0.46-0.19,0.77-0.32c0.3-0.13,0.71-0.3,1.23-0.51c0.51-0.21,1.22-0.51,2.12-0.89c0.16-0.05,0.29-0.1,0.41-0.14
	c0.12-0.04,0.23-0.06,0.33-0.06c0.18,0,0.33,0.03,0.46,0.1s0.23,0.16,0.3,0.27c0.07,0.11,0.12,0.24,0.16,0.38
	c0.03,0.15,0.05,0.29,0.05,0.44C274.26,210.21,274.24,210.43,274.2,210.61z M249.31,196.9c-0.12-0.34-0.29-0.62-0.51-0.85
	c-0.23-0.23-0.55-0.34-0.97-0.34c-0.5,0-1,0.1-1.49,0.31c-0.5,0.21-0.99,0.48-1.47,0.81c-0.48,0.34-0.94,0.73-1.4,1.17
	c-0.45,0.45-0.88,0.91-1.28,1.38c-0.41,0.46-0.79,0.94-1.15,1.41c-0.36,0.47-0.68,0.91-0.97,1.31c-0.05,0.07-0.11,0.16-0.18,0.26
	c-0.07,0.11-0.14,0.23-0.22,0.35c-0.07,0.13-0.14,0.27-0.2,0.41c-0.07,0.13-0.13,0.26-0.17,0.37h1.72c0.63,0,1.34-0.04,2.14-0.13
	c0.81-0.09,1.6-0.2,2.39-0.32c0.79-0.12,1.51-0.25,2.17-0.38c0.65-0.12,1.15-0.22,1.49-0.29c0.04-0.14,0.08-0.34,0.12-0.58
	c0.04-0.25,0.08-0.52,0.11-0.83c0.03-0.3,0.06-0.62,0.08-0.96c0.01-0.34,0.02-0.69,0.02-1.04c0-0.29-0.01-0.63-0.03-1
	C249.48,197.59,249.42,197.23,249.31,196.9z"/>
</svg>
