<?xml version="1.0" encoding="utf-8"?>
<!-- Generator: Adobe Illustrator 27.3.1, SVG Export Plug-In . SVG Version: 6.00 Build 0)  -->
<svg version="1.1" id="Layer_1" xmlns="http://www.w3.org/2000/svg" xmlns:xlink="http://www.w3.org/1999/xlink" x="0px" y="0px"
	 viewBox="0 0 320 320" style="enable-background:new 0 0 320 320;" xml:space="preserve">
<style type="text/css">
	.st0{fill:#47B9D2;}
	.st1{fill:#42479D;}
</style>
<g>
	<path class="st0" d="M137.06,233.82c5.72,0,11.3-0.52,16.69-1.51c-0.45,0.25-0.92,0.48-1.39,0.7c-11.21,5.59-23.83,8.72-37.21,8.72
		c-46.19,0-83.64-37.44-83.64-83.64c0-46.19,37.45-83.63,83.64-83.63c13.38,0,26,3.13,37.21,8.72c0.47,0.22,0.94,0.46,1.39,0.7
		c-5.4-0.99-10.97-1.51-16.69-1.51c-46.2,0-83.64,33.9-83.64,75.71C53.42,199.91,90.86,233.82,137.06,233.82z"/>
	<path class="st1" d="M153.75,232.31c0.47-0.09,0.92-0.17,1.38-0.26c-0.91,0.34-1.83,0.66-2.77,0.96
		c-8.72,2.94-18.11,4.54-27.89,4.54c-46.19,0-83.64-35.58-83.64-79.46s37.45-79.44,83.64-79.44c9.78,0,19.16,1.6,27.89,4.54
		c0.94,0.3,1.86,0.62,2.77,0.96c-0.45-0.09-0.91-0.17-1.38-0.26c-5.4-0.99-10.97-1.51-16.69-1.51c-46.2,0-83.64,33.9-83.64,75.71
		c0,41.82,37.44,75.73,83.64,75.73C142.78,233.82,148.36,233.3,153.75,232.31z"/>
</g>
<g>
	<path class="st1" d="M81.88,155.93c-0.34-0.27-0.65-0.51-0.96-0.79c-0.1-0.1-0.24-0.27-0.31-0.41c-0.21-0.38-0.17-0.51,0.24-0.68
		l1.37-0.65c0.31-0.14,0.41-0.38,0.51-0.68c0.62-2.06,1.23-4.11,1.88-6.13c0.27-0.89,0.72-1.71,1.1-2.57
		c0.1-0.27,0.24-0.62,0.58-0.62c0.38,0.03,0.58,0.31,0.72,0.62c0,0.03,0,0.03,0.03,0.1c-1.2,2.5-1.92,5.17-2.74,7.91
		c0.17-0.03,0.24-0.07,0.27-0.1c2.43-1.58,4.86-3.15,7.09-5c0.62-0.48,1.13-1.06,1.58-1.68c0.31-0.41,0.51-0.92,0.69-1.44
		c0.14-0.55-0.03-0.86-0.55-1.16c-0.72-0.38-1.47-0.55-2.26-0.58c-1.68-0.1-3.25,0.34-4.76,1.03c-2.16,0.96-4.14,2.23-5.79,4.01
		c-0.62,0.68-1.16,1.4-1.54,2.23c-0.27,0.58-0.48,1.16-0.03,1.78c0.07,0.07,0.03,0.17,0.07,0.34c-0.17-0.03-0.34-0.03-0.44-0.1
		c-0.96-0.51-1.4-1.61-1.03-2.67c0.34-0.89,0.86-1.68,1.51-2.4c2.3-2.6,5.1-4.38,8.5-5.31c1.47-0.41,2.98-0.41,4.49,0.03
		c0.92,0.27,1.71,0.75,2.36,1.51c0.82,0.96,1.03,1.99,0.51,3.15c-0.41,0.96-1.06,1.75-1.75,2.47c-1.2,1.3-2.64,2.29-4.11,3.29
		l-2.33,1.51c-0.1,0.07-0.21,0.14-0.41,0.31c0.27,0.03,0.41,0.07,0.58,0.07c1.23,0.14,2.4,0.41,3.46,0.99
		c2.77,1.47,4.28,3.73,4.38,6.92c0.07,2.26-0.65,4.28-1.85,6.13c-2.43,3.77-5.82,6.27-10.14,7.43c-0.79,0.21-1.64,0.27-2.5,0.41
		c-0.14,0.62,0.07,1.37-0.27,2.06c-0.55-0.14-0.55-0.62-0.65-0.96c-0.14-0.38-0.21-0.75-0.31-1.13c-0.68-0.14-1.33-0.24-1.99-0.41
		c-0.44-0.14-0.92-0.34-1.34-0.55c-1.82-0.96-2.26-2.3-1.99-4.11c0.1-0.65,0.34-1.34,0.69-1.92c1.2-2.19,2.64-4.18,4.38-5.93
		c0.51-0.51,1.1-0.92,1.64-1.37c0.14-0.14,0.31-0.27,0.34-0.45C81.19,158.94,81.54,157.44,81.88,155.93z M80.23,163.05
		c-0.14,0.07-0.17,0.1-0.21,0.1c-1.68,1.78-3.05,3.77-4.18,5.93c-0.41,0.82-0.58,1.71-0.48,2.64c0.07,1.06,0.65,1.75,1.71,1.95
		c0.48,0.1,0.99,0.14,1.51,0.17c0.14,0.03,0.27-0.03,0.44-0.03c-0.07-1.85,0.07-3.63,0.34-5.41
		C79.62,166.65,79.93,164.87,80.23,163.05z M83.86,161.51c-0.24-0.1-0.41-0.17-0.62-0.24c-0.58-0.17-1.34,0.21-1.47,0.79
		c-0.68,3.25-1.3,6.54-1.51,9.87c-0.03,0.62,0,1.23,0,1.82c0.07,0.03,0.14,0.03,0.21,0.03c0.27-0.07,0.55-0.1,0.82-0.17
		c4.52-1.23,8.08-3.8,10.48-7.88c0.99-1.71,1.61-3.56,1.54-5.55c-0.07-3.05-1.33-4.56-4.01-5.34c-1.75-0.51-3.49-0.55-5.28-0.24
		c-0.34,0.07-0.51,0.27-0.62,0.62c-0.27,1.16-0.58,2.33-0.86,3.49c-0.14,0.48-0.24,0.96-0.34,1.44
		C83.63,160.62,83.86,160.83,83.86,161.51z"/>
	<path class="st1" d="M123.27,144.49c-0.62-0.07-0.89-0.41-0.82-1.03c0.1-0.75,0.03-1.47-0.14-2.23c-0.17-0.75-0.44-1.51-0.92-2.16
		c-0.99-1.3-2.54-1.51-3.77-0.41c-0.55,0.48-1.03,1.06-1.47,1.68c-1.06,1.58-1.82,3.32-2.43,5.1c-0.99,2.77-1.92,5.58-2.88,8.39
		c-1.37,3.91-2.84,7.78-4.73,11.44c-0.86,1.64-1.78,3.22-3.02,4.59c-0.48,0.55-0.99,0.99-1.54,1.54c0.1,0.07,0.17,0.14,0.27,0.17
		c4.04,1.82,8.19,3.43,12.5,4.49c1.75,0.41,3.49,0.72,5.31,0.65c0.89-0.03,1.75-0.21,2.57-0.55c0.65-0.27,1.34-0.51,1.99-0.79
		c0.21-0.07,0.41-0.1,0.51,0.07c0.07,0.14,0.03,0.34,0,0.51c-0.21,0.51-0.65,0.82-1.13,1.1c-0.75,0.41-1.54,0.62-2.4,0.72
		c-2.43,0.24-4.76-0.21-7.09-0.79c-4.11-1.03-8.05-2.54-11.92-4.25l-0.17-0.07c-0.44-0.21-0.89-0.44-1.37-0.55
		c-0.51-0.1-0.89,0.31-1.34,0.51c-0.68,0.27-1.3,0.24-1.88-0.21c-0.48-0.38-0.51-0.72-0.03-1.06c0.38-0.24,0.79-0.44,1.23-0.55
		c0.31-0.07,0.58-0.17,0.86-0.34c1.54-1.06,2.67-2.5,3.66-4.04c1.58-2.43,2.77-5.03,3.9-7.67c1.64-3.77,2.91-7.64,4.28-11.47
		c0.75-2.12,1.54-4.21,2.6-6.2c0.51-0.92,1.1-1.82,1.75-2.67c0.34-0.48,0.82-0.89,1.3-1.27c0.89-0.69,1.92-0.75,2.91-0.27
		c0.51,0.27,1.03,0.62,1.44,1.03c1.34,1.4,2.05,3.08,2.09,5C123.41,143.46,123.3,143.97,123.27,144.49z"/>
	<path class="st1" d="M129,172.47l0.34-0.55c0.51-0.99,0.99-1.99,1.54-2.95c0.21-0.38,0.48-0.72,0.75-1.06
		c0.03-0.07,0.21-0.14,0.27-0.1c0.1,0.03,0.17,0.21,0.17,0.27c-0.07,0.38-0.1,0.75-0.21,1.1c-0.55,1.75-1.37,3.32-2.3,4.86
		c-0.41,0.69-0.86,0.75-1.51,0.41c-0.41-0.17-0.58-0.55-0.58-0.96c0.03-0.58,0.07-1.2,0.14-1.82c0.38-2.53,0.99-5,1.68-7.43
		c1.1-3.97,2.6-7.81,4.38-11.54l0.31-0.65c-0.03-0.03-0.07-0.07-0.1-0.07c-0.17,0.17-0.34,0.38-0.48,0.55
		c-2.23,2.54-4.38,5.1-6.65,7.64c-1.4,1.57-2.95,3.05-4.62,4.31l-0.92,0.62c-1.54,0.93-3.05,0.1-3.66-0.99
		c-0.48-0.79-0.68-1.68-0.86-2.57c-0.41-2.26-0.24-4.52,0.21-6.75c0.86-4.11,2.4-7.95,4.62-11.51c0.48-0.79,1.06-1.47,1.61-2.19
		c0.14-0.17,0.34-0.34,0.51-0.48c0.27-0.27,0.58-0.51,0.99-0.34c0.45,0.21,0.82,0.62,0.89,1.13c-0.51,0-0.79,0.38-1.06,0.72
		c-1.1,1.34-1.92,2.84-2.67,4.38c-1.58,3.22-2.78,6.58-3.39,10.11c-0.38,2.12-0.48,4.28,0.07,6.41c0.1,0.48,0.24,0.99,0.65,1.44
		c0.41-0.21,0.82-0.41,1.2-0.68c1.3-0.89,2.43-1.95,3.56-3.02c2.26-2.19,4.35-4.52,6.37-6.92c2.74-3.32,5.48-6.65,8.19-9.97
		c0.44-0.55,0.86-1.13,1.27-1.71c0.21-0.21,0.34-0.55,0.75-0.45c0.34,0.1,0.89,0.62,0.92,0.96c0,0.14-0.07,0.34-0.17,0.48
		c-0.34,0.48-0.72,0.92-1.06,1.4c-0.38,0.51-0.75,0.99-1.06,1.51c-3.32,5.69-6.1,11.61-8.12,17.88
		C130.06,166.72,129.17,170.42,129,172.47z"/>
	<path class="st1" d="M137.3,159.83c-0.03-0.03-0.07-0.07-0.1-0.14c-0.38-0.48-0.38-0.69,0.14-0.96c0.38-0.24,0.58-0.51,0.72-0.92
		c1.85-4.97,4.28-9.63,7.16-14.08l0.45-0.69c-0.51,0.17-0.51,0.17-0.86,0.55c-0.45-0.07-0.72-0.41-0.92-0.82
		c-0.14-0.27-0.1-0.48,0.21-0.69c0.38-0.27,0.79-0.51,1.2-0.68c0.58-0.31,1.2-0.55,1.85-0.79c0.27-0.1,0.51-0.24,0.68-0.51
		c0.14-0.21,0.34-0.38,0.51-0.55c0.44-0.44,0.65-0.44,1.13-0.07c0.07,0.07,0.14,0.14,0.21,0.17c1.37-0.41,2.67-0.82,4.04-1.17
		c1.2-0.31,2.43-0.55,3.63-0.75c0.55-0.07,1.13,0,1.71,0.07c0.62,0.07,1.06,0.45,1.44,0.96c0.1,0.14,0.14,0.31,0.24,0.58
		c-0.21-0.03-0.34-0.03-0.38-0.07c-0.72-0.58-1.54-0.48-2.33-0.38c-2.43,0.38-4.73,1.1-7.02,1.88c-0.58,0.24-1.16,0.44-1.78,0.65
		c-0.24,0.1-0.41,0.24-0.58,0.48c-3.05,4.73-5.72,9.63-7.88,14.87c-0.03,0.07-0.03,0.17-0.1,0.31c0.24-0.07,0.41-0.14,0.55-0.21
		c2.26-0.93,4.52-1.78,6.89-2.33c1.03-0.24,2.09-0.41,3.15-0.17c0.62,0.1,0.96,0.31,1.3,0.75c-0.21,0.07-0.41,0.17-0.62,0.17
		c-2.6-0.1-4.97,0.79-7.36,1.71c-1.4,0.55-2.81,1.23-4.21,1.82c-0.34,0.14-0.51,0.34-0.62,0.65c-0.62,1.95-1.2,3.9-1.51,5.96
		c-0.14,0.96-0.24,1.92-0.07,2.88c0.1,0.58,0.27,1.1,0.62,1.61c0.38,0.55,0.92,0.89,1.61,0.89c2.95,0,5.82-0.44,8.53-1.64
		c1.68-0.72,3.05-1.81,3.97-3.43c0.21-0.41,0.55-0.75,0.86-1.1c0.07-0.14,0.31-0.21,0.44-0.17c0.1,0,0.21,0.21,0.24,0.34
		c0.14,0.58-0.07,1.13-0.31,1.64c-0.51,0.96-1.2,1.75-2.06,2.36c-1.37,0.99-2.95,1.64-4.59,2.09c-2.3,0.62-4.62,0.92-7.02,0.82
		c-0.75-0.03-1.47-0.21-2.16-0.51c-1.47-0.68-2.09-1.92-2.23-3.43c-0.17-1.58,0.03-3.12,0.38-4.66L137.3,159.83z"/>
	<path class="st1" d="M168.45,157.81c0.89-0.24,1.68-0.51,2.47-0.69c2.88-0.48,5.58-0.07,8.01,1.58c0.21,0.14,0.45,0.24,0.41,0.58
		c-0.21-0.03-0.38-0.1-0.58-0.14c-1.47-0.45-2.95-0.86-4.49-0.93c-1.85-0.07-3.66,0.38-5.34,1.2c0.03,0.14,0.03,0.31,0.07,0.44
		c0.44,1.75,0.86,3.53,1.06,5.34c0.31,2.64,0.2,5.28-0.79,7.78c-1.1,2.84-3.05,4.9-5.82,6.13c-4.11,1.81-7.71-1.64-7.77-5.04
		c-0.03-0.92,0.1-1.82,0.44-2.64c1.82-4.25,4.32-7.95,7.88-10.89c0.96-0.79,2.06-1.44,3.15-2.19c-0.17-0.58-0.34-1.23-0.52-1.88
		c-0.55-2.02-1.16-4.01-1.64-6c-0.24-0.96-0.31-1.95-0.34-2.95c-0.07-1.99,0.65-3.73,1.95-5.24c2.13-2.33,4.73-3.77,7.88-4.11
		c2.23-0.27,4.35,0.03,6.23,1.34c2.19,1.54,3.43,3.66,3.25,6.44c-0.07,1.16-0.65,2.12-1.47,2.95c-0.38,0.38-0.62,0.38-0.89,0.07
		c-0.27-0.27-0.27-0.38-0.07-0.72c0.48-0.65,0.92-1.37,1.13-2.19c0.69-2.67-0.72-5.17-3.32-6.03c-1.65-0.55-3.32-0.55-5-0.14
		c-2.54,0.58-4.66,1.88-6.41,3.84c-1.51,1.71-1.99,3.77-1.64,5.99c0.17,1.13,0.48,2.26,0.79,3.39c0.38,1.44,0.82,2.88,1.27,4.31
		L168.45,157.81z M167.59,160.11c-1.03,0.62-1.92,1.27-2.74,1.99c-2.12,1.92-3.8,4.14-5.24,6.58c-0.79,1.3-1.47,2.67-1.99,4.11
		c-0.48,1.37-0.44,2.74,0.27,4.04c0.55,1.06,1.3,1.4,2.47,1.27c0.79-0.1,1.54-0.34,2.26-0.72c3.43-1.82,5.21-4.73,5.72-8.5
		C168.73,165.93,168.28,163.05,167.59,160.11z"/>
	<path class="st1" d="M178.12,159.83c-0.03-0.03-0.07-0.07-0.1-0.14c-0.38-0.48-0.38-0.69,0.14-0.96c0.38-0.24,0.58-0.51,0.72-0.92
		c1.85-4.97,4.28-9.63,7.16-14.08l0.45-0.69c-0.51,0.17-0.51,0.17-0.86,0.55c-0.45-0.07-0.72-0.41-0.93-0.82
		c-0.14-0.27-0.1-0.48,0.21-0.69c0.38-0.27,0.79-0.51,1.2-0.68c0.58-0.31,1.2-0.55,1.85-0.79c0.27-0.1,0.51-0.24,0.69-0.51
		c0.14-0.21,0.34-0.38,0.51-0.55c0.44-0.44,0.65-0.44,1.13-0.07c0.07,0.07,0.14,0.14,0.21,0.17c1.37-0.41,2.67-0.82,4.04-1.17
		c1.2-0.31,2.43-0.55,3.63-0.75c0.55-0.07,1.13,0,1.71,0.07c0.62,0.07,1.06,0.45,1.44,0.96c0.1,0.14,0.14,0.31,0.24,0.58
		c-0.21-0.03-0.34-0.03-0.38-0.07c-0.72-0.58-1.54-0.48-2.33-0.38c-2.43,0.38-4.72,1.1-7.02,1.88c-0.58,0.24-1.17,0.44-1.78,0.65
		c-0.24,0.1-0.41,0.24-0.58,0.48c-3.05,4.73-5.72,9.63-7.88,14.87c-0.04,0.07-0.04,0.17-0.1,0.31c0.24-0.07,0.41-0.14,0.55-0.21
		c2.26-0.93,4.52-1.78,6.89-2.33c1.03-0.24,2.09-0.41,3.15-0.17c0.62,0.1,0.96,0.31,1.3,0.75c-0.2,0.07-0.41,0.17-0.62,0.17
		c-2.6-0.1-4.96,0.79-7.36,1.71c-1.41,0.55-2.81,1.23-4.21,1.82c-0.34,0.14-0.51,0.34-0.62,0.65c-0.62,1.95-1.2,3.9-1.51,5.96
		c-0.14,0.96-0.24,1.92-0.07,2.88c0.1,0.58,0.28,1.1,0.62,1.61c0.38,0.55,0.93,0.89,1.61,0.89c2.95,0,5.82-0.44,8.53-1.64
		c1.68-0.72,3.05-1.81,3.97-3.43c0.21-0.41,0.55-0.75,0.86-1.1c0.07-0.14,0.31-0.21,0.45-0.17c0.1,0,0.21,0.21,0.24,0.34
		c0.14,0.58-0.07,1.13-0.31,1.64c-0.51,0.96-1.2,1.75-2.06,2.36c-1.37,0.99-2.95,1.64-4.59,2.09c-2.3,0.62-4.62,0.92-7.02,0.82
		c-0.75-0.03-1.47-0.21-2.16-0.51c-1.47-0.68-2.09-1.92-2.23-3.43c-0.17-1.58,0.03-3.12,0.38-4.66L178.12,159.83z"/>
	<path class="st1" d="M200.78,162.85l-1.61,0.86c-0.48,0.27-1.37-0.21-1.37-0.75c0-0.14,0.17-0.34,0.34-0.41
		c0.58-0.34,1.23-0.62,1.85-0.92c0.38-0.17,0.89-0.24,1.13-0.55c0.24-0.27,0.24-0.75,0.31-1.16c0.82-3.56,1.89-7.02,3.56-10.24
		c1.4-2.67,3.05-5.17,5.27-7.26c1.03-0.96,2.16-1.78,3.43-2.47c0.24-0.17,0.51-0.27,0.79-0.38c1.27-0.48,2.5,0.14,2.81,1.44
		c0.14,0.65,0.17,1.41,0.03,2.09c-0.31,1.99-0.72,3.94-1.17,5.93c-0.68,3.15-1.3,6.37-1.71,9.59c-0.27,2.16-0.48,4.35-0.72,6.51
		l-0.55,5.17c-0.07,0.58-0.1,1.13-0.1,1.71c-0.03,0.38,0,0.75,0,1.23c-0.27,0.24-0.69,0.14-1.1,0c-0.34-0.1-0.48-0.41-0.48-0.79
		c0-0.96,0-1.92,0.03-2.88c0.04-1.44,0.14-2.84,0.21-4.25c0.07-1.13,0.17-2.23,0.24-3.32v-0.68c-1.03-0.55-2.12-0.72-3.25-0.62
		c-1.99,0.14-3.87,0.68-5.75,1.34c-0.31,0.1-0.45,0.27-0.51,0.62c-0.38,1.95-0.65,3.97-0.79,5.96c-0.1,1.03-0.14,2.02-0.2,3.08
		c-0.62,0.17-1.13-0.03-1.2-0.68c-0.1-0.86-0.14-1.75-0.07-2.6c0.14-1.75,0.41-3.53,0.62-5.27
		C200.81,163.05,200.81,163.02,200.78,162.85z M212.05,160.49c0.2-1.47,0.38-2.91,0.58-4.35c0.48-3.22,1.27-6.37,2.02-9.56
		c0.45-1.68,0.79-3.39,1.17-5.1c0.07-0.24,0.03-0.48,0.07-0.86c-0.58,0.24-1.03,0.38-1.47,0.62c-1.44,0.79-2.67,1.82-3.8,2.98
		c-1.65,1.78-2.98,3.77-4.11,5.89c-1.68,3.19-2.71,6.61-3.53,10.07c-0.03,0.1,0,0.24,0,0.38c0.14-0.03,0.24-0.03,0.31-0.07
		c1.03-0.24,2.02-0.51,3.05-0.69c1.95-0.38,3.87-0.34,5.62,0.69H212.05z"/>
	<path class="st1" d="M244.08,144.49c-0.62-0.07-0.89-0.41-0.82-1.03c0.1-0.75,0.03-1.47-0.14-2.23c-0.17-0.75-0.45-1.51-0.93-2.16
		c-0.99-1.3-2.53-1.51-3.77-0.41c-0.55,0.48-1.03,1.06-1.47,1.68c-1.06,1.58-1.82,3.32-2.43,5.1c-0.99,2.77-1.92,5.58-2.88,8.39
		c-1.37,3.91-2.84,7.78-4.73,11.44c-0.86,1.64-1.78,3.22-3.02,4.59c-0.48,0.55-0.99,0.99-1.54,1.54c0.1,0.07,0.17,0.14,0.28,0.17
		c4.04,1.82,8.19,3.43,12.5,4.49c1.75,0.41,3.49,0.72,5.31,0.65c0.89-0.03,1.75-0.21,2.57-0.55c0.65-0.27,1.34-0.51,1.99-0.79
		c0.21-0.07,0.41-0.1,0.52,0.07c0.07,0.14,0.03,0.34,0,0.51c-0.21,0.51-0.65,0.82-1.13,1.1c-0.75,0.41-1.54,0.62-2.4,0.72
		c-2.43,0.24-4.76-0.21-7.09-0.79c-4.11-1.03-8.05-2.54-11.92-4.25l-0.17-0.07c-0.45-0.21-0.89-0.44-1.37-0.55
		c-0.51-0.1-0.89,0.31-1.34,0.51c-0.69,0.27-1.3,0.24-1.89-0.21c-0.48-0.38-0.51-0.72-0.03-1.06c0.38-0.24,0.79-0.44,1.23-0.55
		c0.31-0.07,0.58-0.17,0.86-0.34c1.54-1.06,2.67-2.5,3.66-4.04c1.58-2.43,2.78-5.03,3.91-7.67c1.64-3.77,2.91-7.64,4.28-11.47
		c0.75-2.12,1.54-4.21,2.6-6.2c0.51-0.92,1.1-1.82,1.75-2.67c0.34-0.48,0.82-0.89,1.3-1.27c0.89-0.69,1.92-0.75,2.91-0.27
		c0.51,0.27,1.03,0.62,1.44,1.03c1.34,1.4,2.06,3.08,2.09,5C244.22,143.46,244.12,143.97,244.08,144.49z"/>
</g>
</svg>
