<?xml version="1.0" encoding="utf-8"?>
<!-- Generator: Adobe Illustrator 27.3.1, SVG Export Plug-In . SVG Version: 6.00 Build 0)  -->
<svg version="1.1" id="Layer_1" xmlns="http://www.w3.org/2000/svg" xmlns:xlink="http://www.w3.org/1999/xlink" x="0px" y="0px"
	 viewBox="0 0 320 320" style="enable-background:new 0 0 320 320;" xml:space="preserve">
<style type="text/css">
	.st0{fill:url(#SVGID_1_);}
	.st1{fill:#42479D;}
</style>
<linearGradient id="SVGID_1_" gradientUnits="userSpaceOnUse" x1="45.859" y1="158.9643" x2="146.7488" y2="158.9643">
	<stop  offset="0.3244" style="stop-color:#42479D"/>
	<stop  offset="1" style="stop-color:#47B9D2"/>
</linearGradient>
<path class="st0" d="M130.59,177.74c0,3.88-1.14,7.86-3.43,11.95c-2.29,4.09-5.94,7.92-10.95,11.47c-1.56,1.08-3.46,2.25-5.69,3.51
	c-2.23,1.27-4.66,2.54-7.27,3.84c-2.61,1.29-5.36,2.54-8.24,3.76c-2.88,1.21-5.79,2.28-8.72,3.19c-2.93,0.92-5.8,1.66-8.6,2.22
	c-2.8,0.57-5.44,0.85-7.92,0.85c-1.24,0-2.3-0.09-3.19-0.28s-1.71-0.53-2.46-1.01s-1.48-1.16-2.18-2.02
	c-0.7-0.86-1.45-1.94-2.26-3.23c-1.29,0.97-2.65,1.68-4.08,2.14s-2.87,0.69-4.32,0.69h-2.26c-0.43,0-0.83-0.15-1.21-0.44
	c-0.38-0.3-0.71-0.66-1.01-1.09c-0.3-0.43-0.53-0.9-0.69-1.41c-0.16-0.51-0.24-1.01-0.24-1.49c0-2.75,0.39-5.37,1.17-7.88
	c0.78-2.5,1.68-4.99,2.71-7.47c1.51-4.58,3.04-9.38,4.6-14.42c1.56-5.04,3.07-10.08,4.52-15.15s2.84-10.06,4.16-14.98
	c1.32-4.93,2.54-9.6,3.68-14.01l2.26-9.37c0-0.16-0.03-0.62-0.08-1.37c-0.05-0.75-0.12-1.58-0.2-2.46c-0.08-0.89-0.15-1.71-0.2-2.46
	l-0.08-1.05l0.4-1.37l-0.08,0.08c0.27-0.97,0.65-2.07,1.13-3.31s1.08-2.4,1.78-3.47c0.7-1.08,1.47-1.98,2.3-2.71
	c0.83-0.73,1.74-1.09,2.71-1.09c0.92,0,2.09,0.07,3.51,0.2c1.43,0.13,2.71,0.2,3.84,0.2c0.54,0,1.06-0.03,1.58-0.08
	c0.51-0.05,1.16-0.19,1.94-0.4c0.78-0.22,1.8-0.53,3.07-0.93s2.92-0.96,4.97-1.66c3.07-1.08,5.88-1.98,8.44-2.71
	c2.56-0.73,4.98-1.32,7.27-1.78s4.51-0.79,6.66-1.01c2.15-0.22,4.36-0.32,6.62-0.32c2.85,0,5.61,0.27,8.28,0.81
	c2.67,0.54,5.04,1.41,7.11,2.63c2.07,1.21,3.73,2.8,4.97,4.77s1.86,4.35,1.86,7.15c0,4.79-1.27,9.1-3.8,12.92
	c-2.53,3.82-6.11,7.38-10.74,10.66c-4.63,3.28-10.19,6.34-16.68,9.17c-6.49,2.83-13.72,5.61-21.69,8.36
	c6.35,0.97,11.83,2.11,16.44,3.43c4.6,1.32,8.41,2.87,11.43,4.64c3.02,1.78,5.25,3.8,6.7,6.06
	C129.87,172.25,130.59,174.84,130.59,177.74z M103.13,170.31c-0.54-0.11-1.52-0.3-2.95-0.57c-1.43-0.27-3.1-0.57-5.01-0.89
	c-1.91-0.32-3.97-0.66-6.18-1.01c-2.21-0.35-4.31-0.7-6.3-1.05c-1.99-0.35-3.81-0.69-5.45-1.01s-2.84-0.59-3.59-0.81
	c-2.05,6.62-3.84,12.96-5.37,19.02c-1.53,6.06-3.08,12.16-4.64,18.3l5.33,0.57c1.24,0.11,2.33,0.2,3.27,0.28
	c0.94,0.08,1.49,0.12,1.66,0.12c2.15-0.22,4.52-0.63,7.11-1.25s5.26-1.4,8.04-2.34c2.77-0.94,5.59-2.05,8.44-3.31
	c2.85-1.27,5.65-2.63,8.4-4.08c1.02-0.65,2.1-1.43,3.23-2.34c1.13-0.92,2.15-1.93,3.07-3.03s1.67-2.28,2.26-3.51s0.89-2.5,0.89-3.8
	c0-2.15-1.13-4.03-3.39-5.61S106.74,171.18,103.13,170.31z M77.6,151.57c3.02-0.97,6.19-2.11,9.53-3.43s6.77-2.76,10.3-4.32
	c3.53-1.56,7.11-3.22,10.74-4.97s7.26-3.51,10.86-5.29h-0.08c1.29-0.7,2.57-1.55,3.84-2.54c1.27-1,2.4-2.07,3.39-3.23
	c1-1.16,1.8-2.37,2.42-3.63c0.62-1.27,0.93-2.52,0.93-3.76c0-0.81-0.19-1.62-0.57-2.42c-0.38-0.81-0.97-1.53-1.78-2.18
	c-0.81-0.65-1.87-1.16-3.19-1.53c-1.32-0.38-2.95-0.57-4.89-0.57c-2.69,0-5.74,0.34-9.13,1.01c-3.39,0.67-6.68,1.52-9.85,2.54
	c-3.18,1.02-6,2.15-8.48,3.39c-2.48,1.24-4.12,2.42-4.93,3.55c-0.16,0.27-0.39,0.86-0.69,1.78s-0.63,1.93-1.01,3.03
	c-0.38,1.1-0.77,2.17-1.17,3.19c-0.4,1.02-0.79,1.78-1.17,2.26c-0.11,0.54-0.32,1.36-0.65,2.46c-0.32,1.1-0.71,2.41-1.17,3.92
	s-0.97,3.18-1.53,5.01S78.2,149.58,77.6,151.57z"/>
<g>
	<path class="st1" d="M126.92,209c0.5-1.54,0.98-3.02,1.44-4.43c0.46-1.42,0.86-2.73,1.21-3.93c0.35-1.2,0.63-2.27,0.84-3.2
		c0.21-0.93,0.32-1.66,0.34-2.21c0.13-0.52,0.37-0.94,0.71-1.26c0.34-0.31,0.73-0.47,1.18-0.47c0.27,0,0.5,0.06,0.69,0.18
		c0.19,0.12,0.34,0.28,0.46,0.49c0.12,0.2,0.2,0.43,0.26,0.68s0.08,0.5,0.08,0.76c0,0.19-0.01,0.36-0.03,0.52s-0.05,0.31-0.08,0.45
		c-0.26,1.03-0.56,2.09-0.92,3.18c-0.36,1.09-0.72,2.2-1.1,3.32c-0.37,1.12-0.74,2.25-1.11,3.37c-0.37,1.13-0.7,2.23-0.99,3.31
		l-0.3,1.14c-0.16,0.58-0.29,1.13-0.4,1.66c-0.11,0.52-0.17,0.95-0.17,1.27c0,0.18,0.03,0.32,0.1,0.43c0.07,0.11,0.2,0.16,0.38,0.16
		c0.46,0,0.99-0.08,1.61-0.23c0.61-0.15,1.25-0.33,1.91-0.55c0.66-0.22,1.31-0.46,1.97-0.72s1.25-0.51,1.8-0.74
		c0.29-0.12,0.54-0.23,0.74-0.32c0.21-0.09,0.46-0.2,0.77-0.33c0.31-0.13,0.72-0.3,1.23-0.51c0.51-0.21,1.22-0.51,2.13-0.89
		c0.16-0.06,0.29-0.1,0.41-0.14s0.23-0.06,0.33-0.06c0.18,0,0.33,0.03,0.46,0.1c0.13,0.07,0.23,0.16,0.3,0.27
		c0.07,0.11,0.13,0.24,0.16,0.38c0.03,0.15,0.05,0.29,0.05,0.44c0,0.25-0.02,0.46-0.06,0.64s-0.08,0.34-0.13,0.46
		c-0.13,0.21-0.31,0.4-0.52,0.58s-0.44,0.32-0.67,0.45c-0.23,0.13-0.46,0.24-0.69,0.33c-0.22,0.09-0.41,0.16-0.55,0.2
		c-0.18,0.07-0.42,0.16-0.71,0.27c-0.3,0.11-0.62,0.23-0.96,0.37c-0.35,0.13-0.7,0.27-1.07,0.41c-0.37,0.14-0.71,0.27-1.04,0.39
		s-0.61,0.23-0.86,0.33c-0.25,0.09-0.43,0.16-0.53,0.19c-0.48,0.18-1.01,0.38-1.6,0.6s-1.17,0.44-1.75,0.64
		c-0.58,0.2-1.13,0.37-1.65,0.51c-0.52,0.14-0.95,0.21-1.3,0.21c-0.42,0-0.76-0.03-1-0.1s-0.45-0.16-0.64-0.28
		c-0.19-0.12-0.38-0.26-0.58-0.43c-0.2-0.17-0.45-0.35-0.78-0.55c-0.29-0.18-0.5-0.42-0.62-0.74c-0.12-0.31-0.18-0.65-0.18-1
		c0-0.18,0.01-0.38,0.04-0.62c0.03-0.23,0.06-0.48,0.11-0.74c0.04-0.26,0.09-0.51,0.15-0.75c0.06-0.25,0.12-0.46,0.18-0.65
		L126.92,209z"/>
	<path class="st1" d="M147.49,209.58c0.25-1.13,0.51-2.13,0.79-3.02c0.28-0.89,0.57-1.71,0.85-2.48c0.28-0.76,0.54-1.49,0.79-2.19
		c0.25-0.7,0.47-1.42,0.66-2.17l0.2-0.8c0.04-0.2,0.08-0.45,0.12-0.75c0.03-0.3,0.07-0.62,0.11-0.95c0.04-0.33,0.09-0.66,0.16-0.98
		c0.07-0.32,0.16-0.61,0.29-0.87c0.13-0.26,0.29-0.47,0.49-0.63s0.46-0.24,0.77-0.24c0.35,0,0.64,0.06,0.88,0.18
		s0.43,0.28,0.58,0.49s0.25,0.43,0.32,0.69c0.07,0.26,0.1,0.53,0.1,0.81c0,0.23-0.01,0.47-0.04,0.7c-0.03,0.23-0.07,0.45-0.13,0.65
		c-0.12,0.5-0.32,1.09-0.6,1.76c-0.28,0.67-0.59,1.41-0.92,2.22c-0.33,0.81-0.67,1.68-1.02,2.63c-0.35,0.94-0.65,1.94-0.92,2.99
		c-0.16,0.59-0.29,1.24-0.41,1.94c-0.12,0.7-0.18,1.34-0.18,1.91c0,0.46,0.04,0.89,0.12,1.3c0.08,0.41,0.22,0.76,0.42,1.07
		s0.47,0.55,0.81,0.73c0.34,0.18,0.77,0.27,1.3,0.27c0.4,0,0.82-0.03,1.25-0.1s0.94-0.23,1.53-0.49c0.87-0.39,1.69-0.9,2.47-1.51
		c0.78-0.62,1.49-1.32,2.16-2.12s1.28-1.65,1.84-2.56c0.56-0.91,1.07-1.86,1.53-2.84s0.86-1.97,1.21-2.98c0.35-1,0.65-1.99,0.9-2.96
		c0.1-0.41,0.18-0.8,0.23-1.16s0.1-0.73,0.13-1.11c0.03-0.38,0.05-0.79,0.07-1.22c0.02-0.44,0.05-0.93,0.09-1.49
		c0.03-0.45,0.16-0.83,0.38-1.16c0.22-0.33,0.55-0.49,1-0.49c0.28,0,0.52,0.11,0.73,0.33c0.21,0.22,0.38,0.5,0.51,0.83
		c0.13,0.33,0.23,0.68,0.3,1.05s0.1,0.7,0.1,0.99c0,0.56-0.06,1.16-0.17,1.81c-0.11,0.65-0.25,1.27-0.4,1.86
		c-0.32,1.28-0.71,2.57-1.16,3.87s-0.99,2.56-1.61,3.8s-1.35,2.44-2.18,3.61c-0.83,1.17-1.79,2.26-2.87,3.27
		c-0.54,0.5-1.12,1-1.74,1.48c-0.62,0.49-1.28,0.92-1.96,1.31c-0.68,0.39-1.38,0.71-2.09,0.95c-0.71,0.24-1.42,0.36-2.13,0.36
		c-1.02,0-1.9-0.14-2.64-0.43c-0.75-0.28-1.37-0.68-1.87-1.2c-0.5-0.51-0.87-1.12-1.11-1.83c-0.25-0.71-0.37-1.49-0.37-2.33
		c0-0.4,0.03-0.85,0.1-1.33C147.31,210.53,147.39,210.05,147.49,209.58z"/>
	<path class="st1" d="M169.88,216.39c0-0.39,0.06-0.8,0.17-1.24c0.38-1.52,0.82-3,1.33-4.46c0.51-1.46,0.97-2.9,1.38-4.34
		s0.76-2.65,1.03-3.64c0.27-0.99,0.52-1.84,0.73-2.54c0.21-0.71,0.41-1.32,0.59-1.83c0.18-0.51,0.37-1.02,0.59-1.52
		c0.13-0.3,0.28-0.61,0.44-0.94s0.34-0.62,0.53-0.9c0.19-0.27,0.39-0.5,0.59-0.67c0.21-0.17,0.42-0.26,0.64-0.26
		c0.46,0,0.81,0.08,1.05,0.23s0.39,0.29,0.44,0.41l0.15,0.69c0.17-0.01,0.38-0.04,0.65-0.09c0.27-0.05,0.54-0.1,0.81-0.16
		c0.27-0.06,0.53-0.11,0.76-0.17c0.23-0.06,0.41-0.11,0.54-0.15c0.74-0.2,1.42-0.37,2.04-0.52c0.62-0.15,1.22-0.26,1.78-0.36
		c0.56-0.09,1.1-0.16,1.61-0.21c0.51-0.04,1.03-0.07,1.56-0.07c0.51,0,0.93,0.03,1.26,0.08c0.32,0.06,0.58,0.13,0.77,0.23
		c0.19,0.09,0.32,0.21,0.39,0.33c0.07,0.13,0.11,0.26,0.11,0.41c0,0.13-0.04,0.28-0.11,0.43c-0.07,0.15-0.19,0.29-0.36,0.43
		c-0.17,0.13-0.38,0.25-0.65,0.35c-0.27,0.1-0.6,0.17-1,0.2c-0.1,0.02-0.33,0.06-0.69,0.13c-0.36,0.06-0.76,0.13-1.18,0.2
		c-0.42,0.07-0.83,0.14-1.2,0.21c-0.38,0.07-0.64,0.12-0.79,0.15h0.02c-0.07,0.01-0.23,0.05-0.48,0.13
		c-0.25,0.07-0.56,0.16-0.91,0.25c-0.36,0.09-0.74,0.2-1.16,0.33c-0.42,0.12-0.83,0.24-1.24,0.36c-0.41,0.12-0.78,0.23-1.13,0.33
		s-0.62,0.19-0.84,0.26c-0.68,0.27-1.21,0.62-1.6,1.06c-0.38,0.44-0.69,0.93-0.91,1.48c-0.04,0.1-0.11,0.27-0.2,0.51
		s-0.19,0.51-0.29,0.82s-0.22,0.63-0.34,0.98s-0.24,0.67-0.35,0.99c-0.11,0.31-0.21,0.6-0.29,0.85c-0.08,0.26-0.14,0.45-0.18,0.57
		c-0.03,0.11-0.06,0.21-0.07,0.3c-0.01,0.09-0.02,0.16-0.02,0.2c0,0.07,0.02,0.1,0.05,0.1c0.17,0,0.52-0.08,1.05-0.23
		c0.53-0.15,1.15-0.34,1.86-0.56c0.71-0.22,1.47-0.46,2.28-0.72c0.81-0.26,1.58-0.5,2.33-0.72c0.74-0.22,1.4-0.41,1.98-0.56
		c0.58-0.15,1-0.23,1.26-0.23c0.39,0,0.65,0.06,0.79,0.19c0.13,0.13,0.2,0.27,0.2,0.43c0,0.4-0.14,0.75-0.43,1.05
		c-0.28,0.3-0.64,0.56-1.06,0.79c-0.13,0.07-0.38,0.16-0.74,0.29c-0.36,0.13-0.75,0.26-1.17,0.39c-0.42,0.13-0.82,0.26-1.2,0.38
		c-0.38,0.12-0.65,0.21-0.82,0.27c-1.09,0.42-1.98,0.77-2.67,1.05c-0.69,0.27-1.24,0.5-1.67,0.67c-0.42,0.17-0.75,0.3-0.98,0.39
		c-0.23,0.09-0.44,0.16-0.64,0.23c-0.2,0.06-0.41,0.12-0.64,0.18c-0.23,0.06-0.56,0.13-0.97,0.23c-0.1,0.23-0.22,0.59-0.35,1.06
		s-0.26,0.97-0.38,1.47c-0.12,0.51-0.23,0.98-0.31,1.41s-0.13,0.74-0.13,0.9c0,0.2,0.03,0.35,0.08,0.44s0.12,0.16,0.2,0.19
		c0.08,0.03,0.16,0.05,0.23,0.05s0.14,0,0.18,0c0.54,0,1.18-0.08,1.93-0.23c0.75-0.16,1.5-0.36,2.23-0.62
		c0.7-0.25,1.32-0.51,1.84-0.8s1.02-0.56,1.48-0.81c0.46-0.25,0.91-0.46,1.36-0.64s0.92-0.26,1.45-0.28c0.11,0,0.24,0.01,0.39,0.03
		c0.15,0.02,0.29,0.06,0.43,0.13c0.13,0.06,0.24,0.14,0.33,0.24c0.08,0.1,0.11,0.23,0.09,0.38c-0.04,0.32-0.21,0.64-0.49,0.95
		c-0.28,0.31-0.63,0.61-1.05,0.9s-0.9,0.57-1.42,0.84c-0.52,0.27-1.06,0.52-1.61,0.76s-1.08,0.46-1.61,0.65
		c-0.52,0.2-0.99,0.37-1.41,0.51c-1.03,0.36-2.02,0.62-3,0.79c-0.97,0.17-1.84,0.25-2.61,0.25c-0.85,0-1.5-0.16-1.95-0.48
		C170.11,217.66,169.88,217.13,169.88,216.39z"/>
	<path class="st1" d="M190.38,213.77c0.38,0.13,0.77,0.29,1.16,0.47c0.4,0.18,0.81,0.35,1.23,0.51s0.87,0.3,1.33,0.41
		c0.46,0.11,0.96,0.17,1.48,0.17c0.61,0,1.23-0.07,1.86-0.22s1.24-0.36,1.83-0.64c0.6-0.28,1.17-0.63,1.72-1.04
		c0.55-0.41,1.05-0.88,1.51-1.41c0.5-0.57,0.92-1.08,1.26-1.55s0.61-0.88,0.81-1.24c0.21-0.36,0.35-0.67,0.44-0.94
		c0.09-0.26,0.13-0.49,0.13-0.68c0-0.28-0.09-0.52-0.28-0.73c-0.19-0.21-0.44-0.38-0.76-0.51s-0.68-0.23-1.08-0.29
		c-0.4-0.06-0.82-0.09-1.26-0.09c-0.26,0-0.56,0.01-0.9,0.03c-0.35,0.02-0.7,0.03-1.05,0.05c-0.36,0.02-0.7,0.03-1.04,0.04
		c-0.33,0.01-0.62,0.02-0.87,0.02c-0.37,0-0.75-0.04-1.15-0.13c-0.4-0.08-0.78-0.22-1.16-0.41c-0.38-0.19-0.73-0.45-1.05-0.77
		c-0.32-0.32-0.59-0.73-0.8-1.2c-0.07-0.16-0.13-0.34-0.18-0.55c-0.06-0.21-0.08-0.44-0.08-0.69c0-0.27,0.02-0.52,0.06-0.76
		s0.09-0.47,0.14-0.69c0.16-0.56,0.42-1.12,0.78-1.7s0.8-1.14,1.31-1.68c0.51-0.55,1.06-1.08,1.66-1.59c0.6-0.51,1.21-1,1.84-1.45
		s1.25-0.86,1.86-1.22c0.61-0.36,1.17-0.67,1.7-0.93c0.74-0.36,1.49-0.62,2.25-0.78c0.76-0.16,1.52-0.24,2.27-0.24
		c0.45,0,0.87,0.06,1.27,0.18c0.4,0.12,0.76,0.29,1.06,0.51c0.31,0.22,0.55,0.5,0.73,0.83s0.27,0.71,0.27,1.13
		c0,0.25-0.03,0.45-0.08,0.62c-0.06,0.17-0.13,0.3-0.22,0.41c-0.09,0.11-0.19,0.18-0.29,0.23s-0.21,0.07-0.33,0.07
		c-0.3,0-0.58-0.03-0.83-0.1c-0.25-0.07-0.49-0.14-0.73-0.23c-0.23-0.08-0.47-0.16-0.7-0.23c-0.23-0.07-0.49-0.11-0.77-0.11
		c-0.83,0-1.67,0.16-2.52,0.49s-1.68,0.75-2.49,1.26c-0.81,0.51-1.57,1.07-2.29,1.7s-1.36,1.23-1.93,1.82
		c-0.3,0.31-0.52,0.62-0.66,0.94c-0.14,0.31-0.21,0.61-0.21,0.89c0,0.41,0.18,0.74,0.54,0.97c0.36,0.23,0.79,0.35,1.31,0.35
		c0.3,0,0.64-0.01,1.02-0.02c0.38-0.01,0.77-0.03,1.16-0.04s0.78-0.03,1.15-0.05s0.71-0.03,1-0.03c0.69,0,1.36,0.1,1.99,0.29
		c0.64,0.2,1.2,0.48,1.69,0.86c0.49,0.38,0.88,0.85,1.18,1.41c0.3,0.56,0.44,1.21,0.44,1.93c0,0.45-0.07,0.9-0.2,1.36
		c-0.13,0.46-0.32,0.92-0.55,1.38c-0.23,0.46-0.5,0.92-0.8,1.37c-0.3,0.45-0.62,0.9-0.95,1.33c-0.6,0.78-1.27,1.52-2.02,2.21
		s-1.53,1.29-2.37,1.81c-0.84,0.51-1.72,0.92-2.65,1.22s-1.89,0.45-2.87,0.45c-0.42,0-0.86-0.04-1.31-0.12
		c-0.45-0.08-0.89-0.19-1.32-0.34c-0.44-0.15-0.85-0.34-1.23-0.57c-0.38-0.23-0.72-0.49-1.01-0.78c-0.29-0.29-0.52-0.61-0.69-0.96
		c-0.17-0.35-0.26-0.73-0.26-1.15c0-0.2,0.03-0.39,0.09-0.58C189.98,213.86,190.14,213.77,190.38,213.77z"/>
	<path class="st1" d="M211.5,216.39c0-0.39,0.06-0.8,0.17-1.24c0.38-1.52,0.82-3,1.33-4.46c0.51-1.46,0.97-2.9,1.38-4.34
		s0.76-2.65,1.03-3.64c0.27-0.99,0.52-1.84,0.73-2.54c0.21-0.71,0.41-1.32,0.59-1.83c0.18-0.51,0.37-1.02,0.59-1.52
		c0.13-0.3,0.28-0.61,0.44-0.94s0.34-0.62,0.53-0.9c0.19-0.27,0.39-0.5,0.59-0.67c0.21-0.17,0.42-0.26,0.64-0.26
		c0.46,0,0.81,0.08,1.05,0.23s0.39,0.29,0.44,0.41l0.15,0.69c0.17-0.01,0.38-0.04,0.65-0.09c0.27-0.05,0.54-0.1,0.81-0.16
		c0.27-0.06,0.53-0.11,0.76-0.17c0.23-0.06,0.41-0.11,0.54-0.15c0.74-0.2,1.42-0.37,2.04-0.52c0.62-0.15,1.22-0.26,1.78-0.36
		c0.56-0.09,1.1-0.16,1.61-0.21c0.51-0.04,1.03-0.07,1.56-0.07c0.51,0,0.93,0.03,1.26,0.08c0.32,0.06,0.58,0.13,0.77,0.23
		s0.32,0.21,0.39,0.33c0.07,0.13,0.11,0.26,0.11,0.41c0,0.13-0.04,0.28-0.11,0.43c-0.07,0.15-0.19,0.29-0.36,0.43
		c-0.17,0.13-0.38,0.25-0.65,0.35c-0.27,0.1-0.6,0.17-1,0.2c-0.1,0.02-0.33,0.06-0.69,0.13s-0.76,0.13-1.18,0.2
		c-0.42,0.07-0.83,0.14-1.2,0.21c-0.38,0.07-0.64,0.12-0.79,0.15h0.02c-0.07,0.01-0.23,0.05-0.48,0.13
		c-0.25,0.07-0.56,0.16-0.91,0.25c-0.36,0.09-0.74,0.2-1.16,0.33c-0.42,0.12-0.83,0.24-1.24,0.36c-0.41,0.12-0.78,0.23-1.13,0.33
		s-0.62,0.19-0.84,0.26c-0.68,0.27-1.21,0.62-1.6,1.06c-0.38,0.44-0.69,0.93-0.91,1.48c-0.04,0.1-0.11,0.27-0.2,0.51
		c-0.09,0.24-0.19,0.51-0.29,0.82s-0.22,0.63-0.34,0.98s-0.24,0.67-0.35,0.99c-0.11,0.31-0.21,0.6-0.29,0.85
		c-0.08,0.26-0.14,0.45-0.18,0.57c-0.03,0.11-0.06,0.21-0.07,0.3s-0.02,0.16-0.02,0.2c0,0.07,0.02,0.1,0.05,0.1
		c0.17,0,0.52-0.08,1.05-0.23c0.53-0.15,1.15-0.34,1.86-0.56c0.71-0.22,1.47-0.46,2.28-0.72c0.81-0.26,1.58-0.5,2.33-0.72
		c0.74-0.22,1.4-0.41,1.98-0.56c0.58-0.15,1-0.23,1.26-0.23c0.39,0,0.65,0.06,0.79,0.19s0.2,0.27,0.2,0.43
		c0,0.4-0.14,0.75-0.43,1.05c-0.28,0.3-0.64,0.56-1.06,0.79c-0.13,0.07-0.38,0.16-0.74,0.29c-0.36,0.13-0.75,0.26-1.17,0.39
		c-0.42,0.13-0.82,0.26-1.2,0.38c-0.38,0.12-0.65,0.21-0.82,0.27c-1.09,0.42-1.98,0.77-2.67,1.05c-0.69,0.27-1.24,0.5-1.67,0.67
		s-0.75,0.3-0.98,0.39c-0.23,0.09-0.44,0.16-0.64,0.23c-0.2,0.06-0.41,0.12-0.64,0.18c-0.23,0.06-0.56,0.13-0.97,0.23
		c-0.1,0.23-0.22,0.59-0.35,1.06s-0.26,0.97-0.38,1.47s-0.23,0.98-0.31,1.41s-0.13,0.74-0.13,0.9c0,0.2,0.03,0.35,0.08,0.44
		c0.06,0.09,0.12,0.16,0.2,0.19c0.08,0.03,0.16,0.05,0.23,0.05s0.14,0,0.18,0c0.54,0,1.18-0.08,1.93-0.23
		c0.75-0.16,1.5-0.36,2.23-0.62c0.7-0.25,1.32-0.51,1.84-0.8c0.52-0.29,1.02-0.56,1.48-0.81s0.91-0.46,1.36-0.64
		s0.92-0.26,1.45-0.28c0.11,0,0.24,0.01,0.39,0.03s0.29,0.06,0.43,0.13c0.13,0.06,0.24,0.14,0.33,0.24c0.08,0.1,0.11,0.23,0.09,0.38
		c-0.04,0.32-0.21,0.64-0.49,0.95c-0.28,0.31-0.63,0.61-1.05,0.9s-0.9,0.57-1.42,0.84s-1.06,0.52-1.61,0.76s-1.08,0.46-1.61,0.65
		c-0.52,0.2-0.99,0.37-1.41,0.51c-1.03,0.36-2.02,0.62-3,0.79c-0.97,0.17-1.84,0.25-2.61,0.25c-0.85,0-1.5-0.16-1.95-0.48
		S211.5,217.13,211.5,216.39z"/>
	<path class="st1" d="M246.86,217.82c-0.23,0-0.44-0.04-0.62-0.13c-0.18-0.09-0.33-0.21-0.44-0.35c-0.12-0.15-0.21-0.31-0.27-0.5
		c-0.06-0.19-0.09-0.38-0.09-0.57c0-0.17,0.04-0.4,0.13-0.69c0.09-0.3,0.2-0.63,0.34-1c0.14-0.37,0.29-0.75,0.46-1.15
		s0.33-0.79,0.49-1.15c0.16-0.37,0.29-0.71,0.4-1.02c0.11-0.31,0.19-0.56,0.23-0.74c0.04-0.2,0.1-0.44,0.17-0.72
		s0.14-0.58,0.23-0.91c0.08-0.33,0.17-0.67,0.25-1.04c0.08-0.36,0.17-0.73,0.26-1.1c-0.16,0.03-0.35,0.06-0.58,0.09
		s-0.47,0.05-0.73,0.08c-0.37,0.03-0.73,0.08-1.09,0.15c-0.36,0.07-0.72,0.14-1.1,0.23s-0.76,0.17-1.16,0.27
		c-0.4,0.09-0.83,0.19-1.29,0.29c-0.67,0.15-1.34,0.31-2.01,0.49c-0.67,0.18-1.37,0.27-2.09,0.27c-0.22,0-0.43-0.06-0.62-0.18
		c-0.19-0.12-0.4-0.2-0.64-0.26c-0.22,0.36-0.44,0.74-0.64,1.15c-0.2,0.41-0.38,0.83-0.55,1.26c-0.17,0.43-0.32,0.85-0.45,1.27
		c-0.13,0.42-0.25,0.81-0.35,1.18c-0.06,0.2-0.1,0.46-0.14,0.78s-0.08,0.64-0.11,0.97c-0.03,0.33-0.07,0.64-0.1,0.95
		c-0.03,0.3-0.07,0.54-0.1,0.72c-0.03,0.17-0.1,0.33-0.2,0.49c-0.1,0.16-0.22,0.31-0.37,0.44s-0.31,0.24-0.49,0.33
		c-0.18,0.08-0.36,0.13-0.54,0.13c-0.31,0-0.57-0.09-0.76-0.28s-0.35-0.41-0.47-0.69c-0.12-0.27-0.2-0.57-0.24-0.9
		c-0.04-0.32-0.07-0.62-0.07-0.89c0-0.68,0.08-1.39,0.25-2.12c0.17-0.73,0.39-1.47,0.68-2.23c0.28-0.75,0.62-1.51,1-2.28
		c0.38-0.76,0.8-1.53,1.25-2.28c0.37-0.68,0.83-1.47,1.37-2.36s1.16-1.81,1.83-2.75c0.67-0.94,1.41-1.87,2.19-2.77
		s1.6-1.71,2.45-2.42c0.85-0.71,1.72-1.28,2.61-1.72c0.89-0.44,1.78-0.65,2.66-0.65c0.93,0,1.7,0.17,2.32,0.5
		c0.62,0.33,1.11,0.79,1.48,1.36s0.63,1.23,0.78,1.99c0.15,0.76,0.23,1.56,0.23,2.41c0,0.75-0.05,1.52-0.14,2.31
		c-0.09,0.79-0.21,1.57-0.35,2.33c-0.14,0.76-0.29,1.49-0.45,2.19c-0.16,0.7-0.31,1.34-0.44,1.91l-0.59,2.28
		c-0.02,0.07-0.06,0.2-0.13,0.4c-0.06,0.2-0.14,0.44-0.23,0.73c-0.09,0.28-0.2,0.59-0.32,0.92c-0.12,0.33-0.23,0.65-0.35,0.97
		c-0.12,0.32-0.23,0.61-0.33,0.88c-0.11,0.27-0.2,0.49-0.28,0.65l0.02-0.02c-0.08,0.29-0.16,0.59-0.25,0.89
		c-0.09,0.3-0.21,0.57-0.37,0.81c-0.16,0.24-0.36,0.44-0.6,0.59C247.57,217.74,247.25,217.82,246.86,217.82z M247.72,196.87
		c-0.5,0-1,0.1-1.5,0.31c-0.5,0.21-0.98,0.48-1.46,0.81c-0.48,0.33-0.95,0.73-1.4,1.17c-0.45,0.45-0.88,0.9-1.29,1.37
		c-0.41,0.47-0.79,0.94-1.15,1.41s-0.68,0.91-0.97,1.31c-0.04,0.07-0.1,0.15-0.18,0.26s-0.15,0.22-0.22,0.35
		c-0.07,0.13-0.14,0.26-0.21,0.4c-0.07,0.14-0.12,0.26-0.17,0.38h1.72c0.62,0,1.34-0.04,2.14-0.13c0.8-0.09,1.6-0.2,2.38-0.32
		s1.51-0.25,2.17-0.38c0.66-0.13,1.15-0.23,1.49-0.29c0.04-0.15,0.09-0.34,0.13-0.59c0.04-0.25,0.08-0.52,0.11-0.82
		c0.03-0.3,0.06-0.62,0.08-0.96c0.02-0.34,0.03-0.69,0.03-1.05c0-0.29-0.01-0.62-0.03-1c-0.02-0.37-0.09-0.73-0.2-1.06
		c-0.11-0.33-0.28-0.62-0.51-0.85S248.13,196.87,247.72,196.87z"/>
	<path class="st1" d="M257.69,209c0.5-1.54,0.98-3.02,1.44-4.43c0.46-1.42,0.86-2.73,1.21-3.93c0.35-1.2,0.63-2.27,0.84-3.2
		s0.32-1.66,0.34-2.21c0.13-0.52,0.37-0.94,0.71-1.26c0.34-0.31,0.73-0.47,1.18-0.47c0.27,0,0.5,0.06,0.69,0.18
		c0.19,0.12,0.34,0.28,0.46,0.49c0.12,0.2,0.2,0.43,0.26,0.68c0.06,0.25,0.08,0.5,0.08,0.76c0,0.19-0.01,0.36-0.03,0.52
		c-0.02,0.16-0.05,0.31-0.08,0.45c-0.26,1.03-0.56,2.09-0.92,3.18c-0.36,1.09-0.72,2.2-1.1,3.32c-0.37,1.12-0.74,2.25-1.11,3.37
		c-0.37,1.13-0.7,2.23-0.99,3.31l-0.3,1.14c-0.16,0.58-0.29,1.13-0.4,1.66c-0.11,0.52-0.17,0.95-0.17,1.27
		c0,0.18,0.03,0.32,0.1,0.43c0.07,0.11,0.2,0.16,0.38,0.16c0.46,0,0.99-0.08,1.61-0.23c0.61-0.15,1.25-0.33,1.91-0.55
		s1.31-0.46,1.97-0.72c0.65-0.26,1.25-0.51,1.8-0.74c0.29-0.12,0.54-0.23,0.74-0.32s0.46-0.2,0.77-0.33
		c0.31-0.13,0.72-0.3,1.23-0.51c0.51-0.21,1.22-0.51,2.13-0.89c0.16-0.06,0.29-0.1,0.41-0.14c0.12-0.04,0.23-0.06,0.33-0.06
		c0.18,0,0.33,0.03,0.46,0.1s0.23,0.16,0.3,0.27c0.07,0.11,0.13,0.24,0.16,0.38s0.05,0.29,0.05,0.44c0,0.25-0.02,0.46-0.06,0.64
		s-0.08,0.34-0.13,0.46c-0.13,0.21-0.31,0.4-0.52,0.58s-0.44,0.32-0.67,0.45s-0.46,0.24-0.69,0.33c-0.22,0.09-0.41,0.16-0.55,0.2
		c-0.18,0.07-0.42,0.16-0.71,0.27c-0.3,0.11-0.62,0.23-0.96,0.37c-0.35,0.13-0.7,0.27-1.07,0.41c-0.37,0.14-0.71,0.27-1.04,0.39
		c-0.32,0.12-0.61,0.23-0.86,0.33c-0.25,0.09-0.43,0.16-0.53,0.19c-0.48,0.18-1.01,0.38-1.6,0.6s-1.17,0.44-1.75,0.64
		c-0.58,0.2-1.13,0.37-1.65,0.51c-0.52,0.14-0.95,0.21-1.3,0.21c-0.42,0-0.76-0.03-1-0.1s-0.45-0.16-0.64-0.28
		c-0.19-0.12-0.38-0.26-0.58-0.43c-0.2-0.17-0.45-0.35-0.78-0.55c-0.29-0.18-0.5-0.42-0.62-0.74c-0.12-0.31-0.18-0.65-0.18-1
		c0-0.18,0.01-0.38,0.04-0.62c0.03-0.23,0.06-0.48,0.11-0.74c0.04-0.26,0.09-0.51,0.15-0.75c0.06-0.25,0.12-0.46,0.18-0.65
		L257.69,209z"/>
</g>
</svg>
