<?xml version="1.0" encoding="utf-8"?>
<!-- Generator: Adobe Illustrator 27.3.1, SVG Export Plug-In . SVG Version: 6.00 Build 0)  -->
<svg version="1.1" id="Layer_1" xmlns="http://www.w3.org/2000/svg" xmlns:xlink="http://www.w3.org/1999/xlink" x="0px" y="0px"
	 viewBox="0 0 320 320" style="enable-background:new 0 0 320 320;" xml:space="preserve">
<style type="text/css">
	.st0{fill:#FFFEF6;}
	.st1{opacity:0.18;fill:url(#SVGID_1_);}
	.st2{fill:url(#SVGID_00000131336035488467783090000008011672806509030847_);}
</style>
<rect x="0.61" y="0" class="st0" width="320" height="320"/>
<linearGradient id="SVGID_1_" gradientUnits="userSpaceOnUse" x1="152.6882" y1="354.2877" x2="163.3183" y2="71.8286" gradientTransform="matrix(-1 0 0 -1 320 320)">
	<stop  offset="0.2971" style="stop-color:#F7EC31"/>
	<stop  offset="0.3723" style="stop-color:#E3D553;stop-opacity:0.9734"/>
	<stop  offset="0.5315" style="stop-color:#B5A47D;stop-opacity:0.9171"/>
	<stop  offset="0.7597" style="stop-color:#796496;stop-opacity:0.8364"/>
	<stop  offset="0.8626" style="stop-color:#5F489D;stop-opacity:0.8"/>
</linearGradient>
<path class="st1" d="M239.52,320H80.48C36.03,320,0,283.97,0,239.52V80.48C0,36.03,36.03,0,80.48,0h159.04
	C283.97,0,320,36.03,320,80.48v159.04C320,283.97,283.97,320,239.52,320z"/>
<linearGradient id="SVGID_00000138559418415533868360000000045414132871881117_" gradientUnits="userSpaceOnUse" x1="152.268" y1="326.6286" x2="161.5923" y2="78.8702">
	<stop  offset="0.2971" style="stop-color:#F7EC31"/>
	<stop  offset="0.3723" style="stop-color:#E3D553;stop-opacity:0.9734"/>
	<stop  offset="0.5315" style="stop-color:#B5A47D;stop-opacity:0.9171"/>
	<stop  offset="0.7597" style="stop-color:#796496;stop-opacity:0.8364"/>
	<stop  offset="0.8626" style="stop-color:#5F489D;stop-opacity:0.8"/>
</linearGradient>
<path style="fill:url(#SVGID_00000138559418415533868360000000045414132871881117_);" d="M308.56,121.18L205.9,106.27l-45.89-93.03
	l-45.91,93.03L11.44,121.18l74.29,72.39L68.19,295.82l91.82-48.27l91.8,48.27l-17.54-102.25L308.56,121.18z M159.5,207.92
	l-53.06,27.46l10.5-58.81l-42.5-41.99l59.18-8.18l26.79-53.39l26.07,53.75l59.07,8.98l-43.07,41.41l9.7,58.95L159.5,207.92z"/>
</svg>
