<?xml version="1.0" encoding="utf-8"?>
<!-- Generator: Adobe Illustrator 27.3.1, SVG Export Plug-In . SVG Version: 6.00 Build 0)  -->
<svg version="1.1" id="Layer_1" xmlns="http://www.w3.org/2000/svg" xmlns:xlink="http://www.w3.org/1999/xlink" x="0px" y="0px"
	 viewBox="0 0 320 320" style="enable-background:new 0 0 320 320;" xml:space="preserve">
<style type="text/css">
	.st0{fill:#866EB1;}
</style>
<g>
	<path class="st0" d="M60.13,127.31c3.38-0.71,8.73-1.25,14.17-1.25c7.75,0,12.75,1.34,16.49,4.37c3.12,2.31,4.99,5.88,4.99,10.6
		c0,5.79-3.83,10.87-10.16,13.19v0.18c5.7,1.43,12.39,6.15,12.39,15.06c0,5.17-2.05,9.09-5.08,12.03
		c-4.19,3.83-10.96,5.61-20.76,5.61c-5.35,0-9.45-0.36-12.03-0.71V127.31z M67.88,151.91h7.04c8.2,0,13.01-4.28,13.01-10.07
		c0-7.04-5.35-9.8-13.19-9.8c-3.57,0-5.61,0.26-6.86,0.53V151.91z M67.88,180.69c1.51,0.27,3.74,0.36,6.5,0.36
		c8.02,0,15.42-2.94,15.42-11.67c0-8.2-7.04-11.58-15.51-11.58h-6.41V180.69z"/>
	<path class="st0" d="M116.21,126.51v35.55c0,13.46,5.97,19.16,13.99,19.16c8.91,0,14.61-5.88,14.61-19.16v-35.55h7.84v35.02
		c0,18.44-9.72,26.02-22.73,26.02c-12.3,0-21.56-7.04-21.56-25.66v-35.38H116.21z"/>
	<path class="st0" d="M166.14,127.31c3.92-0.8,9.53-1.25,14.88-1.25c8.29,0,13.63,1.52,17.37,4.9c3.03,2.67,4.72,6.77,4.72,11.41
		c0,7.93-4.99,13.19-11.32,15.33v0.26c4.63,1.61,7.39,5.88,8.82,12.12c1.96,8.38,3.39,14.17,4.64,16.49h-8.02
		c-0.98-1.69-2.32-6.86-4.01-14.35c-1.78-8.29-4.99-11.41-12.03-11.67h-7.31v26.02h-7.75V127.31z M173.89,154.67h7.93
		c8.29,0,13.54-4.55,13.54-11.41c0-7.75-5.61-11.14-13.81-11.23c-3.74,0-6.41,0.36-7.66,0.71V154.67z"/>
	<path class="st0" d="M226.49,186.57v-25.49l-18.98-34.57h8.82l8.46,16.57c2.32,4.55,4.1,8.2,5.97,12.39h0.18
		c1.69-3.92,3.74-7.84,6.06-12.39l8.64-16.57h8.82L234.34,161v25.57H226.49z"/>
</g>
<rect x="42.21" y="195.09" class="st0" width="230.19" height="8.77"/>
<rect x="42.21" y="109.75" class="st0" width="230.19" height="8.77"/>
</svg>
