<?xml version="1.0" encoding="utf-8"?>
<!-- Generator: Adobe Illustrator 27.3.1, SVG Export Plug-In . SVG Version: 6.00 Build 0)  -->
<svg version="1.1" id="Layer_1" xmlns="http://www.w3.org/2000/svg" xmlns:xlink="http://www.w3.org/1999/xlink" x="0px" y="0px"
	 viewBox="0 0 320 320" style="enable-background:new 0 0 320 320;" xml:space="preserve">
<style type="text/css">
	.st0{fill:#EC8623;}
	.st1{fill:#442B7C;}
	.st2{fill:#FFFFFF;}
</style>
<g>
	<path class="st0" d="M240.98,70.24l-121.92,0.04h-10.77l-22.49,0.01h-8.22c4.38-4.46,9.12-8.58,14.17-12.27
		c18.94-13.88,42.29-22.08,67.56-22.08C191.3,35.95,220.21,49.07,240.98,70.24z"/>
	<path class="st0" d="M273.75,150.4c0,57.92-43.03,105.8-98.87,113.39c-5.1,0.71-10.3,1.07-15.58,1.07c-5.03,0-9.98-0.33-14.83-0.96
		c-56.2-7.26-99.62-55.31-99.62-113.49c0-15,2.88-29.32,8.14-42.45c5.46-13.68,13.49-26.06,23.49-36.55
		c0.37-0.37,0.73-0.75,1.09-1.11h8.22l22.49-0.01h10.77l121.92-0.04c11.75,11.95,20.88,26.48,26.48,42.67
		C271.54,124.64,273.75,137.27,273.75,150.4z"/>
	<polygon class="st1" points="293.65,70.22 267.46,112.9 238.11,160.75 237.35,161.98 174.88,263.79 159.3,289.19 144.47,263.89 
		85.32,163.04 84.68,161.98 77.22,149.26 76.55,148.1 52.99,107.95 30.91,70.31 76.4,70.29 85.79,70.29 108.28,70.28 119.05,70.28 
		240.98,70.24 	"/>
	<polygon class="st1" points="237.37,160.41 239.95,160.41 239.95,162.31 236.79,162.4 	"/>
	<g>
		<path class="st1" d="M77.57,70.29c0.03,0.35-1.11,0.72-1.09,1.11c0.09,1.51,0.13,3.25,0.13,5.21v67.84c0,1.32-0.01,2.53-0.06,3.64
			c-0.13,3.86-0.28,7.72-0.28,7.72c-0.03,0.52-0.25,4.32-4.2,4.2c-0.03,0-1.49,0.01-1.52,0.01l-0.47,0.08v2.3
			c-0.16,0.94,7.45,0.58,7.77,0.58l20.4,0.74c7.3,0,12.32-1.75,15.86-3.92c1.79-1.14,3.38-2.62,4.8-4.45
			c1.24-1.58,2.3-3.33,3.18-5.21c0.16-0.3,0.3-0.6,0.43-0.91c0.99-2.25,1.76-4.64,2.28-7.2c0.53-2.55,0.79-5.13,0.79-7.7
			c0-2.89-0.27-5.64-0.82-8.25c-0.53-2.61-1.4-5-2.58-7.16c-0.37-0.69-0.78-1.34-1.22-1.97c-0.95-1.37-2.07-2.59-3.34-3.69
			c-1.59-1.36-3.46-2.48-5.61-3.36c-0.46-0.19-0.5-0.79-0.08-1.05c3.33-2,5.88-4.88,7.67-8.64c1.97-4.16,2.97-8.87,2.97-14.14
			c0-3.04-0.33-5.95-0.96-8.71c-0.56-2.45-1.36-4.69-2.4-6.75c-0.1-0.2-0.31-0.32-0.53-0.32h-9.32c-0.46,0-0.73,0.51-0.48,0.9
			c1.07,1.69,1.91,3.59,2.52,5.71c0.78,2.71,1.17,5.56,1.17,8.55c0,2.02-0.16,3.95-0.48,5.8c-0.32,1.86-0.78,3.6-1.38,5.2
			c-0.6,1.6-1.37,3.05-2.28,4.33c-0.91,1.3-1.96,2.36-3.14,3.17c-2.29,1.61-5.79,2.4-10.47,2.4c-3.41,0-6.28-0.32-8.62-0.96
			c-0.25-0.07-0.42-0.3-0.42-0.57V70.88c0-0.32-0.26-0.58-0.58-0.58H77.57 M113.37,144.18c-0.53,1.87-1.24,3.59-2.15,5.11
			c-0.36,0.65-0.78,1.27-1.22,1.86c-1.5,2-3.36,3.56-5.57,4.69c-1.4,0.72-2.92,1.21-4.59,1.45c-0.98,0.17-2,0.24-3.08,0.24
			c-3.51,0-7.03-0.64-10.57-1.94c-0.23-0.09-0.39-0.31-0.39-0.56v-42.19c0-0.27,0.17-0.51,0.43-0.57c0.8-0.2,1.78-0.33,2.94-0.43
			c1.38-0.1,3.08-0.16,5.1-0.16c3.44,0,6.44,0.62,8.97,1.86c2.53,1.24,4.64,2.94,6.31,5.08c1.68,2.15,2.92,4.67,3.73,7.59
			c0.82,2.92,1.22,6.05,1.22,9.4C114.49,138.68,114.12,141.53,113.37,144.18z"/>
		<path class="st2" d="M101.01,138.99c1.84,0.4,3.4,0.94,4.7,1.63c1.29,0.69,2.35,1.5,3.17,2.43c0.82,0.93,1.41,1.96,1.79,3.07
			c0.38,1.12,0.57,2.3,0.57,3.54c0,1.11-0.18,2.21-0.55,3.31c-0.37,1.1-0.89,2.13-1.58,3.09c-0.69,0.96-1.52,1.84-2.51,2.62
			c-0.98,0.79-2.1,1.42-3.34,1.91c-2.46,0.93-6.22,1.4-11.3,1.4H70.71v-1.23h1.69c1.86,0,3.21-0.6,4.06-1.8
			c0.51-0.77,0.76-2.42,0.76-4.95v-29.1c0-2.77-0.32-4.53-0.97-5.28c-0.86-0.97-2.15-1.46-3.85-1.46h-1.69v-1.23h19.47
			c3.63,0,6.54,0.27,8.74,0.8c1.66,0.4,3.13,0.96,4.4,1.7c1.27,0.73,2.34,1.58,3.21,2.56c0.86,0.97,1.52,2.05,1.96,3.24
			c0.44,1.18,0.66,2.43,0.66,3.74c0,2.26-0.69,4.28-2.06,6.06C105.71,136.81,103.69,138.13,101.01,138.99z M83.6,137.2
			c1.68,0.31,3.77,0.47,6.28,0.47c3.25,0,5.68-0.34,7.27-1.03c0.82-0.35,1.54-0.81,2.18-1.36c0.63-0.55,1.15-1.17,1.58-1.86
			c0.42-0.69,0.74-1.43,0.96-2.23c0.22-0.8,0.33-1.63,0.33-2.49c0-1.28-0.27-2.51-0.81-3.67c-0.54-1.16-1.35-2.18-2.41-3.04
			c-1.06-0.86-2.38-1.55-3.95-2.06s-3.39-0.76-5.45-0.76c-2.26,0-4.25,0.24-5.98,0.73V137.2z M83.6,158.73
			c2.55,0.6,5.08,0.9,7.61,0.9c2.01,0,3.79-0.24,5.33-0.73c1.54-0.49,2.83-1.16,3.87-2.01c1.04-0.85,1.82-1.85,2.34-2.99
			c0.52-1.14,0.78-2.36,0.78-3.67c0-1.44-0.28-2.78-0.85-4.04c-0.56-1.25-1.43-2.34-2.59-3.26c-1.16-0.92-2.62-1.65-4.39-2.18
			c-1.76-0.53-3.83-0.8-6.23-0.8c-1.4,0-2.58,0.03-3.54,0.07c-0.96,0.04-1.74,0.12-2.34,0.23V158.73z"/>
		<path class="st2" d="M147.42,118.16v-1.23h15.95v1.23h-1.69c-1.77,0-3.14,0.74-4.08,2.23c-0.47,0.71-0.7,2.3-0.7,4.78v18.27
			c0,4.5-0.46,8.01-1.36,10.53c-0.58,1.62-1.39,2.99-2.46,4.14c-1.06,1.14-2.29,2.08-3.69,2.81s-2.93,1.27-4.6,1.61
			c-1.67,0.34-3.42,0.52-5.23,0.52c-4.89,0-8.63-0.85-11.19-2.56c-1.62-1.06-2.86-2.19-3.74-3.37c-0.87-1.19-1.52-2.49-1.93-3.92
			c-0.41-1.43-0.65-3.01-0.71-4.75c-0.07-1.74-0.1-3.71-0.1-5.93v-17.61c0-1.4-0.09-2.53-0.28-3.42c-0.19-0.88-0.48-1.57-0.88-2.06
			c-0.4-0.49-0.9-0.82-1.51-1c-0.61-0.17-1.34-0.27-2.18-0.27h-1.69v-1.23h19.47v1.23h-1.73c-1.06,0-1.91,0.15-2.56,0.45
			c-0.64,0.3-1.13,0.74-1.46,1.31c-0.33,0.58-0.55,1.28-0.65,2.13c-0.1,0.84-0.15,1.79-0.15,2.86v19.64c0,1.11,0.03,2.2,0.1,3.29
			c0.06,1.09,0.2,2.13,0.4,3.14c0.2,1.01,0.47,1.96,0.81,2.86c0.34,0.9,0.79,1.72,1.34,2.47c0.86,1.2,2.02,2.15,3.47,2.84
			c1.45,0.7,3.31,1.05,5.57,1.05c1.46,0,2.86-0.17,4.2-0.52c1.34-0.34,2.57-0.82,3.69-1.43c1.12-0.61,2.09-1.33,2.9-2.16
			c0.82-0.83,1.44-1.74,1.86-2.74c0.87-2.02,1.3-5.42,1.3-10.2v-18.24c0-2.83-0.31-4.59-0.93-5.28c-0.86-0.97-2.15-1.46-3.85-1.46
			H147.42z"/>
		<path class="st2" d="M210.08,161.98h-12.03l-15.25-21.06c-0.58,0.02-1.09,0.04-1.55,0.05c-0.45,0.01-0.86,0.02-1.21,0.02
			c-0.29,0-0.6-0.01-0.93-0.02c-0.33-0.01-0.68-0.03-1.03-0.05v13.09c0,2.83,0.31,4.6,0.93,5.28c0.84,0.97,2.1,1.46,3.79,1.46h1.76
			v1.23h-19.3v-1.23h1.69c1.88,0,3.24-0.62,4.08-1.86c0.47-0.69,0.7-2.32,0.7-4.89v-29.1c0-2.83-0.31-4.59-0.93-5.28
			c-0.86-0.97-2.15-1.46-3.85-1.46h-1.69v-1.23h16.41c4.74,0,8.26,0.35,10.57,1.06c1.13,0.33,2.19,0.83,3.17,1.49
			c0.99,0.66,1.85,1.45,2.59,2.36c0.74,0.91,1.33,1.93,1.76,3.06c0.43,1.13,0.65,2.34,0.65,3.62c0,1.4-0.22,2.7-0.66,3.9
			c-0.44,1.21-1.12,2.31-2.04,3.31c-0.92,1-2.08,1.86-3.47,2.59c-1.4,0.73-3.04,1.31-4.92,1.73l9.3,12.92
			c2.15,2.99,3.97,4.96,5.48,5.92c1.55,0.97,3.54,1.59,5.98,1.86V161.98z M178.08,138.83c0.42,0,0.79,0,1.1,0.02
			c0.31,0.01,0.57,0.02,0.76,0.02c2.15,0,4.04-0.25,5.67-0.75c1.63-0.5,2.98-1.19,4.07-2.08c1.09-0.89,1.9-1.93,2.44-3.14
			c0.54-1.21,0.81-2.52,0.81-3.94c0-1.4-0.23-2.67-0.7-3.84c-0.47-1.16-1.13-2.16-1.98-3.01c-0.85-0.84-1.87-1.49-3.06-1.96
			c-1.19-0.46-2.49-0.7-3.9-0.7c-0.64,0-1.4,0.05-2.26,0.15c-0.86,0.1-1.85,0.26-2.96,0.48V138.83z"/>
		<path class="st2" d="M238.15,116.93h15.71v1.23H253c-0.27,0-0.63,0.07-1.08,0.2c-0.45,0.13-0.94,0.32-1.44,0.56
			c-0.51,0.24-1.03,0.55-1.56,0.93c-0.53,0.38-1.02,0.8-1.46,1.26c-0.47,0.49-0.97,1.12-1.51,1.9c-0.54,0.78-1.16,1.69-1.84,2.76
			l-10.87,17.11v11.3c0,2.77,0.31,4.5,0.93,5.18c0.82,0.93,2.15,1.4,3.99,1.4h1.46v1.23h-19.14v-1.23h1.59
			c1.9,0,3.26-0.58,4.05-1.73c0.49-0.69,0.73-2.3,0.73-4.85v-10.66l-12.36-18.87c-0.73-1.13-1.34-2.03-1.84-2.71
			c-0.5-0.67-0.88-1.15-1.15-1.44c-0.13-0.13-0.35-0.33-0.66-0.58c-0.31-0.26-0.7-0.52-1.16-0.78c-0.47-0.27-0.98-0.49-1.55-0.68
			c-0.56-0.19-1.16-0.28-1.78-0.28v-1.23h19.27v1.23h-1c-0.49,0-0.98,0.06-1.48,0.17c-0.5,0.11-0.95,0.29-1.34,0.53
			c-0.4,0.24-0.72,0.55-0.98,0.91c-0.25,0.36-0.38,0.8-0.38,1.31c0,0.8,0.67,2.24,2.02,4.32l9.4,14.52l8.83-13.89
			c1.33-2.08,1.99-3.63,1.99-4.65c-0.04-0.47-0.14-0.9-0.3-1.29s-0.4-0.74-0.73-1.03c-0.33-0.29-0.79-0.51-1.36-0.66
			c-0.58-0.16-1.29-0.23-2.16-0.23V116.93z"/>
	</g>
</g>
</svg>
